<svg width="108" height="153" viewBox="0 0 108 153" fill="none" xmlns="http://www.w3.org/2000/svg">
<path d="M104 4L91.5 91.8788L54 104L16.5 91.8788L4 4H104Z" stroke="white" stroke-width="8" stroke-linecap="round" stroke-linejoin="round"/>
<path d="M25.875 28.2427H44.625V76.7275L32.125 70.6669M82.125 28.2427H66.5C65.6712 28.2427 64.8763 28.5619 64.2903 29.1302C63.7042 29.6985 63.375 30.4693 63.375 31.273V49.4548C63.375 50.2585 63.7042 51.0293 64.2903 51.5975C64.8763 52.1658 65.6712 52.4851 66.5 52.4851H75.3938C75.8411 52.4852 76.2831 52.5783 76.6901 52.7583C77.0971 52.9383 77.4595 53.201 77.7528 53.5285C78.046 53.856 78.2634 54.2407 78.3902 54.6567C78.5169 55.0727 78.5501 55.5102 78.4875 55.9396L75.875 73.6972L63.375 76.7275" stroke="white" stroke-width="8" stroke-linecap="round" stroke-linejoin="round"/>
<path d="M3.71875 150.203C3.48438 150.203 3.22656 150.156 2.94531 150.062C2.66406 149.969 2.49219 149.891 2.42969 149.828C2.22656 149.578 2.125 149.227 2.125 148.773C2.125 148.414 2.27344 148.109 2.57031 147.859C2.86719 147.609 3.21094 147.484 3.60156 147.484C3.91406 147.484 4.27344 147.688 4.67969 148.094C5.05469 148.5 5.35156 148.703 5.57031 148.703C6.13281 148.703 6.59375 148.172 6.95312 147.109C7.28125 146.031 7.44531 144.5 7.44531 142.516V132.719C7.44531 132.281 7.42969 131.906 7.39844 131.594C7.38281 131.266 7.34375 131 7.28125 130.797C7.25 130.672 7.13281 130.57 6.92969 130.492C6.74219 130.414 6.53125 130.359 6.29688 130.328C6.0625 130.281 5.85938 130.258 5.6875 130.258C5.625 130.258 5.59375 130.141 5.59375 129.906C5.59375 129.656 5.60938 129.516 5.64062 129.484C6.29688 129.531 6.88281 129.57 7.39844 129.602C7.92969 129.633 8.41406 129.641 8.85156 129.625L11.8281 129.484C11.875 129.625 11.8984 129.75 11.8984 129.859C11.8984 130.125 11.8672 130.258 11.8047 130.258C11.7109 130.258 11.5469 130.289 11.3125 130.352C11.0781 130.414 10.8594 130.484 10.6562 130.562C10.4531 130.641 10.3359 130.719 10.3047 130.797C10.2422 131.047 10.1953 131.344 10.1641 131.688C10.1328 132.016 10.1172 132.406 10.1172 132.859V142.328C10.1172 143.859 9.85156 145.219 9.32031 146.406C8.78906 147.594 8.03906 148.523 7.07031 149.195C6.11719 149.867 5 150.203 3.71875 150.203ZM15.8125 145.164C15.0312 145.164 14.3906 144.953 13.8906 144.531C13.4062 144.094 13.1641 143.5 13.1641 142.75C13.1641 142.234 13.3281 141.766 13.6562 141.344C14 140.922 14.4766 140.562 15.0859 140.266C15.3047 140.156 15.5 140.07 15.6719 140.008C15.8594 139.93 16.0312 139.859 16.1875 139.797C16.7344 139.625 17.1875 139.484 17.5469 139.375C17.9219 139.266 18.1875 139.188 18.3438 139.141C18.4844 139.062 18.5547 138.938 18.5547 138.766V137.477C18.5547 136.93 18.4297 136.5 18.1797 136.188C17.9297 135.875 17.5938 135.719 17.1719 135.719C16.7031 135.719 16.3359 135.867 16.0703 136.164C15.8047 136.445 15.6719 136.852 15.6719 137.383C15.6719 137.695 15.5547 137.93 15.3203 138.086C15.0859 138.227 14.8203 138.297 14.5234 138.297C13.9453 138.297 13.5391 138.109 13.3047 137.734C13.3047 137.359 13.4453 136.992 13.7266 136.633C14.0078 136.258 14.375 135.922 14.8281 135.625C15.2969 135.328 15.8125 135.094 16.375 134.922C16.9375 134.734 17.5 134.641 18.0625 134.641C19.0312 134.641 19.7578 134.898 20.2422 135.414C20.7266 135.914 20.9688 136.781 20.9688 138.016V142.633C20.9688 143.273 21.2266 143.594 21.7422 143.594C21.9766 143.594 22.2422 143.492 22.5391 143.289C22.6328 143.305 22.6797 143.391 22.6797 143.547C22.6797 143.844 22.6328 144.078 22.5391 144.25C22.3047 144.438 21.9922 144.633 21.6016 144.836C21.2109 145.039 20.8359 145.141 20.4766 145.141C20.1172 145.141 19.7656 145.008 19.4219 144.742C19.0781 144.477 18.8516 144.188 18.7422 143.875C18.6172 143.984 18.5234 144.062 18.4609 144.109C18.3984 144.156 18.2969 144.234 18.1562 144.344C17.8281 144.562 17.4688 144.758 17.0781 144.93C16.6875 145.086 16.2656 145.164 15.8125 145.164ZM17.0078 143.641C17.4297 143.641 17.7891 143.531 18.0859 143.312C18.3984 143.094 18.5547 142.844 18.5547 142.562V140.172L17.0547 140.688C16.6953 140.844 16.375 141.031 16.0938 141.25C15.8125 141.469 15.6719 141.781 15.6719 142.188C15.6719 142.688 15.7969 143.055 16.0469 143.289C16.2969 143.523 16.6172 143.641 17.0078 143.641ZM28.3984 145.258C28.2578 145.258 28.1641 145.211 28.1172 145.117C27.6953 144.164 27.3359 143.367 27.0391 142.727C26.7578 142.07 26.5078 141.5 26.2891 141.016C26.0859 140.531 25.8828 140.07 25.6797 139.633C25.4922 139.18 25.2734 138.688 25.0234 138.156C24.7734 137.609 24.4688 136.938 24.1094 136.141C23.9219 135.703 23.4141 135.484 22.5859 135.484C22.5234 135.484 22.4922 135.359 22.4922 135.109C22.4922 134.922 22.5234 134.797 22.5859 134.734C23.0234 134.734 23.4844 134.758 23.9688 134.805C24.4688 134.852 24.9609 134.875 25.4453 134.875C25.9141 134.875 26.3906 134.852 26.875 134.805C27.3594 134.758 27.8203 134.734 28.2578 134.734C28.3047 134.797 28.3203 134.938 28.3047 135.156C28.3047 135.375 28.2734 135.484 28.2109 135.484C28.0859 135.484 27.9141 135.508 27.6953 135.555C27.4766 135.602 27.2812 135.664 27.1094 135.742C26.9375 135.805 26.8516 135.891 26.8516 136C26.8516 136.094 26.8672 136.172 26.8984 136.234L29.2188 141.625L31.3281 136.984C31.5 136.609 31.5391 136.32 31.4453 136.117C31.2109 135.695 30.6641 135.484 29.8047 135.484C29.7578 135.484 29.7344 135.375 29.7344 135.156C29.7344 134.938 29.7578 134.797 29.8047 134.734C30.2578 134.75 30.7109 134.781 31.1641 134.828C31.6172 134.859 31.9922 134.875 32.2891 134.875C32.5703 134.875 32.9375 134.859 33.3906 134.828C33.8594 134.781 34.3281 134.75 34.7969 134.734C34.8438 134.797 34.8672 134.922 34.8672 135.109C34.8672 135.359 34.8203 135.484 34.7266 135.484C34.5078 135.484 34.2031 135.562 33.8125 135.719C33.4219 135.859 33.1562 136.078 33.0156 136.375L29.1016 144.648C29.0391 144.773 28.9375 144.906 28.7969 145.047C28.6562 145.188 28.5234 145.258 28.3984 145.258ZM37.8906 145.164C37.1094 145.164 36.4688 144.953 35.9688 144.531C35.4844 144.094 35.2422 143.5 35.2422 142.75C35.2422 142.234 35.4062 141.766 35.7344 141.344C36.0781 140.922 36.5547 140.562 37.1641 140.266C37.3828 140.156 37.5781 140.07 37.75 140.008C37.9375 139.93 38.1094 139.859 38.2656 139.797C38.8125 139.625 39.2656 139.484 39.625 139.375C40 139.266 40.2656 139.188 40.4219 139.141C40.5625 139.062 40.6328 138.938 40.6328 138.766V137.477C40.6328 136.93 40.5078 136.5 40.2578 136.188C40.0078 135.875 39.6719 135.719 39.25 135.719C38.7812 135.719 38.4141 135.867 38.1484 136.164C37.8828 136.445 37.75 136.852 37.75 137.383C37.75 137.695 37.6328 137.93 37.3984 138.086C37.1641 138.227 36.8984 138.297 36.6016 138.297C36.0234 138.297 35.6172 138.109 35.3828 137.734C35.3828 137.359 35.5234 136.992 35.8047 136.633C36.0859 136.258 36.4531 135.922 36.9062 135.625C37.375 135.328 37.8906 135.094 38.4531 134.922C39.0156 134.734 39.5781 134.641 40.1406 134.641C41.1094 134.641 41.8359 134.898 42.3203 135.414C42.8047 135.914 43.0469 136.781 43.0469 138.016V142.633C43.0469 143.273 43.3047 143.594 43.8203 143.594C44.0547 143.594 44.3203 143.492 44.6172 143.289C44.7109 143.305 44.7578 143.391 44.7578 143.547C44.7578 143.844 44.7109 144.078 44.6172 144.25C44.3828 144.438 44.0703 144.633 43.6797 144.836C43.2891 145.039 42.9141 145.141 42.5547 145.141C42.1953 145.141 41.8438 145.008 41.5 144.742C41.1562 144.477 40.9297 144.188 40.8203 143.875C40.6953 143.984 40.6016 144.062 40.5391 144.109C40.4766 144.156 40.375 144.234 40.2344 144.344C39.9062 144.562 39.5469 144.758 39.1562 144.93C38.7656 145.086 38.3438 145.164 37.8906 145.164ZM39.0859 143.641C39.5078 143.641 39.8672 143.531 40.1641 143.312C40.4766 143.094 40.6328 142.844 40.6328 142.562V140.172L39.1328 140.688C38.7734 140.844 38.4531 141.031 38.1719 141.25C37.8906 141.469 37.75 141.781 37.75 142.188C37.75 142.688 37.875 143.055 38.125 143.289C38.375 143.523 38.6953 143.641 39.0859 143.641ZM50.875 145.234C49.9062 145.234 48.4688 145.016 46.5625 144.578C46.4688 144.203 46.375 143.758 46.2812 143.242C46.2031 142.711 46.1328 142.211 46.0703 141.742C46.0234 141.273 46 140.953 46 140.781C46.0312 140.656 46.1562 140.594 46.375 140.594C46.7812 140.594 47.0078 140.656 47.0547 140.781C47.1172 141.062 47.2266 141.375 47.3828 141.719C47.5391 142.047 47.7578 142.398 48.0391 142.773C48.3047 143.164 48.6641 143.484 49.1172 143.734C49.5859 143.969 50.1094 144.086 50.6875 144.086C51.4219 144.086 52.0312 143.867 52.5156 143.43C53 142.992 53.2422 142.336 53.2422 141.461C53.2422 140.836 53.0547 140.352 52.6797 140.008C52.3203 139.648 51.9297 139.32 51.5078 139.023C51.3984 138.961 51.2266 138.859 50.9922 138.719C50.7578 138.578 50.5234 138.438 50.2891 138.297C50.0703 138.141 49.8984 138.031 49.7734 137.969C49.4766 137.781 49.2266 137.625 49.0234 137.5C48.8359 137.375 48.6562 137.25 48.4844 137.125C48.3125 136.984 48.1016 136.812 47.8516 136.609C47.3516 136.203 46.9609 135.742 46.6797 135.227C46.4141 134.711 46.2812 134.141 46.2812 133.516C46.2812 132.734 46.5078 132.031 46.9609 131.406C47.4297 130.766 48.0312 130.266 48.7656 129.906C49.5 129.531 50.2734 129.344 51.0859 129.344C51.5234 129.344 51.9062 129.367 52.2344 129.414C52.5625 129.461 52.8125 129.508 52.9844 129.555C53.1562 129.602 53.3672 129.656 53.6172 129.719C53.8672 129.781 54.2656 129.875 54.8125 130C55 131.047 55.0938 132.25 55.0938 133.609C55.0781 133.75 54.9844 133.82 54.8125 133.82C54.3906 133.82 54.1641 133.75 54.1328 133.609C54.0703 133.125 53.8984 132.648 53.6172 132.18C53.3359 131.695 52.9688 131.289 52.5156 130.961C52.0781 130.633 51.5781 130.469 51.0156 130.469C50.2969 130.469 49.7422 130.672 49.3516 131.078C48.9766 131.484 48.7891 132.031 48.7891 132.719C48.7891 133.156 48.8672 133.5 49.0234 133.75C49.1797 133.984 49.3828 134.242 49.6328 134.523C49.8047 134.711 50.0859 134.945 50.4766 135.227C50.8672 135.508 51.3047 135.805 51.7891 136.117C52.2734 136.414 52.7422 136.695 53.1953 136.961C54.0547 137.461 54.7188 138.008 55.1875 138.602C55.6562 139.18 55.8906 139.953 55.8906 140.922C55.8906 141.75 55.6562 142.492 55.1875 143.148C54.7188 143.805 54.1016 144.32 53.3359 144.695C52.5859 145.055 51.7656 145.234 50.875 145.234ZM62.3828 145.141C61.4297 145.141 60.5703 144.906 59.8047 144.438C59.0391 143.969 58.4297 143.336 57.9766 142.539C57.5234 141.742 57.2969 140.859 57.2969 139.891C57.2969 138.938 57.5078 138.07 57.9297 137.289C58.3672 136.492 58.9688 135.852 59.7344 135.367C60.5 134.883 61.3828 134.641 62.3828 134.641C63.2109 134.641 63.9453 134.781 64.5859 135.062C65.2422 135.328 65.7109 135.625 65.9922 135.953C65.9922 136.484 65.8984 136.93 65.7109 137.289C65.5391 137.633 65.2734 137.805 64.9141 137.805C64.6172 137.805 64.375 137.727 64.1875 137.57C64.0156 137.414 63.8359 137.156 63.6484 136.797C63.3047 136.078 62.7812 135.719 62.0781 135.719C61.4062 135.719 60.8672 136.062 60.4609 136.75C60.0703 137.422 59.875 138.273 59.875 139.305C59.875 140.711 60.1641 141.758 60.7422 142.445C61.3203 143.117 62.0547 143.453 62.9453 143.453C63.3516 143.453 63.6875 143.422 63.9531 143.359C64.2188 143.297 64.4766 143.227 64.7266 143.148C64.8516 143.102 65.0078 143.023 65.1953 142.914C65.3828 142.789 65.5547 142.68 65.7109 142.586C65.8672 142.477 65.9453 142.422 65.9453 142.422C65.9766 142.438 66.0156 142.484 66.0625 142.562C66.1094 142.641 66.1328 142.719 66.1328 142.797C66.1328 143.094 65.9453 143.43 65.5703 143.805C65.2109 144.164 64.7422 144.477 64.1641 144.742C63.6016 145.008 63.0078 145.141 62.3828 145.141ZM67.6562 145.094C67.5938 145.031 67.5625 144.883 67.5625 144.648C67.5625 144.414 67.5938 144.297 67.6562 144.297C67.7812 144.297 67.9531 144.273 68.1719 144.227C68.4062 144.164 68.6172 144.094 68.8047 144.016C69.0078 143.922 69.1172 143.844 69.1328 143.781C69.2422 143.344 69.2969 142.773 69.2969 142.07V138.25C69.2969 137.5 69.1719 137 68.9219 136.75C68.7812 136.578 68.6094 136.461 68.4062 136.398C68.2031 136.32 68.0156 136.273 67.8438 136.258C67.6875 136.242 67.6094 136.219 67.6094 136.188C67.6094 135.75 67.6484 135.516 67.7266 135.484C68.1797 135.453 68.6719 135.383 69.2031 135.273C69.75 135.148 70.3828 135.016 71.1016 134.875C71.3359 134.828 71.4844 134.797 71.5469 134.781C71.625 134.75 71.6719 134.734 71.6875 134.734C71.75 134.734 71.8047 134.789 71.8516 134.898C71.8984 134.992 71.9219 135.078 71.9219 135.156C71.8281 135.812 71.7812 136.188 71.7812 136.281C72.0625 135.859 72.4453 135.484 72.9297 135.156C73.4141 134.812 73.9062 134.641 74.4062 134.641C75.2656 134.641 75.9062 134.898 76.3281 135.414C76.3281 136.742 75.9531 137.406 75.2031 137.406C74.9375 137.406 74.6328 137.25 74.2891 136.938C73.9453 136.625 73.6094 136.469 73.2812 136.469C72.9531 136.469 72.6719 136.586 72.4375 136.82C72.2031 137.055 72.0234 137.344 71.8984 137.688C71.7891 138.031 71.7344 138.383 71.7344 138.742V141.672C71.7344 142.656 71.7891 143.359 71.8984 143.781C71.9297 143.844 72.0391 143.922 72.2266 144.016C72.4141 144.094 72.6172 144.164 72.8359 144.227C73.0547 144.273 73.2109 144.297 73.3047 144.297C73.3516 144.297 73.375 144.414 73.375 144.648C73.3906 144.867 73.3906 145.016 73.375 145.094C73.2969 145.078 73.0703 145.055 72.6953 145.023C72.3359 145.008 71.9453 144.992 71.5234 144.977C71.1172 144.945 70.7891 144.93 70.5391 144.93C70.2891 144.93 69.9531 144.945 69.5312 144.977C69.1094 144.992 68.7109 145.008 68.3359 145.023C67.9766 145.055 67.75 145.078 67.6562 145.094ZM77.6172 145.07C77.5547 145.008 77.5234 144.859 77.5234 144.625C77.5234 144.406 77.5547 144.297 77.6172 144.297C77.7422 144.297 77.9062 144.266 78.1094 144.203C78.3125 144.141 78.5 144.062 78.6719 143.969C78.8594 143.875 78.9609 143.797 78.9766 143.734C79.0391 143.469 79.0859 143.188 79.1172 142.891C79.1484 142.594 79.1641 142.297 79.1641 142V138.227C79.1641 137.492 79.0391 136.992 78.7891 136.727C78.6484 136.555 78.4688 136.438 78.25 136.375C78.0469 136.312 77.8594 136.273 77.6875 136.258C77.5312 136.242 77.4531 136.219 77.4531 136.188C77.4531 135.719 77.4922 135.484 77.5703 135.484C78.0703 135.422 78.6172 135.336 79.2109 135.227C79.8203 135.102 80.3672 134.984 80.8516 134.875L81.6016 134.688C81.7109 134.688 81.7656 134.844 81.7656 135.156C81.7656 135.359 81.7344 135.656 81.6719 136.047C81.625 136.422 81.6016 136.797 81.6016 137.172V141.625C81.6016 142.609 81.6562 143.312 81.7656 143.734C81.7969 143.797 81.8984 143.875 82.0703 143.969C82.2422 144.062 82.4297 144.141 82.6328 144.203C82.8359 144.266 82.9766 144.297 83.0547 144.297C83.1016 144.297 83.125 144.406 83.125 144.625C83.1406 144.844 83.1328 144.992 83.1016 145.07C82.6172 145.039 82.125 145.008 81.625 144.977C81.125 144.945 80.7109 144.93 80.3828 144.93C79.8984 144.93 79.3984 144.945 78.8828 144.977C78.3828 145.008 77.9609 145.039 77.6172 145.07ZM80.1953 132.25C79.8047 132.25 79.4688 132.109 79.1875 131.828C78.9062 131.547 78.7656 131.211 78.7656 130.82C78.7656 130.43 78.9062 130.102 79.1875 129.836C79.4688 129.555 79.8047 129.414 80.1953 129.414C80.5859 129.414 80.9141 129.555 81.1797 129.836C81.4609 130.102 81.6016 130.43 81.6016 130.82C81.6016 131.211 81.4609 131.547 81.1797 131.828C80.9141 132.109 80.5859 132.25 80.1953 132.25ZM84.2734 150.203C84.2266 150.125 84.2031 149.984 84.2031 149.781C84.2031 149.547 84.2266 149.43 84.2734 149.43C84.3984 149.43 84.5703 149.398 84.7891 149.336C85.0234 149.289 85.2344 149.219 85.4219 149.125C85.625 149.047 85.7422 148.969 85.7734 148.891C85.8672 148.438 85.9141 147.875 85.9141 147.203V138.25C85.9141 137.484 85.7891 136.977 85.5391 136.727C85.3984 136.555 85.2266 136.438 85.0234 136.375C84.8203 136.312 84.6328 136.273 84.4609 136.258C84.3047 136.242 84.2266 136.219 84.2266 136.188C84.2266 135.734 84.2734 135.5 84.3672 135.484C85.0078 135.422 85.6172 135.336 86.1953 135.227C86.7891 135.117 87.3438 134.984 87.8594 134.828L88.3047 134.711C88.3672 134.711 88.3984 134.844 88.3984 135.109C88.3984 135.188 88.3906 135.258 88.375 135.32C88.375 135.367 88.3672 135.422 88.3516 135.484C88.6016 135.297 88.9453 135.117 89.3828 134.945C89.8359 134.758 90.2578 134.664 90.6484 134.664C91.6016 134.664 92.4531 134.891 93.2031 135.344C93.9531 135.797 94.5391 136.398 94.9609 137.148C95.3984 137.898 95.6172 138.719 95.6172 139.609C95.6172 140.672 95.3672 141.625 94.8672 142.469C94.3672 143.312 93.6953 143.977 92.8516 144.461C92.0234 144.945 91.1094 145.188 90.1094 145.188C89.6875 145.188 89.1328 145.078 88.4453 144.859C88.3828 144.859 88.3516 144.969 88.3516 145.188V146.781C88.3516 147.719 88.4141 148.422 88.5391 148.891C88.5547 148.969 88.6562 149.047 88.8438 149.125C89.0469 149.219 89.2578 149.289 89.4766 149.336C89.7109 149.398 89.875 149.43 89.9688 149.43C90.0156 149.43 90.0391 149.539 90.0391 149.758C90.0547 149.992 90.0547 150.141 90.0391 150.203L88.7969 150.133C88.0781 150.086 87.5391 150.062 87.1797 150.062C86.7891 150.062 86.2422 150.086 85.5391 150.133L84.2734 150.203ZM90.3438 144.062C91.0625 144.062 91.6641 143.734 92.1484 143.078C92.6484 142.422 92.8984 141.5 92.8984 140.312C92.8984 139.047 92.6484 138 92.1484 137.172C91.6484 136.328 90.9609 135.906 90.0859 135.906C89.5703 135.906 89.1484 136.055 88.8203 136.352C88.5078 136.648 88.3516 137.047 88.3516 137.547V142.375C88.3516 142.891 88.5625 143.305 88.9844 143.617C89.4062 143.914 89.8594 144.062 90.3438 144.062ZM101.195 145.164C100.383 145.164 99.6875 144.906 99.1094 144.391C98.5469 143.859 98.2656 143.047 98.2656 141.953V136.281H96.8359C96.7266 136.281 96.6719 136.078 96.6719 135.672C96.6719 135.547 96.6797 135.477 96.6953 135.461C97.0078 135.32 97.3125 135.148 97.6094 134.945C97.9062 134.727 98.2031 134.484 98.5 134.219C98.9531 133.766 99.3203 133.375 99.6016 133.047C99.8828 132.703 100.023 132.531 100.023 132.531C100.102 132.531 100.18 132.539 100.258 132.555C100.336 132.555 100.406 132.562 100.469 132.578C100.609 132.625 100.68 132.672 100.68 132.719V135.016H102.391C102.75 135.016 103.023 135.023 103.211 135.039C103.414 135.039 103.523 135.039 103.539 135.039C103.664 135.039 103.727 135.109 103.727 135.25C103.727 135.641 103.648 135.984 103.492 136.281H100.68V141.93C100.68 142.555 100.812 143.031 101.078 143.359C101.344 143.688 101.711 143.852 102.18 143.852C102.508 143.852 102.812 143.789 103.094 143.664C103.375 143.523 103.531 143.453 103.562 143.453C103.625 143.438 103.695 143.508 103.773 143.664C103.852 143.82 103.883 143.922 103.867 143.969C103.805 144.109 103.625 144.273 103.328 144.461C103.047 144.648 102.711 144.812 102.32 144.953C101.945 145.094 101.57 145.164 101.195 145.164Z" fill="white"/>
</svg>
