<svg width="100" height="169" viewBox="0 0 100 169" fill="none" xmlns="http://www.w3.org/2000/svg">
<path d="M10.8335 44.1249L34.9168 19.9999L41.9585 27.0833C40.9585 30.6249 42.5835 34.4999 45.8335 36.3749V59.4583C43.3335 60.8749 41.6668 63.5833 41.6668 66.6666C41.6668 68.8767 42.5448 70.9963 44.1076 72.5591C45.6704 74.1219 47.79 74.9999 50.0002 74.9999C52.2103 74.9999 54.3299 74.1219 55.8927 72.5591C57.4555 70.9963 58.3335 68.8767 58.3335 66.6666C58.3335 63.5833 56.6668 60.8749 54.1668 59.4583V39.2083L62.7918 47.9166C62.5002 48.5416 62.5002 49.2499 62.5002 49.9999C62.5002 52.2101 63.3781 54.3297 64.9409 55.8925C66.5037 57.4553 68.6234 58.3333 70.8335 58.3333C73.0436 58.3333 75.1632 57.4553 76.726 55.8925C78.2889 54.3297 79.1668 52.2101 79.1668 49.9999C79.1668 47.7898 78.2889 45.6702 76.726 44.1074C75.1632 42.5446 73.0436 41.6666 70.8335 41.6666C70.0835 41.6666 69.3752 41.6666 68.7502 41.9583L58.0418 31.2499C58.5592 29.3201 58.3586 27.268 57.4774 25.4749C56.5961 23.6817 55.0941 22.2693 53.2502 21.4999C51.4585 20.8333 49.5835 20.6666 47.9168 21.1249L40.8335 14.0833L44.1252 10.8333C47.3752 7.54159 52.6252 7.54159 55.8752 10.8333L89.1668 44.1249C92.4585 47.3749 92.4585 52.6249 89.1668 55.8749L55.8752 89.1666C52.6252 92.4582 47.3752 92.4582 44.1252 89.1666L10.8335 55.8749C7.54183 52.6249 7.54183 47.3749 10.8335 44.1249Z" fill="white"/>
<path d="M42.0156 161.188C40.9844 161.188 40.0156 160.984 39.1094 160.578C38.2188 160.172 37.4297 159.609 36.7422 158.891C36.0703 158.172 35.5391 157.352 35.1484 156.43C34.7734 155.492 34.5859 154.5 34.5859 153.453C34.5859 152.344 34.7812 151.305 35.1719 150.336C35.5781 149.367 36.1328 148.508 36.8359 147.758C37.5391 147.008 38.3516 146.422 39.2734 146C40.2109 145.578 41.2188 145.367 42.2969 145.367C43.7031 145.367 45.5156 145.656 47.7344 146.234C47.7812 146.25 47.8516 146.766 47.9453 147.781C48.0078 148.562 48.0547 149.109 48.0859 149.422C48.1172 149.734 47.9531 149.891 47.5938 149.891C47.375 149.891 47.2031 149.844 47.0781 149.75C47.0312 149.531 46.9609 149.312 46.8672 149.094C46.7891 148.875 46.6406 148.594 46.4219 148.25C46.0312 147.688 45.4844 147.258 44.7812 146.961C44.0938 146.664 43.2969 146.516 42.3906 146.516C41.375 146.516 40.5 146.797 39.7656 147.359C39.0312 147.906 38.4688 148.672 38.0781 149.656C37.7031 150.625 37.5156 151.75 37.5156 153.031C37.5156 154.141 37.7188 155.219 38.125 156.266C38.3906 156.953 38.7578 157.586 39.2266 158.164C39.7109 158.727 40.2734 159.18 40.9141 159.523C41.5703 159.852 42.2812 160.016 43.0469 160.016C44.0469 160.016 44.7969 159.867 45.2969 159.57C45.4531 159.461 45.5312 159.281 45.5312 159.031L45.5078 157.344V157.18C45.5078 156.227 45.4531 155.594 45.3438 155.281C45.3125 155.141 45.1953 155.031 44.9922 154.953C44.7891 154.859 44.5625 154.797 44.3125 154.766C44.0625 154.719 43.8438 154.695 43.6562 154.695C43.5938 154.695 43.5625 154.578 43.5625 154.344C43.5625 154.125 43.5938 153.984 43.6562 153.922C43.8438 153.922 44.3203 153.945 45.0859 153.992C45.8672 154.039 46.4844 154.062 46.9375 154.062L49.7734 153.922C49.8203 154.062 49.8438 154.195 49.8438 154.32C49.8438 154.586 49.8125 154.719 49.75 154.719C49.6562 154.719 49.4453 154.766 49.1172 154.859C48.8047 154.953 48.5781 155.031 48.4375 155.094C48.2344 155.203 48.1328 155.773 48.1328 156.805L48.1562 157.789V158.328C48.1562 158.578 48.1953 158.82 48.2734 159.055C48.3516 159.289 48.3906 159.406 48.3906 159.406C48.3906 159.625 48.2188 159.812 47.875 159.969C47.2656 160.234 46.8047 160.43 46.4922 160.555C46.1953 160.664 45.625 160.797 44.7812 160.953C43.9531 161.109 43.0312 161.188 42.0156 161.188ZM51.0859 161.07C51.0234 161.008 50.9922 160.859 50.9922 160.625C50.9922 160.406 51.0234 160.297 51.0859 160.297C51.2109 160.297 51.375 160.266 51.5781 160.203C51.7812 160.141 51.9688 160.062 52.1406 159.969C52.3281 159.875 52.4297 159.797 52.4453 159.734C52.5078 159.469 52.5547 159.188 52.5859 158.891C52.6172 158.594 52.6328 158.297 52.6328 158V154.227C52.6328 153.492 52.5078 152.992 52.2578 152.727C52.1172 152.555 51.9375 152.438 51.7188 152.375C51.5156 152.312 51.3281 152.273 51.1562 152.258C51 152.242 50.9219 152.219 50.9219 152.188C50.9219 151.719 50.9609 151.484 51.0391 151.484C51.5391 151.422 52.0859 151.336 52.6797 151.227C53.2891 151.102 53.8359 150.984 54.3203 150.875L55.0703 150.688C55.1797 150.688 55.2344 150.844 55.2344 151.156C55.2344 151.359 55.2031 151.656 55.1406 152.047C55.0938 152.422 55.0703 152.797 55.0703 153.172V157.625C55.0703 158.609 55.125 159.312 55.2344 159.734C55.2656 159.797 55.3672 159.875 55.5391 159.969C55.7109 160.062 55.8984 160.141 56.1016 160.203C56.3047 160.266 56.4453 160.297 56.5234 160.297C56.5703 160.297 56.5938 160.406 56.5938 160.625C56.6094 160.844 56.6016 160.992 56.5703 161.07C56.0859 161.039 55.5938 161.008 55.0938 160.977C54.5938 160.945 54.1797 160.93 53.8516 160.93C53.3672 160.93 52.8672 160.945 52.3516 160.977C51.8516 161.008 51.4297 161.039 51.0859 161.07ZM53.6641 148.25C53.2734 148.25 52.9375 148.109 52.6562 147.828C52.375 147.547 52.2344 147.211 52.2344 146.82C52.2344 146.43 52.375 146.102 52.6562 145.836C52.9375 145.555 53.2734 145.414 53.6641 145.414C54.0547 145.414 54.3828 145.555 54.6484 145.836C54.9297 146.102 55.0703 146.43 55.0703 146.82C55.0703 147.211 54.9297 147.547 54.6484 147.828C54.3828 148.109 54.0547 148.25 53.6641 148.25ZM62.0078 161.164C61.1953 161.164 60.5 160.906 59.9219 160.391C59.3594 159.859 59.0781 159.047 59.0781 157.953V152.281H57.6484C57.5391 152.281 57.4844 152.078 57.4844 151.672C57.4844 151.547 57.4922 151.477 57.5078 151.461C57.8203 151.32 58.125 151.148 58.4219 150.945C58.7188 150.727 59.0156 150.484 59.3125 150.219C59.7656 149.766 60.1328 149.375 60.4141 149.047C60.6953 148.703 60.8359 148.531 60.8359 148.531C60.9141 148.531 60.9922 148.539 61.0703 148.555C61.1484 148.555 61.2188 148.562 61.2812 148.578C61.4219 148.625 61.4922 148.672 61.4922 148.719V151.016H63.2031C63.5625 151.016 63.8359 151.023 64.0234 151.039C64.2266 151.039 64.3359 151.039 64.3516 151.039C64.4766 151.039 64.5391 151.109 64.5391 151.25C64.5391 151.641 64.4609 151.984 64.3047 152.281H61.4922V157.93C61.4922 158.555 61.625 159.031 61.8906 159.359C62.1562 159.688 62.5234 159.852 62.9922 159.852C63.3203 159.852 63.625 159.789 63.9062 159.664C64.1875 159.523 64.3438 159.453 64.375 159.453C64.4375 159.438 64.5078 159.508 64.5859 159.664C64.6641 159.82 64.6953 159.922 64.6797 159.969C64.6172 160.109 64.4375 160.273 64.1406 160.461C63.8594 160.648 63.5234 160.812 63.1328 160.953C62.7578 161.094 62.3828 161.164 62.0078 161.164Z" fill="white"/>
</svg>
