<svg width="171" height="158" viewBox="0 0 171 158" fill="none" xmlns="http://www.w3.org/2000/svg">
<path d="M66.8333 43.2501C66.8333 44.2917 66.9166 45.1251 67.1249 45.8334C67.3333 46.3334 67.6249 47.0001 67.9999 47.7501C68.1666 47.9167 68.2083 48.1667 68.2083 48.3751C68.2083 48.6667 68.0416 48.9167 67.6666 49.2084L65.9166 50.3751C65.6666 50.5417 65.4166 50.6251 65.2083 50.6251C64.9166 50.6251 64.6666 50.4584 64.3749 50.2084C63.9999 49.7917 63.6666 49.3751 63.3749 48.9167C63.1249 48.4584 62.8333 47.9167 62.5416 47.2917C60.3749 49.8334 57.6666 51.1251 54.3749 51.1251C52.0416 51.1251 50.2083 50.4584 48.8333 49.1251C47.4999 47.7917 46.7916 46.0001 46.7916 43.7501C46.7916 41.4584 47.6249 39.5834 49.2916 38.0834C50.9999 36.6667 53.2499 35.9167 56.0833 35.9167C57.0416 35.9167 57.9166 36.0001 59.0416 36.1667C59.9999 36.2917 61.1249 36.5001 62.2083 36.7501V34.7501C62.2083 32.6251 61.7916 31.2501 60.9166 30.2917C59.9999 29.4167 58.5416 29.0417 56.4166 29.0417C55.4166 29.0417 54.4166 29.1667 53.4166 29.3751C52.3749 29.6251 51.3749 29.9167 50.4166 30.3334C49.9583 30.5001 49.5833 30.6251 49.4583 30.6667C49.2499 30.7501 49.1249 30.7501 48.9999 30.7501C48.6249 30.7501 48.4166 30.5001 48.4166 29.9167V28.5417C48.4166 28.1251 48.4583 27.7917 48.6249 27.5834C48.7499 27.3751 48.9999 27.2084 49.3749 27.0834C50.3749 26.5001 51.4999 26.0834 52.8749 25.7501C54.2894 25.3802 55.7463 25.1981 57.2083 25.2084C60.4999 25.2084 62.9166 25.9584 64.4583 27.4584C65.9999 28.9584 66.7499 31.2501 66.7499 34.2917V43.2501H66.8333ZM55.5833 47.5001C56.4999 47.5001 57.4166 47.3334 58.4166 47.0001C59.4166 46.6667 60.2916 46.0417 61.0416 45.2084C61.4999 44.6667 61.8333 44.0834 62.0833 43.4167C62.0833 42.7501 62.2916 41.9584 62.2916 41.0001V39.8751C61.4583 39.5834 60.6249 39.5834 59.7083 39.3751C58.8501 39.2813 57.9881 39.2257 57.1249 39.2084C55.2499 39.2084 53.9166 39.5834 52.9999 40.3334C52.0833 41.0834 51.6666 42.1251 51.6666 43.5001C51.6666 44.8334 51.9583 45.8334 52.6666 46.4584C53.3333 47.1667 54.2916 47.5001 55.5833 47.5001ZM77.8333 50.4584C77.4299 50.4705 77.0296 50.3847 76.6666 50.2084C76.5416 50.0001 76.3333 49.6251 76.1666 49.1251L69.6666 27.7084C69.4999 27.0834 69.4166 26.7917 69.4166 26.5834C69.4166 26.1251 69.6249 25.8751 70.0833 25.8751H72.7916C73.3333 25.8751 73.7083 25.9584 73.8749 26.1667C74.1249 26.3334 74.2916 26.7084 74.4583 27.2501L79.0833 45.5834L83.4166 27.2501C83.5416 26.7084 83.7083 26.3334 83.9583 26.1667C84.1666 26.0001 84.5416 25.8751 84.9999 25.8751H87.2916C87.7916 25.8751 88.1666 25.9584 88.3749 26.1667C88.5833 26.3334 88.7916 26.7084 88.9166 27.2501L93.3333 45.8334L98.0833 27.2501C98.2499 26.7084 98.4583 26.3334 98.6249 26.1667C98.8749 26.0001 99.2083 25.8751 99.7083 25.8751H102.292C102.75 25.8751 103 26.1251 103 26.5834C103 26.7084 102.958 26.8751 102.917 27.0834C102.917 27.0834 102.833 27.4167 102.75 27.7084L96.0416 49.1251C95.8749 49.7084 95.7083 50.0001 95.4166 50.2084C95.2499 50.3751 94.8749 50.5001 94.4166 50.5001H92.0416C91.4999 50.5001 91.2499 50.4167 90.9166 50.2084C90.6364 49.9114 90.4609 49.531 90.4166 49.1251L86.1249 31.2501L81.8333 49.0834C81.7083 49.6251 81.5416 50.0001 81.3333 50.2084C80.9892 50.3959 80.5993 50.4825 80.2083 50.4584H77.8333ZM113.458 51.2084C112.083 51.2084 110.542 51.0417 109.167 50.7084C107.792 50.3751 106.708 50.0001 106 49.6251C105.638 49.451 105.334 49.1761 105.125 48.8334C105.012 48.5998 104.955 48.343 104.958 48.0834V46.6667C104.958 46.0834 105.167 45.8334 105.583 45.8334H106.083C106.25 45.8334 106.5 46.0417 106.792 46.1667C107.708 46.5834 108.75 46.9167 109.833 47.1251C110.958 47.3334 112.083 47.4584 113.125 47.4584C114.875 47.4584 116.25 47.1667 117.167 46.5417C118.125 45.8334 118.625 45.0417 118.625 43.9167C118.625 43.1251 118.333 42.5001 117.875 41.9584C117.375 41.4584 116.417 40.9584 115.083 40.5417L111.042 39.2917C109.042 38.6251 107.542 37.7084 106.625 36.4584C105.73 35.3013 105.247 33.8793 105.25 32.4167C105.25 31.2501 105.5 30.2501 106 29.3751C106.5 28.4584 107.167 27.7084 107.917 27.0834C108.833 26.4584 109.75 26.0001 110.875 25.6667C111.958 25.3334 113.125 25.1667 114.375 25.1667C114.958 25.1667 115.583 25.2084 116.25 25.2917C116.833 25.3751 117.417 25.5001 118 25.5834C118.583 25.7501 119.083 25.8751 119.583 26.0417C120.083 26.2084 120.417 26.3751 120.75 26.5417C121.125 26.7501 121.417 26.9584 121.583 27.2084C121.75 27.4584 121.833 27.7501 121.833 28.1251V29.4584C121.833 30.0417 121.625 30.3334 121.208 30.3334C121 30.3334 120.625 30.2084 120.125 30.0001C118.583 29.2917 116.792 28.9167 114.833 28.9167C113.25 28.9167 112.083 29.1667 111.125 29.7084C110.292 30.2084 109.833 31.0417 109.833 32.1667C109.833 32.9584 110.125 33.6251 110.667 34.1251C111.208 34.6667 112.25 35.1667 113.708 35.6667L117.667 36.9167C119.667 37.5001 121.083 38.4167 121.958 39.5834C122.792 40.7084 123.208 42.0001 123.208 43.4584C123.208 44.6251 122.958 45.7084 122.5 46.6667C122 47.5834 121.333 48.4167 120.417 49.0834C119.625 49.7917 118.583 50.2917 117.417 50.6667C116.25 51.0417 114.833 51.2084 113.458 51.2084ZM118.667 64.7084C109.542 71.4167 96.2916 75.0001 84.9999 75.0001C68.9583 75.0001 54.5833 69.0834 43.7083 59.2917C42.8333 58.5001 43.6249 57.4584 44.6666 58.0834C56.4166 64.8751 70.8749 69.0001 85.8749 69.0001C95.9999 69.0001 107.125 66.9167 117.333 62.5001C118.875 61.8751 120.167 63.5834 118.667 64.7084ZM122.5 60.4167C121.292 58.8751 114.75 59.6667 111.792 60.0001C110.917 60.1251 110.792 59.3334 111.583 58.7501C116.792 55.1251 125.375 56.2501 126.333 57.3751C127.333 58.6251 126.083 67.2084 121.208 71.2917C120.417 71.9167 119.708 71.5834 120.042 70.8334C121.167 68.0001 123.625 61.8334 122.5 60.4167Z" fill="white"/>
<path d="M0.726562 150.07C0.664062 150.008 0.632812 149.891 0.632812 149.719C0.632812 149.438 0.648438 149.297 0.679688 149.297C0.804688 149.297 0.984375 149.266 1.21875 149.203C1.46875 149.141 1.70312 149.062 1.92188 148.969C2.15625 148.859 2.30469 148.75 2.36719 148.641C2.52344 148.406 2.67188 148.141 2.8125 147.844C2.95312 147.531 3.10156 147.188 3.25781 146.812L7.61719 136.266C7.99219 135.312 8.28125 134.75 8.48438 134.578C8.59375 134.469 8.72656 134.414 8.88281 134.414C8.99219 134.414 9.08594 134.453 9.16406 134.531L14.0859 146.812C14.2109 147.109 14.3281 147.406 14.4375 147.703C14.5625 147.984 14.6797 148.258 14.7891 148.523C14.8516 148.68 14.9922 148.82 15.2109 148.945C15.4297 149.055 15.6562 149.141 15.8906 149.203C16.125 149.266 16.3047 149.297 16.4297 149.297C16.4922 149.297 16.5234 149.438 16.5234 149.719C16.5234 149.891 16.5078 150.008 16.4766 150.07L13.5234 149.93L10.4766 150.07C10.4141 150.008 10.3828 149.859 10.3828 149.625C10.3828 149.406 10.4141 149.297 10.4766 149.297C10.6641 149.297 10.9219 149.25 11.25 149.156C11.5781 149.062 11.7734 148.953 11.8359 148.828C11.8828 148.734 11.9062 148.633 11.9062 148.523C11.9062 148.367 11.8672 148.156 11.7891 147.891C11.7109 147.625 11.6016 147.297 11.4609 146.906L10.6406 144.727C10.5781 144.664 10.5234 144.633 10.4766 144.633C10.2266 144.617 9.92969 144.609 9.58594 144.609C9.25781 144.594 8.88281 144.586 8.46094 144.586C7.61719 144.586 6.72656 144.609 5.78906 144.656C5.69531 144.656 5.64844 144.688 5.64844 144.75L4.75781 146.93C4.60156 147.32 4.48438 147.648 4.40625 147.914C4.34375 148.164 4.3125 148.344 4.3125 148.453C4.3125 148.641 4.39844 148.797 4.57031 148.922C4.66406 148.984 4.80469 149.047 4.99219 149.109C5.19531 149.156 5.39844 149.203 5.60156 149.25C5.80469 149.281 5.94531 149.297 6.02344 149.297C6.07031 149.312 6.09375 149.422 6.09375 149.625C6.09375 149.734 6.08594 149.828 6.07031 149.906C6.07031 149.969 6.0625 150.023 6.04688 150.07C5.46875 150.039 4.99219 150.008 4.61719 149.977C4.25781 149.945 3.92188 149.93 3.60938 149.93C3.29688 149.93 2.92188 149.938 2.48438 149.953C2.04688 149.969 1.46094 150.008 0.726562 150.07ZM8.03906 143.32C8.60156 143.32 9.24219 143.297 9.96094 143.25L10.0078 143.156L8.22656 138.469L6.30469 143.156C6.30469 143.219 6.32031 143.25 6.35156 143.25C6.89844 143.297 7.46094 143.32 8.03906 143.32ZM23.4375 150.234C23.3438 150.234 23.2656 150.203 23.2031 150.141L16.9922 137.812C16.7734 137.375 16.5625 136.992 16.3594 136.664C16.1562 136.32 15.9609 136.023 15.7734 135.773C15.6484 135.617 15.4297 135.492 15.1172 135.398C14.8203 135.305 14.5781 135.258 14.3906 135.258C14.3281 135.258 14.2969 135.133 14.2969 134.883C14.2969 134.664 14.3203 134.531 14.3672 134.484L17.5078 134.625C17.6953 134.625 18.6406 134.578 20.3438 134.484C20.3594 134.578 20.3672 134.727 20.3672 134.93C20.3828 135.133 20.3594 135.242 20.2969 135.258C20.0469 135.258 19.7969 135.32 19.5469 135.445C19.2969 135.555 19.1719 135.734 19.1719 135.984C19.1719 136.266 19.3125 136.68 19.5938 137.227L24.1875 146.297C24.2344 146.375 24.2891 146.398 24.3516 146.367C24.4297 146.32 24.4844 146.266 24.5156 146.203L26.2266 142.875L23.7188 137.812C23.2656 136.875 22.8672 136.211 22.5234 135.82C22.3828 135.664 22.1719 135.531 21.8906 135.422C21.625 135.312 21.3828 135.258 21.1641 135.258C21.1016 135.258 21.0703 135.125 21.0703 134.859C21.0703 134.656 21.0938 134.531 21.1406 134.484L24.2344 134.625L27 134.484C27.0312 134.578 27.0469 134.727 27.0469 134.93C27.0625 135.133 27.0469 135.242 27 135.258C26.7344 135.258 26.4766 135.32 26.2266 135.445C25.9922 135.57 25.875 135.75 25.875 135.984C25.875 136.234 26.0156 136.641 26.2969 137.203L27.7266 140.133L29.1094 137.297C29.3906 136.734 29.5312 136.305 29.5312 136.008C29.5312 135.82 29.4375 135.672 29.25 135.562C29.0781 135.438 28.8672 135.352 28.6172 135.305C28.3672 135.258 28.1484 135.234 27.9609 135.234C27.8984 135.234 27.8672 135.125 27.8672 134.906C27.8672 134.688 27.8906 134.547 27.9375 134.484C29.3281 134.578 30.1875 134.625 30.5156 134.625C30.9531 134.625 31.4062 134.609 31.875 134.578C32.3594 134.547 32.8047 134.516 33.2109 134.484C33.2422 134.609 33.2578 134.75 33.2578 134.906C33.2578 135.094 33.2344 135.203 33.1875 135.234C33.0625 135.234 32.8828 135.266 32.6484 135.328C32.4297 135.391 32.2109 135.477 31.9922 135.586C31.7891 135.695 31.6328 135.812 31.5234 135.938C31.1641 136.344 30.7188 137.078 30.1875 138.141L28.4766 141.609L30.75 146.25C30.8438 146.406 30.9453 146.367 31.0547 146.133C31.2109 145.773 31.4688 145.195 31.8281 144.398C32.2031 143.602 32.6797 142.594 33.2578 141.375L35.1562 137.344C35.4375 136.75 35.5781 136.312 35.5781 136.031C35.5781 135.844 35.4844 135.695 35.2969 135.586C35.125 135.461 34.9219 135.375 34.6875 135.328C34.4531 135.266 34.25 135.234 34.0781 135.234C34.0156 135.234 33.9766 135.125 33.9609 134.906C33.9609 134.688 33.9922 134.547 34.0547 134.484C34.8516 134.531 35.4922 134.57 35.9766 134.602C36.4766 134.617 36.8906 134.625 37.2188 134.625C37.5625 134.609 37.8828 134.594 38.1797 134.578C38.4922 134.547 38.8594 134.516 39.2812 134.484C39.2969 134.547 39.3047 134.617 39.3047 134.695C39.3203 134.758 39.3281 134.844 39.3281 134.953C39.3281 135.141 39.2969 135.234 39.2344 135.234C39.0469 135.234 38.7734 135.305 38.4141 135.445C38.0703 135.57 37.8125 135.719 37.6406 135.891C37.4375 136.141 37.2188 136.453 36.9844 136.828C36.75 137.188 36.5156 137.617 36.2812 138.117L30.9141 149.484C30.8047 149.734 30.6641 149.922 30.4922 150.047C30.3203 150.172 30.1719 150.234 30.0469 150.234C29.9531 150.234 29.875 150.203 29.8125 150.141L26.9531 144.375L24.2812 149.484C24.1562 149.734 24.0078 149.922 23.8359 150.047C23.6797 150.188 23.5469 150.25 23.4375 150.234ZM45.1641 150.234C44.1953 150.234 42.7578 150.016 40.8516 149.578C40.7578 149.203 40.6641 148.758 40.5703 148.242C40.4922 147.711 40.4219 147.211 40.3594 146.742C40.3125 146.273 40.2891 145.953 40.2891 145.781C40.3203 145.656 40.4453 145.594 40.6641 145.594C41.0703 145.594 41.2969 145.656 41.3438 145.781C41.4062 146.062 41.5156 146.375 41.6719 146.719C41.8281 147.047 42.0469 147.398 42.3281 147.773C42.5938 148.164 42.9531 148.484 43.4062 148.734C43.875 148.969 44.3984 149.086 44.9766 149.086C45.7109 149.086 46.3203 148.867 46.8047 148.43C47.2891 147.992 47.5312 147.336 47.5312 146.461C47.5312 145.836 47.3438 145.352 46.9688 145.008C46.6094 144.648 46.2188 144.32 45.7969 144.023C45.6875 143.961 45.5156 143.859 45.2812 143.719C45.0469 143.578 44.8125 143.438 44.5781 143.297C44.3594 143.141 44.1875 143.031 44.0625 142.969C43.7656 142.781 43.5156 142.625 43.3125 142.5C43.125 142.375 42.9453 142.25 42.7734 142.125C42.6016 141.984 42.3906 141.812 42.1406 141.609C41.6406 141.203 41.25 140.742 40.9688 140.227C40.7031 139.711 40.5703 139.141 40.5703 138.516C40.5703 137.734 40.7969 137.031 41.25 136.406C41.7188 135.766 42.3203 135.266 43.0547 134.906C43.7891 134.531 44.5625 134.344 45.375 134.344C45.8125 134.344 46.1953 134.367 46.5234 134.414C46.8516 134.461 47.1016 134.508 47.2734 134.555C47.4453 134.602 47.6562 134.656 47.9062 134.719C48.1562 134.781 48.5547 134.875 49.1016 135C49.2891 136.047 49.3828 137.25 49.3828 138.609C49.3672 138.75 49.2734 138.82 49.1016 138.82C48.6797 138.82 48.4531 138.75 48.4219 138.609C48.3594 138.125 48.1875 137.648 47.9062 137.18C47.625 136.695 47.2578 136.289 46.8047 135.961C46.3672 135.633 45.8672 135.469 45.3047 135.469C44.5859 135.469 44.0312 135.672 43.6406 136.078C43.2656 136.484 43.0781 137.031 43.0781 137.719C43.0781 138.156 43.1562 138.5 43.3125 138.75C43.4688 138.984 43.6719 139.242 43.9219 139.523C44.0938 139.711 44.375 139.945 44.7656 140.227C45.1562 140.508 45.5938 140.805 46.0781 141.117C46.5625 141.414 47.0312 141.695 47.4844 141.961C48.3438 142.461 49.0078 143.008 49.4766 143.602C49.9453 144.18 50.1797 144.953 50.1797 145.922C50.1797 146.75 49.9453 147.492 49.4766 148.148C49.0078 148.805 48.3906 149.32 47.625 149.695C46.875 150.055 46.0547 150.234 45.1641 150.234ZM56.6016 150.07C56.5547 150.023 56.5312 149.898 56.5312 149.695C56.5312 149.43 56.5547 149.297 56.6016 149.297C56.7422 149.297 56.9219 149.273 57.1406 149.227C57.375 149.18 57.5938 149.117 57.7969 149.039C58.0156 148.961 58.1406 148.875 58.1719 148.781C58.2812 148.469 58.3359 147.758 58.3359 146.648V137.789C58.3359 136.836 58.2812 136.195 58.1719 135.867C58.1406 135.742 58.0234 135.641 57.8203 135.562C57.6328 135.469 57.4141 135.398 57.1641 135.352C56.9297 135.305 56.7344 135.281 56.5781 135.281C56.5156 135.281 56.4844 135.164 56.4844 134.93C56.4844 134.711 56.5156 134.57 56.5781 134.508C57.6094 134.555 58.6484 134.578 59.6953 134.578H63.75C65.0156 134.578 66.1484 134.781 67.1484 135.188C68.1641 135.578 69.0156 136.125 69.7031 136.828C70.4062 137.531 70.9375 138.336 71.2969 139.242C71.6719 140.148 71.8594 141.109 71.8594 142.125C71.8594 143.625 71.5312 144.977 70.875 146.18C70.2344 147.367 69.3047 148.312 68.0859 149.016C66.8672 149.719 65.4141 150.07 63.7266 150.07C63.5703 150.07 63.3281 150.062 63 150.047C62.6875 150.047 62.2891 150.039 61.8047 150.023C61.3203 150.008 60.9062 149.992 60.5625 149.977C60.2188 149.961 59.9375 149.961 59.7188 149.977L56.6016 150.07ZM64.1016 148.875C67.2734 148.875 68.8594 146.594 68.8594 142.031C68.8594 140.859 68.6641 139.805 68.2734 138.867C67.8984 137.914 67.3438 137.156 66.6094 136.594C65.8906 136.031 65 135.75 63.9375 135.75H63.8203C62.3203 135.75 61.4766 135.875 61.2891 136.125C61.0859 136.391 60.9844 136.875 60.9844 137.578V146.766C60.9844 147.625 61.0703 148.203 61.2422 148.5C61.4922 148.75 62.4453 148.875 64.1016 148.875ZM74.8594 155.203C74.4531 155.203 74.1406 155.094 73.9219 154.875C73.7031 154.656 73.5938 154.406 73.5938 154.125C73.5938 153.719 73.7422 153.414 74.0391 153.211C75.6641 153.211 76.7344 152.57 77.25 151.289L77.8828 149.695L74.3906 141.562C74.2344 141.203 74.0078 140.938 73.7109 140.766C73.4141 140.578 73.0859 140.484 72.7266 140.484C72.6641 140.484 72.6328 140.375 72.6328 140.156C72.6328 139.891 72.6562 139.75 72.7031 139.734L73.9688 139.805C74.7031 139.852 75.2578 139.875 75.6328 139.875C75.9922 139.875 76.4844 139.852 77.1094 139.805C77.75 139.758 78.1484 139.734 78.3047 139.734C78.3203 139.797 78.3281 139.867 78.3281 139.945C78.3438 140.008 78.3516 140.078 78.3516 140.156C78.3516 140.375 78.3203 140.484 78.2578 140.484C78.1641 140.484 78.0156 140.516 77.8125 140.578C77.6094 140.625 77.4219 140.695 77.25 140.789C77.0781 140.867 76.9922 140.953 76.9922 141.047V141.188C76.9922 141.312 77.1719 141.82 77.5312 142.711C77.9062 143.602 78.4531 144.875 79.1719 146.531L80.0859 144.211L80.9297 142.055C81.0234 141.789 81.0703 141.547 81.0703 141.328C81.0703 141.125 80.9453 140.938 80.6953 140.766C80.4453 140.578 80.0703 140.484 79.5703 140.484C79.5078 140.484 79.4766 140.367 79.4766 140.133C79.4766 139.93 79.5078 139.797 79.5703 139.734C79.7578 139.734 80.1406 139.758 80.7188 139.805C81.3125 139.852 81.7891 139.875 82.1484 139.875C82.4766 139.875 82.8828 139.852 83.3672 139.805C83.8359 139.758 84.1797 139.734 84.3984 139.734C84.4609 139.812 84.4922 139.938 84.4922 140.109C84.4922 140.359 84.4609 140.484 84.3984 140.484C84.2578 140.484 84.0625 140.523 83.8125 140.602C83.5625 140.664 83.3281 140.766 83.1094 140.906C82.8906 141.031 82.7344 141.203 82.6406 141.422L78.3516 151.781C77.4141 154.062 76.25 155.203 74.8594 155.203ZM85.2422 150.094C85.1797 150.031 85.1484 149.883 85.1484 149.648C85.1484 149.414 85.1797 149.297 85.2422 149.297C85.3672 149.297 85.5391 149.273 85.7578 149.227C85.9922 149.164 86.2031 149.094 86.3906 149.016C86.5938 148.922 86.7031 148.844 86.7188 148.781C86.8281 148.344 86.8828 147.773 86.8828 147.07V143.25C86.8828 142.547 86.7578 142.047 86.5078 141.75C86.3672 141.578 86.1875 141.469 85.9688 141.422C85.7656 141.359 85.5859 141.32 85.4297 141.305C85.2734 141.273 85.1953 141.234 85.1953 141.188C85.1953 140.75 85.2344 140.516 85.3125 140.484C85.6719 140.453 86.1953 140.375 86.8828 140.25C87.5859 140.125 88.2422 139.984 88.8516 139.828C88.8828 139.812 88.9531 139.797 89.0625 139.781C89.1875 139.75 89.2578 139.734 89.2734 139.734C89.3359 139.734 89.3906 139.789 89.4375 139.898C89.4844 140.008 89.5078 140.094 89.5078 140.156C89.4766 140.375 89.4531 140.555 89.4375 140.695C89.4219 140.836 89.4141 140.938 89.4141 141C89.4141 141.078 89.4297 141.117 89.4609 141.117C89.4766 141.117 89.5078 141.094 89.5547 141.047C89.9297 140.672 90.4062 140.344 90.9844 140.062C91.5781 139.781 92.1797 139.641 92.7891 139.641C94.8047 139.641 95.8125 141.242 95.8125 144.445V146.672C95.8125 147.656 95.8672 148.359 95.9766 148.781C96.0078 148.844 96.1172 148.922 96.3047 149.016C96.5078 149.094 96.7188 149.164 96.9375 149.227C97.1719 149.273 97.3359 149.297 97.4297 149.297C97.4766 149.297 97.5 149.414 97.5 149.648C97.5156 149.867 97.5078 150.016 97.4766 150.094C97.4141 150.078 97.1953 150.055 96.8203 150.023C96.4609 150.008 96.0625 149.992 95.625 149.977C95.2031 149.945 94.8672 149.93 94.6172 149.93C94.3672 149.93 94.0391 149.945 93.6328 149.977C93.2422 149.992 92.8672 150.008 92.5078 150.023C92.1641 150.055 91.9453 150.078 91.8516 150.094C91.7891 150.031 91.7578 149.883 91.7578 149.648C91.7578 149.414 91.7891 149.297 91.8516 149.297C91.9766 149.297 92.1406 149.273 92.3438 149.227C92.5469 149.164 92.7344 149.094 92.9062 149.016C93.0938 148.922 93.1953 148.844 93.2109 148.781C93.2734 148.547 93.3203 148.289 93.3516 148.008C93.3828 147.727 93.3984 147.414 93.3984 147.07V144.844C93.3984 143.547 93.2188 142.641 92.8594 142.125C92.5156 141.609 91.9609 141.352 91.1953 141.352C90.6953 141.352 90.2578 141.492 89.8828 141.773C89.5078 142.039 89.3203 142.328 89.3203 142.641V146.672C89.3203 147.656 89.375 148.359 89.4844 148.781C89.5156 148.844 89.625 148.922 89.8125 149.016C90 149.094 90.2031 149.164 90.4219 149.227C90.6406 149.273 90.7891 149.297 90.8672 149.297C90.9297 149.297 90.9609 149.414 90.9609 149.648C90.9766 149.867 90.9688 150.016 90.9375 150.094C90.8594 150.078 90.6328 150.055 90.2578 150.023C89.8984 150.008 89.5156 149.992 89.1094 149.977C88.7031 149.945 88.375 149.93 88.125 149.93C87.875 149.93 87.5391 149.945 87.1172 149.977C86.6953 149.992 86.2969 150.008 85.9219 150.023C85.5625 150.055 85.3359 150.078 85.2422 150.094ZM101.484 150.164C100.703 150.164 100.062 149.953 99.5625 149.531C99.0781 149.094 98.8359 148.5 98.8359 147.75C98.8359 147.234 99 146.766 99.3281 146.344C99.6719 145.922 100.148 145.562 100.758 145.266C100.977 145.156 101.172 145.07 101.344 145.008C101.531 144.93 101.703 144.859 101.859 144.797C102.406 144.625 102.859 144.484 103.219 144.375C103.594 144.266 103.859 144.188 104.016 144.141C104.156 144.062 104.227 143.938 104.227 143.766V142.477C104.227 141.93 104.102 141.5 103.852 141.188C103.602 140.875 103.266 140.719 102.844 140.719C102.375 140.719 102.008 140.867 101.742 141.164C101.477 141.445 101.344 141.852 101.344 142.383C101.344 142.695 101.227 142.93 100.992 143.086C100.758 143.227 100.492 143.297 100.195 143.297C99.6172 143.297 99.2109 143.109 98.9766 142.734C98.9766 142.359 99.1172 141.992 99.3984 141.633C99.6797 141.258 100.047 140.922 100.5 140.625C100.969 140.328 101.484 140.094 102.047 139.922C102.609 139.734 103.172 139.641 103.734 139.641C104.703 139.641 105.43 139.898 105.914 140.414C106.398 140.914 106.641 141.781 106.641 143.016V147.633C106.641 148.273 106.898 148.594 107.414 148.594C107.648 148.594 107.914 148.492 108.211 148.289C108.305 148.305 108.352 148.391 108.352 148.547C108.352 148.844 108.305 149.078 108.211 149.25C107.977 149.438 107.664 149.633 107.273 149.836C106.883 150.039 106.508 150.141 106.148 150.141C105.789 150.141 105.438 150.008 105.094 149.742C104.75 149.477 104.523 149.188 104.414 148.875C104.289 148.984 104.195 149.062 104.133 149.109C104.07 149.156 103.969 149.234 103.828 149.344C103.5 149.562 103.141 149.758 102.75 149.93C102.359 150.086 101.938 150.164 101.484 150.164ZM102.68 148.641C103.102 148.641 103.461 148.531 103.758 148.312C104.07 148.094 104.227 147.844 104.227 147.562V145.172L102.727 145.688C102.367 145.844 102.047 146.031 101.766 146.25C101.484 146.469 101.344 146.781 101.344 147.188C101.344 147.688 101.469 148.055 101.719 148.289C101.969 148.523 102.289 148.641 102.68 148.641ZM109.523 150.094C109.461 150.031 109.43 149.883 109.43 149.648C109.43 149.414 109.461 149.297 109.523 149.297C109.648 149.297 109.82 149.273 110.039 149.227C110.273 149.164 110.484 149.094 110.672 149.016C110.875 148.922 110.984 148.844 111 148.781C111.109 148.344 111.164 147.773 111.164 147.07V143.25C111.164 142.5 111.039 142 110.789 141.75C110.617 141.562 110.422 141.438 110.203 141.375C110 141.312 109.82 141.273 109.664 141.258C109.523 141.242 109.453 141.219 109.453 141.188C109.453 140.734 109.5 140.5 109.594 140.484C109.953 140.453 110.438 140.383 111.047 140.273C111.672 140.164 112.336 140.023 113.039 139.852C113.352 139.773 113.516 139.734 113.531 139.734C113.609 139.734 113.672 139.789 113.719 139.898C113.766 140.008 113.781 140.094 113.766 140.156C113.734 140.375 113.711 140.555 113.695 140.695C113.68 140.836 113.672 140.938 113.672 141C113.672 141.078 113.688 141.117 113.719 141.117C113.75 141.117 113.789 141.094 113.836 141.047C114.211 140.672 114.688 140.344 115.266 140.062C115.859 139.781 116.461 139.641 117.07 139.641C117.664 139.641 118.172 139.797 118.594 140.109C119.016 140.406 119.328 140.797 119.531 141.281C119.984 140.812 120.555 140.422 121.242 140.109C121.93 139.797 122.664 139.641 123.445 139.641C124.195 139.641 124.789 139.852 125.227 140.273C125.664 140.68 125.977 141.234 126.164 141.938C126.367 142.625 126.469 143.383 126.469 144.211V146.672C126.469 147.656 126.523 148.359 126.633 148.781C126.664 148.844 126.773 148.922 126.961 149.016C127.164 149.094 127.375 149.164 127.594 149.227C127.812 149.273 127.969 149.297 128.062 149.297C128.109 149.297 128.133 149.414 128.133 149.648C128.148 149.867 128.141 150.016 128.109 150.094C128.047 150.078 127.828 150.055 127.453 150.023C127.094 150.008 126.703 149.992 126.281 149.977C125.859 149.945 125.523 149.93 125.273 149.93C125.023 149.93 124.688 149.945 124.266 149.977C123.859 149.992 123.469 150.008 123.094 150.023C122.734 150.055 122.508 150.078 122.414 150.094C122.367 150.016 122.344 149.867 122.344 149.648C122.344 149.414 122.367 149.297 122.414 149.297C122.539 149.297 122.711 149.273 122.93 149.227C123.148 149.164 123.352 149.094 123.539 149.016C123.742 148.922 123.852 148.844 123.867 148.781C123.977 148.344 124.031 147.797 124.031 147.141V144.75C124.031 142.484 123.305 141.352 121.852 141.352C121.336 141.352 120.914 141.477 120.586 141.727C120.258 141.977 120.055 142.219 119.977 142.453C119.977 142.656 119.984 142.836 120 142.992C120.016 143.133 120.023 143.422 120.023 143.859V146.766C120.023 147.203 120.031 147.594 120.047 147.938C120.078 148.281 120.125 148.562 120.188 148.781C120.219 148.844 120.328 148.922 120.516 149.016C120.719 149.094 120.93 149.164 121.148 149.227C121.367 149.273 121.523 149.297 121.617 149.297C121.664 149.297 121.688 149.414 121.688 149.648C121.703 149.867 121.695 150.016 121.664 150.094C121.602 150.078 121.383 150.055 121.008 150.023C120.648 150.008 120.258 149.992 119.836 149.977C119.414 149.945 119.078 149.93 118.828 149.93C118.578 149.93 118.242 149.945 117.82 149.977C117.414 149.992 117.023 150.008 116.648 150.023C116.289 150.055 116.062 150.078 115.969 150.094C115.922 150.016 115.898 149.867 115.898 149.648C115.898 149.414 115.922 149.297 115.969 149.297C116.094 149.297 116.266 149.273 116.484 149.227C116.703 149.164 116.906 149.094 117.094 149.016C117.297 148.922 117.406 148.844 117.422 148.781C117.531 148.344 117.586 147.773 117.586 147.07V144.82C117.586 143.602 117.406 142.719 117.047 142.172C116.688 141.625 116.156 141.352 115.453 141.352C114.984 141.352 114.555 141.484 114.164 141.75C113.773 142.016 113.578 142.312 113.578 142.641V146.672C113.578 147.609 113.641 148.312 113.766 148.781C113.797 148.844 113.906 148.922 114.094 149.016C114.281 149.094 114.477 149.164 114.68 149.227C114.898 149.273 115.055 149.297 115.148 149.297C115.211 149.297 115.242 149.414 115.242 149.648C115.258 149.867 115.25 150.016 115.219 150.094C115.141 150.078 114.914 150.055 114.539 150.023C114.18 150.008 113.797 149.992 113.391 149.977C112.984 149.945 112.656 149.93 112.406 149.93C112.156 149.93 111.812 149.945 111.375 149.977C110.953 149.992 110.562 150.008 110.203 150.023C109.844 150.055 109.617 150.078 109.523 150.094ZM134.508 150.164C133.523 150.164 132.625 149.93 131.812 149.461C131.016 148.977 130.375 148.336 129.891 147.539C129.422 146.742 129.188 145.859 129.188 144.891C129.188 143.906 129.422 143.023 129.891 142.242C130.359 141.445 130.992 140.812 131.789 140.344C132.602 139.875 133.5 139.641 134.484 139.641C135.469 139.641 136.359 139.875 137.156 140.344C137.969 140.812 138.609 141.445 139.078 142.242C139.562 143.039 139.805 143.922 139.805 144.891C139.805 145.859 139.57 146.742 139.102 147.539C138.633 148.336 138 148.977 137.203 149.461C136.406 149.93 135.508 150.164 134.508 150.164ZM134.742 149.062C135.242 149.062 135.664 148.898 136.008 148.57C136.352 148.242 136.617 147.805 136.805 147.258C136.992 146.695 137.086 146.094 137.086 145.453C137.086 144.609 136.969 143.836 136.734 143.133C136.516 142.414 136.188 141.836 135.75 141.398C135.328 140.961 134.805 140.742 134.18 140.742C133.695 140.742 133.273 140.906 132.914 141.234C132.57 141.562 132.305 142 132.117 142.547C131.945 143.094 131.859 143.695 131.859 144.352C131.859 145.195 131.969 145.977 132.188 146.695C132.422 147.398 132.758 147.969 133.195 148.406C133.633 148.844 134.148 149.062 134.742 149.062ZM141.141 150.07C141.094 150.023 141.07 149.898 141.07 149.695C141.07 149.43 141.094 149.297 141.141 149.297C141.281 149.297 141.461 149.273 141.68 149.227C141.914 149.18 142.133 149.117 142.336 149.039C142.555 148.961 142.68 148.875 142.711 148.781C142.82 148.469 142.875 147.758 142.875 146.648V137.789C142.875 136.836 142.82 136.195 142.711 135.867C142.68 135.742 142.562 135.641 142.359 135.562C142.172 135.469 141.953 135.398 141.703 135.352C141.469 135.305 141.273 135.281 141.117 135.281C141.055 135.281 141.023 135.164 141.023 134.93C141.023 134.711 141.055 134.57 141.117 134.508C142.148 134.555 143.188 134.578 144.234 134.578H148.289C149.555 134.578 150.688 134.781 151.688 135.188C152.703 135.578 153.555 136.125 154.242 136.828C154.945 137.531 155.477 138.336 155.836 139.242C156.211 140.148 156.398 141.109 156.398 142.125C156.398 143.625 156.07 144.977 155.414 146.18C154.773 147.367 153.844 148.312 152.625 149.016C151.406 149.719 149.953 150.07 148.266 150.07C148.109 150.07 147.867 150.062 147.539 150.047C147.227 150.047 146.828 150.039 146.344 150.023C145.859 150.008 145.445 149.992 145.102 149.977C144.758 149.961 144.477 149.961 144.258 149.977L141.141 150.07ZM148.641 148.875C151.812 148.875 153.398 146.594 153.398 142.031C153.398 140.859 153.203 139.805 152.812 138.867C152.438 137.914 151.883 137.156 151.148 136.594C150.43 136.031 149.539 135.75 148.477 135.75H148.359C146.859 135.75 146.016 135.875 145.828 136.125C145.625 136.391 145.523 136.875 145.523 137.578V146.766C145.523 147.625 145.609 148.203 145.781 148.5C146.031 148.75 146.984 148.875 148.641 148.875ZM157.734 150.07C157.688 150.023 157.664 149.898 157.664 149.695C157.664 149.43 157.688 149.297 157.734 149.297C157.875 149.297 158.055 149.273 158.273 149.227C158.508 149.18 158.727 149.117 158.93 149.039C159.148 148.961 159.273 148.875 159.305 148.781C159.414 148.469 159.469 147.758 159.469 146.648V137.789C159.469 136.836 159.414 136.195 159.305 135.867C159.273 135.742 159.156 135.641 158.953 135.562C158.766 135.469 158.547 135.398 158.297 135.352C158.062 135.305 157.867 135.281 157.711 135.281C157.648 135.281 157.617 135.164 157.617 134.93C157.617 134.711 157.648 134.57 157.711 134.508C158.742 134.555 159.781 134.578 160.828 134.578L162.844 134.555H164.25C165.422 134.555 166.531 134.836 167.578 135.398C168.109 135.695 168.539 136.117 168.867 136.664C169.211 137.211 169.383 137.844 169.383 138.562C169.383 139.109 169.219 139.633 168.891 140.133C168.562 140.617 168.25 140.961 167.953 141.164C167.672 141.352 167.43 141.484 167.227 141.562C167.102 141.609 167.07 141.656 167.133 141.703C167.523 141.766 167.945 141.977 168.398 142.336C168.867 142.68 169.273 143.133 169.617 143.695C169.961 144.258 170.133 144.898 170.133 145.617C170.133 146.508 169.883 147.289 169.383 147.961C168.898 148.617 168.211 149.125 167.32 149.484C166.43 149.828 165.383 150 164.18 150L160.852 149.977L157.734 150.07ZM163.523 141.281C164.102 141.281 164.539 141.234 164.836 141.141C165.977 140.891 166.547 140.125 166.547 138.844C166.547 136.734 165.648 135.68 163.852 135.68C163.133 135.68 162.633 135.719 162.352 135.797C162.227 135.828 162.164 135.914 162.164 136.055L162.117 138.305V141.047C162.117 141.203 162.586 141.281 163.523 141.281ZM163.898 148.828C164.242 148.828 164.578 148.797 164.906 148.734C165.234 148.656 165.594 148.523 165.984 148.336C166.359 148.164 166.664 147.867 166.898 147.445C167.148 147.008 167.273 146.484 167.273 145.875C167.273 144.875 166.992 144.055 166.43 143.414C165.883 142.758 164.992 142.43 163.758 142.43C163.539 142.43 163.305 142.445 163.055 142.477C162.82 142.492 162.57 142.516 162.305 142.547C162.18 142.625 162.117 142.781 162.117 143.016V147.375C162.117 148.016 162.211 148.422 162.398 148.594C162.602 148.75 163.102 148.828 163.898 148.828Z" fill="white"/>
</svg>
