<svg width="100" height="139" viewBox="0 0 100 139" fill="none" xmlns="http://www.w3.org/2000/svg">
<mask id="path-1-inside-1_2013_54" fill="white">
<path d="M11.6637 6.28774C13.625 5.5744 15.3547 5.29784 17.2133 5.19121C16.8334 9.08866 13.4584 9.54854 11.6637 6.28774ZM47.0152 73.2446C42.4311 68.8688 40.3082 74.2762 34.4684 74.3643C30.9645 74.417 26.2121 72.6858 20.3883 67.2804C25.0979 77.1395 30.6375 82.8087 36.5137 85.2751C47.8027 90.0137 50 81.6742 60.8805 87.1204C59.2508 83.2982 55.9678 81.5048 52.6701 80.54C49.3396 79.5661 47.0318 80.7399 44.3172 78.9839C41.9988 77.4429 42.1488 74.001 47.0152 73.2446ZM46.7896 22.9593C49.2461 27.9321 52.0492 31.6602 56.784 34.6938C62.9844 38.3666 69.2773 38.995 75.7137 35.7538C80.7105 33.238 84.3039 35.6963 86.1699 42.7784C86.4746 34.2037 83.1961 30.4625 80.4459 28.5146C74.5539 24.3423 68.1281 31.7096 60.9639 30.8112C56.2047 30.2142 51.9268 28.7704 46.7896 22.9593ZM66.9596 68.4169C65.8307 69.8521 64.0625 71.268 63.0207 71.3991C63.0824 71.5614 63.0984 71.6423 63.1156 71.6423C68.658 71.6452 74.9588 70.4494 79.7959 62.841C82.9666 57.8536 83.3857 54.9452 89.459 56.4916C85.3332 51.6701 78.3854 52.5457 73.4375 59.0556C71.4248 61.704 69.8242 64.9003 66.9596 68.4169ZM51.8584 54.503C57.9102 58.937 65.5029 58.8657 71.8773 52.8393C77.8631 46.9182 83.6139 51.3482 84.0727 50.2905C79.5404 45.6417 75.0629 45.5833 70.8193 47.1905C62.5488 50.0273 62.2115 58.6273 51.8584 54.503ZM66.0488 24.3591C65.0147 24.3851 62.6709 25.5435 59.6791 24.0752C54.8207 21.3766 52.6271 13.1843 41.8934 13.4149C44.6941 19.3304 56.9012 31.685 66.0488 24.3591ZM100 68.515C94.5312 66.3724 92.9443 54.4819 84.0816 62.3007C91.0889 61.8947 91.0889 75.1164 100 68.515ZM64.4102 40.3233C53.776 40.7609 45.7109 26.9545 39.6277 15.1743C31.8359 0.0854631 15.8855 -6.75717 0 8.90505C0 8.90505 10.7215 5.81332 12.1094 28.6167C12.8895 41.4332 12.1039 45.4772 15.2344 53.4959C23.7305 75.2595 37.5527 69.8689 37.5527 69.8689C29.7809 68.2515 26.6928 60.3862 25.7812 54.1614C25.3256 50.6448 26.9133 46.6667 30.9121 46.8814C34.9787 47.0995 38.0588 54.1711 43.2445 62.8398C50.3963 75.9272 61.0738 70.3964 68.6797 60.5949C68.2926 58.9264 64.6482 61.5862 60.9854 61.5238C55.1865 61.4248 49.7969 59.487 45.7365 55.293C37.6627 46.1307 36.9656 34.1122 43.8098 34.9396C46.8424 35.2016 49.4523 40.8693 52.1809 42.6618C56.0871 45.2278 60.0334 44.456 64.4102 40.3236M67.1516 99.9361C63.6066 97.5454 64.1926 87.4716 52.6543 88.4712C59.5762 90.9394 60.4131 100.888 67.1516 99.9361Z"/>
</mask>
<path d="M11.6637 6.28774C13.625 5.5744 15.3547 5.29784 17.2133 5.19121C16.8334 9.08866 13.4584 9.54854 11.6637 6.28774ZM47.0152 73.2446C42.4311 68.8688 40.3082 74.2762 34.4684 74.3643C30.9645 74.417 26.2121 72.6858 20.3883 67.2804C25.0979 77.1395 30.6375 82.8087 36.5137 85.2751C47.8027 90.0137 50 81.6742 60.8805 87.1204C59.2508 83.2982 55.9678 81.5048 52.6701 80.54C49.3396 79.5661 47.0318 80.7399 44.3172 78.9839C41.9988 77.4429 42.1488 74.001 47.0152 73.2446ZM46.7896 22.9593C49.2461 27.9321 52.0492 31.6602 56.784 34.6938C62.9844 38.3666 69.2773 38.995 75.7137 35.7538C80.7105 33.238 84.3039 35.6963 86.1699 42.7784C86.4746 34.2037 83.1961 30.4625 80.4459 28.5146C74.5539 24.3423 68.1281 31.7096 60.9639 30.8112C56.2047 30.2142 51.9268 28.7704 46.7896 22.9593ZM66.9596 68.4169C65.8307 69.8521 64.0625 71.268 63.0207 71.3991C63.0824 71.5614 63.0984 71.6423 63.1156 71.6423C68.658 71.6452 74.9588 70.4494 79.7959 62.841C82.9666 57.8536 83.3857 54.9452 89.459 56.4916C85.3332 51.6701 78.3854 52.5457 73.4375 59.0556C71.4248 61.704 69.8242 64.9003 66.9596 68.4169ZM51.8584 54.503C57.9102 58.937 65.5029 58.8657 71.8773 52.8393C77.8631 46.9182 83.6139 51.3482 84.0727 50.2905C79.5404 45.6417 75.0629 45.5833 70.8193 47.1905C62.5488 50.0273 62.2115 58.6273 51.8584 54.503ZM66.0488 24.3591C65.0147 24.3851 62.6709 25.5435 59.6791 24.0752C54.8207 21.3766 52.6271 13.1843 41.8934 13.4149C44.6941 19.3304 56.9012 31.685 66.0488 24.3591ZM100 68.515C94.5312 66.3724 92.9443 54.4819 84.0816 62.3007C91.0889 61.8947 91.0889 75.1164 100 68.515ZM64.4102 40.3233C53.776 40.7609 45.7109 26.9545 39.6277 15.1743C31.8359 0.0854631 15.8855 -6.75717 0 8.90505C0 8.90505 10.7215 5.81332 12.1094 28.6167C12.8895 41.4332 12.1039 45.4772 15.2344 53.4959C23.7305 75.2595 37.5527 69.8689 37.5527 69.8689C29.7809 68.2515 26.6928 60.3862 25.7812 54.1614C25.3256 50.6448 26.9133 46.6667 30.9121 46.8814C34.9787 47.0995 38.0588 54.1711 43.2445 62.8398C50.3963 75.9272 61.0738 70.3964 68.6797 60.5949C68.2926 58.9264 64.6482 61.5862 60.9854 61.5238C55.1865 61.4248 49.7969 59.487 45.7365 55.293C37.6627 46.1307 36.9656 34.1122 43.8098 34.9396C46.8424 35.2016 49.4523 40.8693 52.1809 42.6618C56.0871 45.2278 60.0334 44.456 64.4102 40.3236M67.1516 99.9361C63.6066 97.5454 64.1926 87.4716 52.6543 88.4712C59.5762 90.9394 60.4131 100.888 67.1516 99.9361Z" fill="white"/>
<path d="M11.6637 6.28774L11.653 6.25837L11.6187 6.27084L11.6363 6.30281L11.6637 6.28774ZM17.2133 5.19121L17.2444 5.19424L17.2479 5.15792L17.2115 5.16001L17.2133 5.19121ZM47.0152 73.2446L47.02 73.2755L47.0826 73.2658L47.0368 73.222L47.0152 73.2446ZM34.4684 74.3643L34.4688 74.3955V74.3955L34.4684 74.3643ZM20.3883 67.2804L20.4095 67.2575L20.3601 67.2939L20.3883 67.2804ZM36.5137 85.2751L36.5258 85.2463V85.2463L36.5137 85.2751ZM60.8805 87.1204L60.8665 87.1483L60.9426 87.1864L60.9092 87.1081L60.8805 87.1204ZM52.6701 80.54L52.6789 80.51H52.6789L52.6701 80.54ZM44.3172 78.9839L44.2999 79.0099L44.3002 79.0101L44.3172 78.9839ZM46.7896 22.9593L46.8131 22.9386L46.7616 22.9731L46.7896 22.9593ZM56.784 34.6938L56.7671 34.7201L56.7681 34.7207L56.784 34.6938ZM75.7137 35.7538L75.6996 35.7259V35.7259L75.7137 35.7538ZM86.1699 42.7784L86.1397 42.7863L86.2011 42.7795L86.1699 42.7784ZM80.4459 28.5146L80.464 28.4891V28.4891L80.4459 28.5146ZM60.9639 30.8112L60.96 30.8422V30.8422L60.9639 30.8112ZM66.9596 68.4169L66.9353 68.3971L66.935 68.3976L66.9596 68.4169ZM63.0207 71.3991L63.0168 71.3681L62.9774 71.3731L62.9915 71.4102L63.0207 71.3991ZM63.1156 71.6423L63.1156 71.6111H63.1156V71.6423ZM79.7959 62.841L79.8223 62.8578V62.8578L79.7959 62.841ZM89.459 56.4916L89.4513 56.5219L89.5469 56.5462L89.4827 56.4713L89.459 56.4916ZM73.4375 59.0556L73.4126 59.0367V59.0367L73.4375 59.0556ZM51.8584 54.503L51.87 54.4739L51.8399 54.5282L51.8584 54.503ZM71.8773 52.8393L71.8988 52.8621L71.8993 52.8616L71.8773 52.8393ZM84.0727 50.2905L84.1013 50.3029L84.1097 50.2837L84.095 50.2686L84.0727 50.2905ZM70.8193 47.1905L70.8295 47.22L70.8304 47.2197L70.8193 47.1905ZM66.0488 24.3591L66.0684 24.3835L66.1407 24.3256L66.048 24.3279L66.0488 24.3591ZM59.6791 24.0752L59.6639 24.1025L59.6653 24.1032L59.6791 24.0752ZM41.8934 13.4149L41.8927 13.3837L41.8445 13.3847L41.8651 13.4283L41.8934 13.4149ZM100 68.515L100.019 68.5401L100.064 68.5065L100.011 68.4859L100 68.515ZM84.0816 62.3007L84.061 62.2773L83.9931 62.3371L84.0834 62.3319L84.0816 62.3007ZM39.6277 15.1743L39.6555 15.16V15.16L39.6277 15.1743ZM0 8.90505L-0.0219401 8.8828L0.00865867 8.93507L0 8.90505ZM12.1094 28.6167L12.0782 28.6186V28.6186L12.1094 28.6167ZM15.2344 53.4959L15.2635 53.4846L15.2635 53.4846L15.2344 53.4959ZM37.5527 69.8689L37.5641 69.8981L37.6622 69.8598L37.5591 69.8383L37.5527 69.8689ZM25.7812 54.1614L25.7503 54.1654L25.7503 54.1659L25.7812 54.1614ZM30.9121 46.8814L30.9104 46.9126H30.9104L30.9121 46.8814ZM43.2445 62.8398L43.272 62.8248L43.2714 62.8238L43.2445 62.8398ZM68.6797 60.5949L68.7044 60.6141L68.7135 60.6023L68.7101 60.5878L68.6797 60.5949ZM60.9854 61.5238L60.9848 61.555V61.555L60.9854 61.5238ZM45.7365 55.293L45.7131 55.3137L45.7141 55.3147L45.7365 55.293ZM43.8098 34.9396L43.806 34.9706L43.8071 34.9707L43.8098 34.9396ZM52.1809 42.6618L52.1637 42.6879V42.6879L52.1809 42.6618ZM67.1516 99.9361L67.1559 99.967L67.2365 99.9556L67.169 99.9101L67.1516 99.9361ZM52.6543 88.4712L52.6516 88.4401L52.6438 88.5006L52.6543 88.4712ZM11.6637 6.28774L11.6744 6.31711C13.6322 5.60503 15.3588 5.32891 17.2151 5.22241L17.2133 5.19121L17.2115 5.16001C15.3506 5.26677 13.6178 5.54376 11.653 6.25837L11.6637 6.28774ZM17.2133 5.19121L17.1822 5.18818C16.993 7.12922 16.06 8.20183 14.9637 8.39303C13.8662 8.58444 12.5848 7.89644 11.691 6.27267L11.6637 6.28774L11.6363 6.30281C12.5373 7.93985 13.8408 8.65231 14.9744 8.4546C16.1092 8.2567 17.0537 7.15064 17.2444 5.19424L17.2133 5.19121ZM47.0152 73.2446L47.0368 73.222C45.8876 72.125 44.8894 71.6381 43.9456 71.5301C43.0024 71.4221 42.1185 71.6932 41.2 72.1019C39.3605 72.9204 37.3794 74.2891 34.4679 74.333L34.4684 74.3643L34.4688 74.3955C37.3972 74.3513 39.3975 72.9723 41.2254 72.159C42.1405 71.7518 43.0119 71.4861 43.9385 71.5922C44.8646 71.6982 45.8508 72.1763 46.9937 73.2672L47.0152 73.2446ZM34.4684 74.3643L34.4679 74.333C30.9749 74.3856 26.23 72.6598 20.4095 67.2575L20.3883 67.2804L20.367 67.3033C26.1942 72.7118 30.954 74.4484 34.4688 74.3955L34.4684 74.3643ZM20.3883 67.2804L20.3601 67.2939C25.0715 77.1569 30.6158 82.8334 36.5016 85.304L36.5137 85.2751L36.5258 85.2463C30.6592 82.7839 25.1242 77.1221 20.4165 67.267L20.3883 67.2804ZM36.5137 85.2751L36.5016 85.304C39.3274 86.4901 41.5857 86.8583 43.554 86.8279C45.5216 86.7975 47.198 86.3685 48.8577 85.9627C50.518 85.5568 52.1618 85.1741 54.0695 85.232C55.9768 85.29 58.1498 85.7885 60.8665 87.1483L60.8805 87.1204L60.8945 87.0924C58.1709 85.7292 55.9891 85.2278 54.0714 85.1696C52.1543 85.1113 50.5031 85.4961 48.8429 85.902C47.1821 86.3081 45.5124 86.7351 43.553 86.7654C41.5942 86.7957 39.3444 86.4294 36.5258 85.2463L36.5137 85.2751ZM60.8805 87.1204L60.9092 87.1081C59.2743 83.2737 55.9808 81.4761 52.6789 80.51L52.6701 80.54L52.6613 80.57C55.9547 81.5336 59.2273 83.3227 60.8517 87.1326L60.8805 87.1204ZM52.6701 80.54L52.6789 80.51C51.0089 80.0217 49.5942 80.0717 48.2638 80.024C46.9332 79.9763 45.6844 79.8311 44.3342 78.9577L44.3172 78.9839L44.3002 79.0101C45.6646 79.8927 46.9271 80.0386 48.2616 80.0865C49.5964 80.1343 51.0009 80.0844 52.6613 80.57L52.6701 80.54ZM44.3172 78.9839L44.3345 78.9579C43.184 78.1932 42.6508 76.9607 43.0018 75.8293C43.3528 74.6978 44.5927 73.6528 47.02 73.2755L47.0152 73.2446L47.0104 73.2138C44.5714 73.5929 43.3031 74.647 42.9421 75.8108C42.581 76.9746 43.132 78.2336 44.2999 79.0099L44.3172 78.9839ZM46.7896 22.9593L46.7616 22.9731C49.2198 27.9495 52.0263 31.6826 56.7671 34.7201L56.784 34.6938L56.8008 34.6675C52.0722 31.6378 49.2724 27.9148 46.8177 22.9454L46.7896 22.9593ZM56.784 34.6938L56.7681 34.7207C62.9762 38.3981 69.2805 39.0284 75.7277 35.7818L75.7137 35.7538L75.6996 35.7259C69.2741 38.9616 62.9925 38.3351 56.7999 34.6669L56.784 34.6938ZM75.7137 35.7538L75.7277 35.7818C78.2195 34.5272 80.3544 34.5157 82.0984 35.6928C83.8451 36.8718 85.2074 39.2478 86.1397 42.7863L86.1699 42.7784L86.2001 42.7704C85.2665 39.2268 83.899 36.8327 82.1334 35.641C80.365 34.4474 78.2047 34.4647 75.6996 35.7259L75.7137 35.7538ZM86.1699 42.7784L86.2011 42.7795C86.3536 38.4879 85.6095 35.4036 84.4814 33.1475C83.3533 30.8912 81.8422 29.4653 80.464 28.4891L80.4459 28.5146L80.4278 28.5401C81.7998 29.5118 83.303 30.9304 84.4255 33.1754C85.5481 35.4205 86.2909 38.4941 86.1387 42.7773L86.1699 42.7784ZM80.4459 28.5146L80.464 28.4891C77.5036 26.3928 74.4095 27.1979 71.1711 28.4059C69.55 29.0106 67.8935 29.7159 66.193 30.2146C64.4933 30.7131 62.753 31.004 60.9678 30.7802L60.9639 30.8112L60.96 30.8422C62.7569 31.0675 64.5064 30.7744 66.2106 30.2746C67.914 29.775 69.5755 29.0678 71.1929 28.4645C74.4314 27.2565 77.4962 26.4641 80.4278 28.5401L80.4459 28.5146ZM60.9639 30.8112L60.9678 30.7802C58.5902 30.4819 56.3348 29.9724 54.0325 28.8126C51.7303 27.6528 49.3796 25.8418 46.8131 22.9386L46.7896 22.9593L46.7662 22.9799C49.3368 25.8878 51.6936 27.7043 54.0044 28.8684C56.3152 30.0325 58.5783 30.5434 60.96 30.8422L60.9639 30.8112ZM66.9596 68.4169L66.935 68.3976C66.3722 69.1131 65.6498 69.8241 64.9384 70.3723C64.2257 70.9215 63.5289 71.3037 63.0168 71.3681L63.0207 71.3991L63.0246 71.4301C63.5543 71.3634 64.2625 70.9721 64.9765 70.4218C65.6919 69.8705 66.4181 69.1559 66.9841 68.4362L66.9596 68.4169ZM63.0207 71.3991L62.9915 71.4102C63.0221 71.4907 63.0412 71.5506 63.0553 71.5917C63.0621 71.6117 63.0682 71.6286 63.0741 71.6407C63.0769 71.6466 63.0806 71.6534 63.0856 71.659C63.0902 71.6644 63.1002 71.6736 63.1156 71.6736V71.6423V71.6111C63.1267 71.6111 63.1325 71.6177 63.1327 71.618C63.1332 71.6186 63.1324 71.6178 63.1304 71.6136C63.1264 71.6054 63.1214 71.592 63.1144 71.5714C63.1008 71.5315 63.081 71.4698 63.0499 71.388L63.0207 71.3991ZM63.1156 71.6423L63.1156 71.6736C65.8889 71.675 68.8545 71.3766 71.7327 70.1245C74.6114 68.8723 77.4006 66.6669 79.8223 62.8578L79.7959 62.841L79.7695 62.8242C77.3541 66.6235 74.5743 68.8202 71.7078 70.0672C68.8407 71.3145 65.8848 71.6125 63.1156 71.6111L63.1156 71.6423ZM79.7959 62.841L79.8223 62.8578C80.6149 61.611 81.2371 60.4916 81.816 59.5436C82.3959 58.5941 82.9334 57.8146 83.5601 57.2391C84.1859 56.6645 84.901 56.2931 85.8372 56.1609C86.7745 56.0285 87.9349 56.1358 89.4513 56.5219L89.459 56.4916L89.4667 56.4613C87.9464 56.0742 86.777 55.9651 85.8285 56.099C84.8789 56.2331 84.1523 56.6105 83.5179 57.1931C82.8843 57.7749 82.3429 58.5609 81.7627 59.5111C81.1815 60.4628 80.5623 61.5772 79.7695 62.8242L79.7959 62.841ZM89.459 56.4916L89.4827 56.4713C87.413 54.0525 84.6339 53.0618 81.7519 53.4934C78.8708 53.9248 75.8902 55.7769 73.4126 59.0367L73.4375 59.0556L73.4624 59.0745C75.9326 55.8244 78.8999 53.9837 81.7611 53.5552C84.6215 53.1269 87.3792 54.1092 89.4352 56.5119L89.459 56.4916ZM73.4375 59.0556L73.4126 59.0367C72.4053 60.3621 71.5011 61.8248 70.4917 63.3938C69.4821 64.9632 68.3665 66.6403 66.9353 68.3971L66.9596 68.4169L66.9838 68.4366C68.4172 66.677 69.5343 64.9976 70.5443 63.4276C71.5546 61.8571 72.457 60.3974 73.4624 59.0745L73.4375 59.0556ZM51.8584 54.503L51.8399 54.5282C54.871 56.749 58.2892 57.8424 61.7488 57.625C65.2085 57.4076 68.707 55.8796 71.8988 52.862L71.8773 52.8393L71.8559 52.8166C68.6733 55.8255 65.1881 57.3463 61.7449 57.5626C58.3016 57.779 54.8976 56.691 51.8769 54.4777L51.8584 54.503ZM71.8773 52.8393L71.8993 52.8616C74.8844 49.9086 77.8087 49.5379 80.0443 49.7722C81.1633 49.8895 82.1096 50.1583 82.8078 50.3326C83.1558 50.4195 83.4446 50.4836 83.6612 50.492C83.8763 50.5005 84.0356 50.4543 84.1013 50.3029L84.0727 50.2905L84.044 50.278C83.995 50.391 83.8742 50.4378 83.6637 50.4296C83.4546 50.4214 83.172 50.3591 82.8229 50.272C82.1267 50.0982 81.1752 49.8279 80.0509 49.71C77.7999 49.4741 74.856 49.8489 71.8554 52.8171L71.8773 52.8393ZM84.0727 50.2905L84.095 50.2686C81.8252 47.9405 79.5671 46.7599 77.3432 46.3637C75.1197 45.9676 72.9335 46.3563 70.8083 47.1612L70.8193 47.1905L70.8304 47.2197C72.9487 46.4174 75.1231 46.0317 77.3323 46.4253C79.5411 46.8187 81.7879 47.9917 84.0503 50.3123L84.0727 50.2905ZM70.8193 47.1905L70.8092 47.1609C68.7368 47.8717 67.1617 48.9436 65.8034 50.0859C65.1244 50.6569 64.4994 51.2457 63.8939 51.8156C63.2882 52.3856 62.7021 52.9366 62.1 53.4331C60.896 54.4258 59.6298 55.1991 58.0206 55.4685C56.4112 55.7378 54.4548 55.5037 51.87 54.4739L51.8584 54.503L51.8468 54.532C54.4385 55.5644 56.4068 55.8019 58.0309 55.5301C59.6552 55.2583 60.9314 54.4776 62.1397 53.4813C62.7437 52.9832 63.3313 52.4309 63.9367 51.8611C64.5424 51.2911 65.1662 50.7035 65.8436 50.1337C67.1982 48.9946 68.7666 47.9276 70.8295 47.22L70.8193 47.1905ZM66.0488 24.3591L66.048 24.3279C65.7858 24.3345 65.4417 24.4127 65.0314 24.5017C64.6196 24.5909 64.1376 24.6919 63.595 24.7464C62.5102 24.8553 61.1824 24.7782 59.6929 24.0471L59.6791 24.0752L59.6653 24.1032C61.1676 24.8405 62.5076 24.9183 63.6012 24.8086C64.1477 24.7538 64.6326 24.6521 65.0446 24.5627C65.4581 24.4731 65.7948 24.3968 66.0496 24.3904L66.0488 24.3591ZM59.6791 24.0752L59.6943 24.0479C58.4843 23.3758 57.4391 22.361 56.3828 21.2174C55.3276 20.0749 54.2607 18.8031 53.0109 17.6239C50.509 15.263 47.2696 13.2681 41.8927 13.3837L41.8934 13.4149L41.894 13.4462C47.2509 13.331 50.4752 15.317 52.9681 17.6693C54.2157 18.8466 55.279 20.1145 56.3369 21.2598C57.3938 22.4041 58.4447 23.4253 59.6639 24.1025L59.6791 24.0752ZM41.8934 13.4149L41.8651 13.4283C43.2682 16.3917 47.0243 20.9635 51.5742 23.8788C56.1241 26.7942 61.479 28.0589 66.0684 24.3835L66.0488 24.3591L66.0293 24.3347C61.471 27.9852 56.1486 26.7356 51.6079 23.8262C47.0672 20.9168 43.3193 16.3536 41.9216 13.4015L41.8934 13.4149ZM100 68.515L100.011 68.4859C98.6523 67.9534 97.532 66.8141 96.4762 65.5208C95.4224 64.23 94.4311 62.7832 93.336 61.6506C92.2397 60.5167 91.0323 59.6896 89.5398 59.6406C88.0478 59.5915 86.2793 60.3202 84.061 62.2773L84.0816 62.3007L84.1023 62.3241C86.3154 60.3717 88.0687 59.6547 89.5378 59.703C91.0063 59.7513 92.1992 60.5647 93.2911 61.694C94.3841 62.8245 95.3689 64.2633 96.4277 65.5603C97.4845 66.8547 98.6134 68.0052 99.9886 68.5441L100 68.515ZM84.0816 62.3007L84.0834 62.3319C85.8237 62.2311 87.1295 62.9756 88.2503 64.0513C88.811 64.5893 89.3249 65.2098 89.8234 65.8484C90.3214 66.4861 90.805 67.1433 91.3027 67.7509C92.298 68.9662 93.3582 69.995 94.7319 70.3024C96.1072 70.6101 97.7874 70.193 100.019 68.5401L100 68.515L99.9814 68.4898C97.7571 70.1376 96.0956 70.5434 94.7456 70.2414C93.3941 69.939 92.3455 68.9255 91.351 67.7113C90.8538 67.1042 90.3723 66.4498 89.8727 65.8099C89.3736 65.1707 88.8575 64.5474 88.2936 64.0062C87.1651 62.9232 85.8432 62.1673 84.0798 62.2695L84.0816 62.3007ZM64.4102 40.3233L64.4089 40.2921C59.1066 40.5103 54.4403 37.1775 50.3362 32.3103C46.2328 27.4439 42.6971 21.05 39.6555 15.16L39.6277 15.1743L39.6 15.1887C42.6416 21.0788 46.18 27.4783 50.2884 32.3506C54.3963 37.2223 59.0795 40.574 64.4114 40.3545L64.4102 40.3233ZM39.6277 15.1743L39.6555 15.16C35.7568 7.61018 29.815 2.11932 22.8562 0.477616C15.8959 -1.16444 7.92642 1.04618 -0.0219401 8.8828L0 8.90505L0.0219401 8.9273C7.95913 1.10169 15.9076 -1.09747 22.8418 0.538446C29.7776 2.17473 35.7068 7.64961 39.6 15.1887L39.6277 15.1743ZM0 8.90505C0.00865867 8.93507 0.0086702 8.93507 0.00872248 8.93506C0.0087943 8.93504 0.00888717 8.93501 0.00903046 8.93497C0.00931698 8.93489 0.00976569 8.93476 0.0103754 8.93459C0.0115948 8.93425 0.0134582 8.93373 0.0159559 8.93305C0.0209515 8.9317 0.0284845 8.9297 0.0384785 8.92717C0.0584668 8.9221 0.0882976 8.9149 0.12736 8.90644C0.205486 8.88952 0.320525 8.86759 0.467586 8.84771C0.761726 8.80794 1.18386 8.77638 1.6949 8.80945C2.71681 8.87559 4.09444 9.20016 5.51584 10.2349C8.35852 12.3042 11.3845 17.2205 12.0782 28.6186L12.1094 28.6167L12.1406 28.6148C11.4464 17.2095 8.41765 12.27 5.55262 10.1843C4.12015 9.14157 2.73067 8.81385 1.69894 8.74708C1.18315 8.7137 0.756826 8.74553 0.459213 8.78577C0.310398 8.80589 0.193737 8.82811 0.114133 8.84535C0.0743293 8.85397 0.0437871 8.86134 0.0231186 8.86658C0.0127843 8.8692 0.00491798 8.87129 -0.000403648 8.87273C-0.00306448 8.87346 -0.00508918 8.87402 -0.0064682 8.8744C-0.0071577 8.8746 -0.0076858 8.87474 -0.00805127 8.87485C-0.00823398 8.8749 -0.00838591 8.87494 -0.00847738 8.87497C-0.00858841 8.875 -0.00865867 8.87502 0 8.90505ZM12.1094 28.6167L12.0782 28.6186C12.858 41.4302 12.0724 45.4825 15.2053 53.5073L15.2344 53.4959L15.2635 53.4846C12.1354 45.4719 12.9209 41.4363 12.1406 28.6148L12.1094 28.6167ZM15.2344 53.4959L15.2053 53.5073C19.4559 64.3957 25.0416 68.4974 29.5705 69.8737C31.8342 70.5616 33.8319 70.5679 35.2638 70.4022C35.9798 70.3194 36.5544 70.1935 36.9502 70.0883C37.1482 70.0356 37.3014 69.9882 37.4052 69.9538C37.4572 69.9367 37.4968 69.9228 37.5234 69.9131C37.5368 69.9083 37.5469 69.9046 37.5537 69.902C37.5571 69.9007 37.5596 69.8998 37.5614 69.8991C37.5623 69.8988 37.5629 69.8985 37.5634 69.8983C37.5636 69.8982 37.5638 69.8982 37.5639 69.8981C37.564 69.8981 37.5641 69.8981 37.5527 69.8689C37.5414 69.8398 37.5414 69.8398 37.5413 69.8399C37.5412 69.8399 37.541 69.84 37.5408 69.84C37.5404 69.8402 37.5398 69.8404 37.539 69.8407C37.5374 69.8413 37.535 69.8423 37.5317 69.8435C37.5251 69.846 37.5153 69.8496 37.5022 69.8543C37.4761 69.8638 37.437 69.8775 37.3856 69.8945C37.2829 69.9285 37.1308 69.9756 36.9342 70.0279C36.5409 70.1324 35.9693 70.2577 35.2567 70.3401C33.8314 70.505 31.8426 70.4988 29.5887 69.8139C25.0824 68.4445 19.509 64.3598 15.2635 53.4846L15.2344 53.4959ZM37.5527 69.8689L37.5591 69.8383C33.6833 69.0317 30.9748 66.6674 29.1208 63.7263C27.2664 60.7845 26.2675 57.2666 25.8122 54.1569L25.7812 54.1614L25.7503 54.1659C26.2065 57.281 27.2074 60.8081 29.0679 63.7596C30.9288 66.7116 33.6503 69.0887 37.5464 69.8995L37.5527 69.8689ZM25.7812 54.1614L25.8122 54.1574C25.5851 52.4044 25.8676 50.5382 26.7031 49.1382C27.5376 47.7398 28.9238 46.8059 30.9104 46.9126L30.9121 46.8814L30.9138 46.8502C28.9016 46.7422 27.4945 47.69 26.6494 49.1062C25.8052 50.5207 25.5217 52.4018 25.7503 54.1654L25.7812 54.1614ZM30.9121 46.8814L30.9104 46.9126C31.9177 46.9666 32.8663 47.445 33.8048 48.2713C34.7434 49.0978 35.6699 50.2704 36.6327 51.709C38.5588 54.5871 40.6234 58.5191 43.2177 62.8559L43.2445 62.8398L43.2714 62.8238C40.6799 58.4919 38.6116 54.5536 36.6846 51.6742C35.7208 50.234 34.7907 49.0561 33.8461 48.2244C32.9012 47.3925 31.9398 46.9052 30.9138 46.8502L30.9121 46.8814ZM43.2445 62.8398L43.2171 62.8548C45.007 66.1302 47.019 68.2436 49.1513 69.416C51.2841 70.5888 53.5348 70.8187 55.7984 70.3313C60.3234 69.3569 64.9 65.5167 68.7044 60.6141L68.6797 60.5949L68.655 60.5757C64.8536 65.4746 60.2885 69.3005 55.7852 70.2702C53.5348 70.7547 51.2997 70.526 49.1814 69.3613C47.0625 68.1962 45.058 66.0932 43.272 62.8249L43.2445 62.8398ZM68.6797 60.5949L68.7101 60.5878C68.6602 60.3725 68.5566 60.2238 68.4044 60.1316C68.2532 60.0401 68.0579 60.0067 67.8283 60.0137C67.3698 60.0276 66.7592 60.2033 66.0515 60.4273C64.6322 60.8765 62.811 61.5236 60.9859 61.4925L60.9854 61.5238L60.9848 61.555C62.8225 61.5864 64.655 60.9348 66.0704 60.4869C66.78 60.2623 67.382 60.0898 67.8302 60.0762C68.0539 60.0694 68.2354 60.1024 68.372 60.1851C68.5074 60.267 68.6024 60.4001 68.6492 60.602L68.6797 60.5949ZM60.9854 61.5238L60.9859 61.4925C55.1938 61.3937 49.8126 59.4583 45.759 55.2713L45.7365 55.293L45.7141 55.3147C49.7812 59.5156 55.1792 61.456 60.9848 61.555L60.9854 61.5238ZM45.7365 55.293L45.76 55.2723C41.7267 50.6954 39.5374 45.4063 39.2101 41.3676C39.0463 39.3479 39.3486 37.645 40.114 36.4997C40.8778 35.3568 42.1055 34.765 43.806 34.9706L43.8098 34.9396L43.8135 34.9085C42.092 34.7004 40.8402 35.3006 40.0621 36.4649C39.2856 37.6267 38.9835 39.3459 39.1478 41.3727C39.4764 45.427 41.6725 50.7283 45.7131 55.3136L45.7365 55.293ZM43.8098 34.9396L43.8071 34.9707C44.5561 35.0354 45.2818 35.4342 45.9934 36.0286C46.7048 36.6228 47.3991 37.4099 48.0852 38.2466C48.7704 39.0821 49.4486 39.9685 50.1245 40.7562C50.8007 41.5441 51.4777 42.2373 52.1637 42.6879L52.1809 42.6618L52.198 42.6356C51.5197 42.19 50.8473 41.5025 50.172 40.7155C49.4963 39.9281 48.8209 39.0451 48.1335 38.2069C47.447 37.3698 46.7496 36.5788 46.0335 35.9806C45.3175 35.3826 44.5798 34.9747 43.8125 34.9084L43.8098 34.9396ZM52.1809 42.6618L52.1637 42.6879C54.1226 43.9746 56.0939 44.4258 58.125 44.0353C60.1549 43.645 62.2409 42.4147 64.4316 40.3463L64.4102 40.3236L64.3887 40.3009C62.2027 42.3648 60.1271 43.5867 58.1132 43.9739C56.1004 44.3609 54.1454 43.9149 52.198 42.6356L52.1809 42.6618ZM67.1516 99.9361L67.169 99.9101C66.2905 99.3177 65.6656 98.2472 65.0415 96.9817C64.4186 95.7188 63.7975 94.2635 62.9267 92.9153C62.0553 91.5662 60.9324 90.3214 59.3031 89.477C57.6737 88.6325 55.5408 88.1898 52.6516 88.4401L52.6543 88.4712L52.657 88.5023C55.537 88.2528 57.6576 88.6945 59.2743 89.5325C60.8911 90.3704 62.0066 91.6061 62.8742 92.9492C63.7423 94.2934 64.3605 95.7424 64.9854 97.0094C65.609 98.2738 66.2401 99.3591 67.1341 99.962L67.1516 99.9361ZM52.6543 88.4712L52.6438 88.5006C56.0934 89.7307 58.0272 92.8244 59.9463 95.5043C60.9046 96.8425 61.8598 98.0778 62.9984 98.9184C64.1385 99.7602 65.4624 100.206 67.1559 99.967L67.1516 99.9361L67.1472 99.9051C65.4715 100.142 64.1638 99.7011 63.0355 98.8681C61.9057 98.034 60.9556 96.8063 59.9971 95.4679C58.0826 92.7945 56.137 89.6799 52.6648 88.4418L52.6543 88.4712Z" fill="white" mask="url(#path-1-inside-1_2013_54)"/>
<path d="M3.70312 131.094C3.65625 131.016 3.63281 130.875 3.63281 130.672C3.63281 130.422 3.65625 130.297 3.70312 130.297C3.84375 130.297 4.03125 130.273 4.26562 130.227C4.5 130.18 4.71875 130.117 4.92188 130.039C5.14062 129.961 5.26562 129.875 5.29688 129.781C5.39062 129.5 5.4375 128.789 5.4375 127.648V118.789C5.4375 117.898 5.39062 117.258 5.29688 116.867C5.26562 116.773 5.14062 116.688 4.92188 116.609C4.71875 116.516 4.49219 116.438 4.24219 116.375C4.00781 116.312 3.82812 116.281 3.70312 116.281C3.64062 116.281 3.60938 116.164 3.60938 115.93C3.60938 115.695 3.64062 115.555 3.70312 115.508C5.34375 115.555 6.38281 115.578 6.82031 115.578C7.03906 115.578 7.28125 115.578 7.54688 115.578C7.8125 115.562 8.09375 115.547 8.39062 115.531L9.98438 115.508C10.4531 115.508 10.9141 115.555 11.3672 115.648C11.8359 115.727 12.3047 115.875 12.7734 116.094C13.5234 116.438 14.1094 116.93 14.5312 117.57C14.9688 118.195 15.1875 118.938 15.1875 119.797C15.1875 120.531 15 121.25 14.625 121.953C14.2344 122.656 13.6484 123.258 12.8672 123.758C12.1016 124.242 11.2344 124.484 10.2656 124.484C9.9375 124.484 9.60938 124.43 9.28125 124.32C8.95312 124.195 8.72656 124.047 8.60156 123.875C8.49219 123.766 8.44531 123.617 8.46094 123.43C8.49219 123.227 8.53125 123.125 8.57812 123.125C8.90625 123.281 9.34375 123.359 9.89062 123.359C10.6406 123.359 11.2344 123.055 11.6719 122.445C12.1094 121.82 12.3281 121.039 12.3281 120.102C12.3281 119.055 12.1172 118.227 11.6953 117.617C11.2734 117.008 10.625 116.703 9.75 116.703C9.07812 116.703 8.625 116.758 8.39062 116.867C8.20312 116.961 8.10938 117.773 8.10938 119.305V127.672C8.10938 128.578 8.17188 129.242 8.29688 129.664C8.32812 129.789 8.46094 129.898 8.69531 129.992C8.94531 130.086 9.21094 130.164 9.49219 130.227C9.77344 130.273 9.98438 130.297 10.125 130.297C10.1875 130.297 10.2188 130.43 10.2188 130.695C10.2188 130.836 10.2031 130.969 10.1719 131.094C8.46875 131 7.35938 130.953 6.84375 130.953C6.42188 130.953 5.94531 130.969 5.41406 131C4.89844 131.016 4.48438 131.031 4.17188 131.047L3.70312 131.094ZM16.5234 131.094C16.4609 131.031 16.4297 130.883 16.4297 130.648C16.4297 130.414 16.4609 130.297 16.5234 130.297C16.6484 130.297 16.8203 130.273 17.0391 130.227C17.2734 130.164 17.4844 130.094 17.6719 130.016C17.875 129.922 17.9844 129.844 18 129.781C18.1094 129.344 18.1641 128.781 18.1641 128.094V118.344C18.1641 118.031 18.1484 117.742 18.1172 117.477C18.1016 117.211 18.0781 116.969 18.0469 116.75C17.9844 116.5 17.5781 116.375 16.8281 116.375H16.6172C16.5234 116.375 16.4766 116.25 16.4766 116C16.4766 115.75 16.5234 115.625 16.6172 115.625C17.1016 115.578 17.5625 115.516 18 115.438C18.4375 115.359 18.8047 115.281 19.1016 115.203C19.5078 115.078 19.8438 114.969 20.1094 114.875C20.375 114.781 20.5078 114.734 20.5078 114.734H20.5547C20.6172 114.734 20.6797 114.781 20.7422 114.875C20.8047 114.953 20.8438 115.031 20.8594 115.109C20.6719 115.719 20.5781 116.453 20.5781 117.312V122.047C20.5781 122.141 20.6094 122.188 20.6719 122.188C20.6875 122.188 20.7188 122.164 20.7656 122.117C21.0938 121.742 21.5703 121.406 22.1953 121.109C22.8359 120.797 23.4688 120.641 24.0938 120.641C26.0938 120.641 27.0938 122.18 27.0938 125.258V127.672C27.0938 128.609 27.1562 129.312 27.2812 129.781C27.2969 129.844 27.3984 129.922 27.5859 130.016C27.7891 130.094 28 130.164 28.2188 130.227C28.4531 130.273 28.6172 130.297 28.7109 130.297C28.7578 130.297 28.7812 130.414 28.7812 130.648C28.7969 130.867 28.7969 131.016 28.7812 131.094C28.7188 131.078 28.4922 131.055 28.1016 131.023C27.7266 131.008 27.3281 130.992 26.9062 130.977C26.4844 130.945 26.1562 130.93 25.9219 130.93C25.6719 130.93 25.3438 130.945 24.9375 130.977C24.5312 130.992 24.1484 131.008 23.7891 131.023C23.4453 131.055 23.2188 131.078 23.1094 131.094C23.0625 131.016 23.0391 130.867 23.0391 130.648C23.0391 130.414 23.0625 130.297 23.1094 130.297C23.2344 130.297 23.3984 130.273 23.6016 130.227C23.8203 130.164 24.0156 130.094 24.1875 130.016C24.375 129.922 24.4844 129.844 24.5156 129.781C24.6094 129.312 24.6562 128.742 24.6562 128.07V125.773C24.6562 124.477 24.4766 123.586 24.1172 123.102C23.7734 122.602 23.2188 122.352 22.4531 122.352C21.9844 122.352 21.5547 122.484 21.1641 122.75C20.7734 123.016 20.5781 123.312 20.5781 123.641V127.672C20.5781 128.609 20.6406 129.312 20.7656 129.781C20.7969 129.844 20.9062 129.922 21.0938 130.016C21.2812 130.094 21.4844 130.164 21.7031 130.227C21.9219 130.273 22.0781 130.297 22.1719 130.297C22.2188 130.297 22.2422 130.414 22.2422 130.648C22.2578 130.867 22.25 131.016 22.2188 131.094C22.1406 131.078 21.9141 131.055 21.5391 131.023C21.1797 131.008 20.7969 130.992 20.3906 130.977C19.9844 130.945 19.6562 130.93 19.4062 130.93C19.1562 130.93 18.8203 130.945 18.3984 130.977C17.9766 130.992 17.5781 131.008 17.2031 131.023C16.8438 131.055 16.6172 131.078 16.5234 131.094ZM35.2969 131.164C34.3125 131.164 33.4141 130.93 32.6016 130.461C31.8047 129.977 31.1641 129.336 30.6797 128.539C30.2109 127.742 29.9766 126.859 29.9766 125.891C29.9766 124.906 30.2109 124.023 30.6797 123.242C31.1484 122.445 31.7812 121.812 32.5781 121.344C33.3906 120.875 34.2891 120.641 35.2734 120.641C36.2578 120.641 37.1484 120.875 37.9453 121.344C38.7578 121.812 39.3984 122.445 39.8672 123.242C40.3516 124.039 40.5938 124.922 40.5938 125.891C40.5938 126.859 40.3594 127.742 39.8906 128.539C39.4219 129.336 38.7891 129.977 37.9922 130.461C37.1953 130.93 36.2969 131.164 35.2969 131.164ZM35.5312 130.062C36.0312 130.062 36.4531 129.898 36.7969 129.57C37.1406 129.242 37.4062 128.805 37.5938 128.258C37.7812 127.695 37.875 127.094 37.875 126.453C37.875 125.609 37.7578 124.836 37.5234 124.133C37.3047 123.414 36.9766 122.836 36.5391 122.398C36.1172 121.961 35.5938 121.742 34.9688 121.742C34.4844 121.742 34.0625 121.906 33.7031 122.234C33.3594 122.562 33.0938 123 32.9062 123.547C32.7344 124.094 32.6484 124.695 32.6484 125.352C32.6484 126.195 32.7578 126.977 32.9766 127.695C33.2109 128.398 33.5469 128.969 33.9844 129.406C34.4219 129.844 34.9375 130.062 35.5312 130.062ZM46.8047 131.141C45.8984 131.141 45.0625 130.914 44.2969 130.461C43.5469 129.992 42.9453 129.367 42.4922 128.586C42.0391 127.789 41.8125 126.914 41.8125 125.961C41.8125 124.898 42.0234 123.969 42.4453 123.172C42.8672 122.375 43.4375 121.758 44.1562 121.32C44.8906 120.867 45.7266 120.641 46.6641 120.641C47.4297 120.641 48.0859 120.781 48.6328 121.062C49.1797 121.344 49.625 121.711 49.9688 122.164C50.3281 122.602 50.5859 123.07 50.7422 123.57C50.9141 124.055 51 124.508 51 124.93C51 125.273 50.9375 125.492 50.8125 125.586C50.7031 125.664 50.4688 125.703 50.1094 125.703H44.5078C44.3984 125.703 44.3438 125.75 44.3438 125.844C44.3438 126.422 44.4453 126.969 44.6484 127.484C44.8516 128.016 45.1953 128.477 45.6797 128.867C46.1797 129.258 46.7734 129.453 47.4609 129.453C47.8672 129.453 48.2031 129.422 48.4688 129.359C48.7344 129.297 48.9922 129.227 49.2422 129.148C49.3672 129.102 49.5234 129.023 49.7109 128.914C49.8984 128.789 50.0703 128.68 50.2266 128.586C50.3828 128.477 50.4609 128.422 50.4609 128.422C50.4922 128.438 50.5312 128.484 50.5781 128.562C50.625 128.641 50.6484 128.719 50.6484 128.797C50.6484 128.969 50.6016 129.117 50.5078 129.242C50.3516 129.523 50.0859 129.812 49.7109 130.109C49.3516 130.391 48.9219 130.633 48.4219 130.836C47.9219 131.039 47.3828 131.141 46.8047 131.141ZM44.5078 124.578H48.3047C48.4453 124.578 48.5156 124.461 48.5156 124.227C48.5156 123.852 48.4297 123.477 48.2578 123.102C48.1016 122.711 47.8672 122.383 47.5547 122.117C47.2578 121.852 46.9062 121.719 46.5 121.719C46.0156 121.719 45.6094 121.883 45.2812 122.211C44.9688 122.539 44.7344 122.914 44.5781 123.336C44.4375 123.758 44.3672 124.117 44.3672 124.414C44.3672 124.523 44.4141 124.578 44.5078 124.578ZM52.1953 131.094C52.1328 131.031 52.1016 130.883 52.1016 130.648C52.1016 130.414 52.1328 130.297 52.1953 130.297C52.3203 130.297 52.4922 130.273 52.7109 130.227C52.9453 130.164 53.1562 130.094 53.3438 130.016C53.5469 129.922 53.6562 129.844 53.6719 129.781C53.7812 129.344 53.8359 128.773 53.8359 128.07V124.25C53.8359 123.547 53.7109 123.047 53.4609 122.75C53.3203 122.578 53.1406 122.469 52.9219 122.422C52.7188 122.359 52.5391 122.32 52.3828 122.305C52.2266 122.273 52.1484 122.234 52.1484 122.188C52.1484 121.75 52.1875 121.516 52.2656 121.484C52.625 121.453 53.1484 121.375 53.8359 121.25C54.5391 121.125 55.1953 120.984 55.8047 120.828C55.8359 120.812 55.9062 120.797 56.0156 120.781C56.1406 120.75 56.2109 120.734 56.2266 120.734C56.2891 120.734 56.3438 120.789 56.3906 120.898C56.4375 121.008 56.4609 121.094 56.4609 121.156C56.4297 121.375 56.4062 121.555 56.3906 121.695C56.375 121.836 56.3672 121.938 56.3672 122C56.3672 122.078 56.3828 122.117 56.4141 122.117C56.4297 122.117 56.4609 122.094 56.5078 122.047C56.8828 121.672 57.3594 121.344 57.9375 121.062C58.5312 120.781 59.1328 120.641 59.7422 120.641C61.7578 120.641 62.7656 122.242 62.7656 125.445V127.672C62.7656 128.656 62.8203 129.359 62.9297 129.781C62.9609 129.844 63.0703 129.922 63.2578 130.016C63.4609 130.094 63.6719 130.164 63.8906 130.227C64.125 130.273 64.2891 130.297 64.3828 130.297C64.4297 130.297 64.4531 130.414 64.4531 130.648C64.4688 130.867 64.4609 131.016 64.4297 131.094C64.3672 131.078 64.1484 131.055 63.7734 131.023C63.4141 131.008 63.0156 130.992 62.5781 130.977C62.1562 130.945 61.8203 130.93 61.5703 130.93C61.3203 130.93 60.9922 130.945 60.5859 130.977C60.1953 130.992 59.8203 131.008 59.4609 131.023C59.1172 131.055 58.8984 131.078 58.8047 131.094C58.7422 131.031 58.7109 130.883 58.7109 130.648C58.7109 130.414 58.7422 130.297 58.8047 130.297C58.9297 130.297 59.0938 130.273 59.2969 130.227C59.5 130.164 59.6875 130.094 59.8594 130.016C60.0469 129.922 60.1484 129.844 60.1641 129.781C60.2266 129.547 60.2734 129.289 60.3047 129.008C60.3359 128.727 60.3516 128.414 60.3516 128.07V125.844C60.3516 124.547 60.1719 123.641 59.8125 123.125C59.4688 122.609 58.9141 122.352 58.1484 122.352C57.6484 122.352 57.2109 122.492 56.8359 122.773C56.4609 123.039 56.2734 123.328 56.2734 123.641V127.672C56.2734 128.656 56.3281 129.359 56.4375 129.781C56.4688 129.844 56.5781 129.922 56.7656 130.016C56.9531 130.094 57.1562 130.164 57.375 130.227C57.5938 130.273 57.7422 130.297 57.8203 130.297C57.8828 130.297 57.9141 130.414 57.9141 130.648C57.9297 130.867 57.9219 131.016 57.8906 131.094C57.8125 131.078 57.5859 131.055 57.2109 131.023C56.8516 131.008 56.4688 130.992 56.0625 130.977C55.6562 130.945 55.3281 130.93 55.0781 130.93C54.8281 130.93 54.4922 130.945 54.0703 130.977C53.6484 130.992 53.25 131.008 52.875 131.023C52.5156 131.055 52.2891 131.078 52.1953 131.094ZM65.7656 131.07C65.7031 131.008 65.6719 130.859 65.6719 130.625C65.6719 130.406 65.7031 130.297 65.7656 130.297C65.8906 130.297 66.0547 130.266 66.2578 130.203C66.4609 130.141 66.6484 130.062 66.8203 129.969C67.0078 129.875 67.1094 129.797 67.125 129.734C67.1875 129.469 67.2344 129.188 67.2656 128.891C67.2969 128.594 67.3125 128.297 67.3125 128V124.227C67.3125 123.492 67.1875 122.992 66.9375 122.727C66.7969 122.555 66.6172 122.438 66.3984 122.375C66.1953 122.312 66.0078 122.273 65.8359 122.258C65.6797 122.242 65.6016 122.219 65.6016 122.188C65.6016 121.719 65.6406 121.484 65.7188 121.484C66.2188 121.422 66.7656 121.336 67.3594 121.227C67.9688 121.102 68.5156 120.984 69 120.875L69.75 120.688C69.8594 120.688 69.9141 120.844 69.9141 121.156C69.9141 121.359 69.8828 121.656 69.8203 122.047C69.7734 122.422 69.75 122.797 69.75 123.172V127.625C69.75 128.609 69.8047 129.312 69.9141 129.734C69.9453 129.797 70.0469 129.875 70.2188 129.969C70.3906 130.062 70.5781 130.141 70.7812 130.203C70.9844 130.266 71.125 130.297 71.2031 130.297C71.25 130.297 71.2734 130.406 71.2734 130.625C71.2891 130.844 71.2812 130.992 71.25 131.07C70.7656 131.039 70.2734 131.008 69.7734 130.977C69.2734 130.945 68.8594 130.93 68.5312 130.93C68.0469 130.93 67.5469 130.945 67.0312 130.977C66.5312 131.008 66.1094 131.039 65.7656 131.07ZM68.3438 118.25C67.9531 118.25 67.6172 118.109 67.3359 117.828C67.0547 117.547 66.9141 117.211 66.9141 116.82C66.9141 116.43 67.0547 116.102 67.3359 115.836C67.6172 115.555 67.9531 115.414 68.3438 115.414C68.7344 115.414 69.0625 115.555 69.3281 115.836C69.6094 116.102 69.75 116.43 69.75 116.82C69.75 117.211 69.6094 117.547 69.3281 117.828C69.0625 118.109 68.7344 118.25 68.3438 118.25ZM72.5156 131.094C72.5 131.031 72.4844 130.969 72.4688 130.906C72.4688 130.828 72.4688 130.758 72.4688 130.695C72.4688 130.43 72.5 130.297 72.5625 130.297C73.5781 130.125 74.2578 129.828 74.6016 129.406L76.9453 126.547C77.0859 126.359 77.1562 126.242 77.1562 126.195C77.1562 126.133 77.1328 126.07 77.0859 126.008L74.3906 122.352C74.2188 122.117 73.9453 121.922 73.5703 121.766C73.1953 121.594 72.875 121.508 72.6094 121.508C72.5469 121.508 72.5156 121.375 72.5156 121.109C72.5156 120.938 72.5469 120.812 72.6094 120.734L75.375 120.875L78.1875 120.734C78.2188 120.828 78.2344 120.938 78.2344 121.062C78.2344 121.344 78.2031 121.484 78.1406 121.484C77.9375 121.484 77.7188 121.523 77.4844 121.602C77.2656 121.68 77.1562 121.805 77.1562 121.977C77.1562 122.039 77.1953 122.133 77.2734 122.258L78.75 124.344C79.2031 123.703 79.5703 123.195 79.8516 122.82C80.1484 122.445 80.2969 122.156 80.2969 121.953C80.2969 121.797 80.1953 121.688 79.9922 121.625C79.7891 121.562 79.5781 121.531 79.3594 121.531C79.1406 121.516 79 121.5 78.9375 121.484C78.875 121.469 78.8438 121.344 78.8438 121.109C78.8438 120.922 78.875 120.797 78.9375 120.734L81.6562 120.875L84.0938 120.734C84.1094 120.797 84.1172 120.859 84.1172 120.922C84.1328 120.969 84.1406 121.031 84.1406 121.109C84.1406 121.359 84.125 121.484 84.0938 121.484C83.0312 121.609 82.3438 121.859 82.0312 122.234L79.7109 124.953C79.6016 125.062 79.5391 125.148 79.5234 125.211C79.5078 125.258 79.5 125.305 79.5 125.352C79.5 125.398 79.5312 125.469 79.5938 125.562L82.2422 129.195C82.7109 129.836 83.3594 130.219 84.1875 130.344C84.2344 130.344 84.2578 130.477 84.2578 130.742C84.2578 130.898 84.2266 131.016 84.1641 131.094C83.7734 131.062 83.4375 131.031 83.1562 131C82.8906 130.984 82.6328 130.969 82.3828 130.953C82.1484 130.938 81.8594 130.93 81.5156 130.93C80.9531 130.93 80.4531 130.953 80.0156 131C79.5781 131.031 79.1094 131.062 78.6094 131.094C78.5938 131.047 78.5781 130.992 78.5625 130.93C78.5625 130.867 78.5625 130.789 78.5625 130.695C78.5625 130.43 78.5859 130.297 78.6328 130.297C78.8516 130.297 79.0781 130.242 79.3125 130.133C79.5469 130.023 79.6641 129.898 79.6641 129.758C79.6641 129.711 79.6406 129.664 79.5938 129.617C79.5625 129.555 79.5312 129.492 79.5 129.43L77.9297 127.25L76.4531 129.312C76.3438 129.438 76.2891 129.578 76.2891 129.734C76.2891 129.922 76.4062 130.047 76.6406 130.109C76.8594 130.172 77.0781 130.219 77.2969 130.25C77.5156 130.281 77.6406 130.297 77.6719 130.297C77.7188 130.297 77.7422 130.43 77.7422 130.695C77.7422 130.898 77.7109 131.031 77.6484 131.094C77.2578 131.062 76.9375 131.031 76.6875 131C76.4375 130.984 76.1953 130.969 75.9609 130.953C75.7266 130.938 75.4375 130.93 75.0938 130.93C74.6094 130.93 74.1641 130.953 73.7578 131C73.3672 131.031 72.9531 131.062 72.5156 131.094Z" fill="white"/>
</svg>
