<svg width="110" height="146" viewBox="0 0 110 146" fill="none" xmlns="http://www.w3.org/2000/svg">
<path d="M71.6683 84.5556C73.4461 86.3333 75.8572 87.3333 78.3739 87.3333H81.3905C85.2238 87.3333 88.335 84.2222 88.335 80.3889V79C88.335 76.7899 87.457 74.6702 85.8942 73.1074C84.3314 71.5446 82.2118 70.6667 80.0016 70.6667C77.7915 70.6667 75.6719 69.7887 74.1091 68.2259C72.5463 66.6631 71.6683 64.5435 71.6683 62.3333V60.9444C71.6683 57.1111 74.7794 54 78.6127 54H81.6294C84.1461 54 86.5572 55 88.335 56.7778M38.335 54H60.5572M49.4461 54V87.3333" stroke="white" stroke-width="8" stroke-linecap="round" stroke-linejoin="round"/>
<path d="M105 92.8889V15.1111C105 12.1643 103.829 9.33811 101.746 7.25437C99.6619 5.17063 96.8357 4 93.8889 4H16.1111C13.1643 4 10.3381 5.17063 8.25437 7.25437C6.17063 9.33811 5 12.1643 5 15.1111V92.8889C5 95.8357 6.17063 98.6619 8.25437 100.746C10.3381 102.829 13.1643 104 16.1111 104H93.8889C96.8357 104 99.6619 102.829 101.746 100.746C103.829 98.6619 105 95.8357 105 92.8889Z" stroke="white" stroke-width="8" stroke-linecap="round" stroke-linejoin="round"/>
<path d="M4.6875 138.094C4.625 138.031 4.59375 137.906 4.59375 137.719C4.59375 137.438 4.625 137.297 4.6875 137.297C4.8125 137.297 4.99219 137.273 5.22656 137.227C5.46094 137.18 5.67969 137.117 5.88281 137.039C6.08594 136.945 6.20312 136.859 6.23438 136.781C6.35938 136.328 6.42188 135.68 6.42188 134.836V126.352C6.42188 125.039 6.35156 124.281 6.21094 124.078C6.08594 123.812 5.34375 123.68 3.98438 123.68C3.21875 123.68 2.65625 123.836 2.29688 124.148C1.9375 124.445 1.64062 125.016 1.40625 125.859C1.39062 125.953 1.3125 126 1.17188 126C0.890625 126 0.6875 125.938 0.5625 125.812L1.00781 122.25C1.35156 122.328 1.65625 122.391 1.92188 122.438C2.1875 122.469 2.42188 122.484 2.625 122.484C4.03125 122.516 5.15625 122.547 6 122.578C6.85938 122.594 7.52344 122.609 7.99219 122.625C8.47656 122.625 8.83594 122.625 9.07031 122.625C9.30469 122.625 9.49219 122.625 9.63281 122.625C9.78906 122.609 9.96875 122.602 10.1719 122.602C10.375 122.586 10.6875 122.57 11.1094 122.555C11.5312 122.523 12.1328 122.5 12.9141 122.484C13.1172 122.484 13.3516 122.469 13.6172 122.438C13.8828 122.391 14.1875 122.328 14.5312 122.25L14.9766 125.836C14.8672 125.945 14.6562 126 14.3438 126C14.2188 126 14.1406 125.961 14.1094 125.883C13.8906 125.023 13.6016 124.445 13.2422 124.148C12.8828 123.836 12.3203 123.68 11.5547 123.68C10.1172 123.68 9.35938 123.812 9.28125 124.078C9.14062 124.516 9.07031 125.25 9.07031 126.281V134.742C9.07031 135.586 9.14062 136.266 9.28125 136.781C9.29688 136.844 9.39844 136.922 9.58594 137.016C9.78906 137.094 10.0078 137.164 10.2422 137.227C10.4766 137.273 10.6406 137.297 10.7344 137.297C10.7969 137.297 10.8281 137.438 10.8281 137.719C10.8281 137.797 10.8203 137.867 10.8047 137.93C10.8047 137.992 10.7969 138.047 10.7812 138.094C10.2031 138.047 9.67188 138.008 9.1875 137.977C8.70312 137.945 8.24219 137.93 7.80469 137.93C7.52344 137.93 7.15625 137.945 6.70312 137.977C6.26562 137.992 5.85156 138.008 5.46094 138.023C5.07031 138.055 4.8125 138.078 4.6875 138.094ZM17.9297 143.203C17.5234 143.203 17.2109 143.094 16.9922 142.875C16.7734 142.656 16.6641 142.406 16.6641 142.125C16.6641 141.719 16.8125 141.414 17.1094 141.211C18.7344 141.211 19.8047 140.57 20.3203 139.289L20.9531 137.695L17.4609 129.562C17.3047 129.203 17.0781 128.938 16.7812 128.766C16.4844 128.578 16.1562 128.484 15.7969 128.484C15.7344 128.484 15.7031 128.375 15.7031 128.156C15.7031 127.891 15.7266 127.75 15.7734 127.734L17.0391 127.805C17.7734 127.852 18.3281 127.875 18.7031 127.875C19.0625 127.875 19.5547 127.852 20.1797 127.805C20.8203 127.758 21.2188 127.734 21.375 127.734C21.3906 127.797 21.3984 127.867 21.3984 127.945C21.4141 128.008 21.4219 128.078 21.4219 128.156C21.4219 128.375 21.3906 128.484 21.3281 128.484C21.2344 128.484 21.0859 128.516 20.8828 128.578C20.6797 128.625 20.4922 128.695 20.3203 128.789C20.1484 128.867 20.0625 128.953 20.0625 129.047V129.188C20.0625 129.312 20.2422 129.82 20.6016 130.711C20.9766 131.602 21.5234 132.875 22.2422 134.531L23.1562 132.211L24 130.055C24.0938 129.789 24.1406 129.547 24.1406 129.328C24.1406 129.125 24.0156 128.938 23.7656 128.766C23.5156 128.578 23.1406 128.484 22.6406 128.484C22.5781 128.484 22.5469 128.367 22.5469 128.133C22.5469 127.93 22.5781 127.797 22.6406 127.734C22.8281 127.734 23.2109 127.758 23.7891 127.805C24.3828 127.852 24.8594 127.875 25.2188 127.875C25.5469 127.875 25.9531 127.852 26.4375 127.805C26.9062 127.758 27.25 127.734 27.4688 127.734C27.5312 127.812 27.5625 127.938 27.5625 128.109C27.5625 128.359 27.5312 128.484 27.4688 128.484C27.3281 128.484 27.1328 128.523 26.8828 128.602C26.6328 128.664 26.3984 128.766 26.1797 128.906C25.9609 129.031 25.8047 129.203 25.7109 129.422L21.4219 139.781C20.4844 142.062 19.3203 143.203 17.9297 143.203ZM28.2188 143.203C28.1719 143.125 28.1484 142.984 28.1484 142.781C28.1484 142.547 28.1719 142.43 28.2188 142.43C28.3438 142.43 28.5156 142.398 28.7344 142.336C28.9688 142.289 29.1797 142.219 29.3672 142.125C29.5703 142.047 29.6875 141.969 29.7188 141.891C29.8125 141.438 29.8594 140.875 29.8594 140.203V131.25C29.8594 130.484 29.7344 129.977 29.4844 129.727C29.3438 129.555 29.1719 129.438 28.9688 129.375C28.7656 129.312 28.5781 129.273 28.4062 129.258C28.25 129.242 28.1719 129.219 28.1719 129.188C28.1719 128.734 28.2188 128.5 28.3125 128.484C28.9531 128.422 29.5625 128.336 30.1406 128.227C30.7344 128.117 31.2891 127.984 31.8047 127.828L32.25 127.711C32.3125 127.711 32.3438 127.844 32.3438 128.109C32.3438 128.188 32.3359 128.258 32.3203 128.32C32.3203 128.367 32.3125 128.422 32.2969 128.484C32.5469 128.297 32.8906 128.117 33.3281 127.945C33.7812 127.758 34.2031 127.664 34.5938 127.664C35.5469 127.664 36.3984 127.891 37.1484 128.344C37.8984 128.797 38.4844 129.398 38.9062 130.148C39.3438 130.898 39.5625 131.719 39.5625 132.609C39.5625 133.672 39.3125 134.625 38.8125 135.469C38.3125 136.312 37.6406 136.977 36.7969 137.461C35.9688 137.945 35.0547 138.188 34.0547 138.188C33.6328 138.188 33.0781 138.078 32.3906 137.859C32.3281 137.859 32.2969 137.969 32.2969 138.188V139.781C32.2969 140.719 32.3594 141.422 32.4844 141.891C32.5 141.969 32.6016 142.047 32.7891 142.125C32.9922 142.219 33.2031 142.289 33.4219 142.336C33.6562 142.398 33.8203 142.43 33.9141 142.43C33.9609 142.43 33.9844 142.539 33.9844 142.758C34 142.992 34 143.141 33.9844 143.203L32.7422 143.133C32.0234 143.086 31.4844 143.062 31.125 143.062C30.7344 143.062 30.1875 143.086 29.4844 143.133L28.2188 143.203ZM34.2891 137.062C35.0078 137.062 35.6094 136.734 36.0938 136.078C36.5938 135.422 36.8438 134.5 36.8438 133.312C36.8438 132.047 36.5938 131 36.0938 130.172C35.5938 129.328 34.9062 128.906 34.0312 128.906C33.5156 128.906 33.0938 129.055 32.7656 129.352C32.4531 129.648 32.2969 130.047 32.2969 130.547V135.375C32.2969 135.891 32.5078 136.305 32.9297 136.617C33.3516 136.914 33.8047 137.062 34.2891 137.062ZM45.7969 138.141C44.8906 138.141 44.0547 137.914 43.2891 137.461C42.5391 136.992 41.9375 136.367 41.4844 135.586C41.0312 134.789 40.8047 133.914 40.8047 132.961C40.8047 131.898 41.0156 130.969 41.4375 130.172C41.8594 129.375 42.4297 128.758 43.1484 128.32C43.8828 127.867 44.7188 127.641 45.6562 127.641C46.4219 127.641 47.0781 127.781 47.625 128.062C48.1719 128.344 48.6172 128.711 48.9609 129.164C49.3203 129.602 49.5781 130.07 49.7344 130.57C49.9062 131.055 49.9922 131.508 49.9922 131.93C49.9922 132.273 49.9297 132.492 49.8047 132.586C49.6953 132.664 49.4609 132.703 49.1016 132.703H43.5C43.3906 132.703 43.3359 132.75 43.3359 132.844C43.3359 133.422 43.4375 133.969 43.6406 134.484C43.8438 135.016 44.1875 135.477 44.6719 135.867C45.1719 136.258 45.7656 136.453 46.4531 136.453C46.8594 136.453 47.1953 136.422 47.4609 136.359C47.7266 136.297 47.9844 136.227 48.2344 136.148C48.3594 136.102 48.5156 136.023 48.7031 135.914C48.8906 135.789 49.0625 135.68 49.2188 135.586C49.375 135.477 49.4531 135.422 49.4531 135.422C49.4844 135.438 49.5234 135.484 49.5703 135.562C49.6172 135.641 49.6406 135.719 49.6406 135.797C49.6406 135.969 49.5938 136.117 49.5 136.242C49.3438 136.523 49.0781 136.812 48.7031 137.109C48.3438 137.391 47.9141 137.633 47.4141 137.836C46.9141 138.039 46.375 138.141 45.7969 138.141ZM43.5 131.578H47.2969C47.4375 131.578 47.5078 131.461 47.5078 131.227C47.5078 130.852 47.4219 130.477 47.25 130.102C47.0938 129.711 46.8594 129.383 46.5469 129.117C46.25 128.852 45.8984 128.719 45.4922 128.719C45.0078 128.719 44.6016 128.883 44.2734 129.211C43.9609 129.539 43.7266 129.914 43.5703 130.336C43.4297 130.758 43.3594 131.117 43.3594 131.414C43.3594 131.523 43.4062 131.578 43.5 131.578ZM56.1328 138.234C55.1641 138.234 53.7266 138.016 51.8203 137.578C51.7266 137.203 51.6328 136.758 51.5391 136.242C51.4609 135.711 51.3906 135.211 51.3281 134.742C51.2812 134.273 51.2578 133.953 51.2578 133.781C51.2891 133.656 51.4141 133.594 51.6328 133.594C52.0391 133.594 52.2656 133.656 52.3125 133.781C52.375 134.062 52.4844 134.375 52.6406 134.719C52.7969 135.047 53.0156 135.398 53.2969 135.773C53.5625 136.164 53.9219 136.484 54.375 136.734C54.8438 136.969 55.3672 137.086 55.9453 137.086C56.6797 137.086 57.2891 136.867 57.7734 136.43C58.2578 135.992 58.5 135.336 58.5 134.461C58.5 133.836 58.3125 133.352 57.9375 133.008C57.5781 132.648 57.1875 132.32 56.7656 132.023C56.6562 131.961 56.4844 131.859 56.25 131.719C56.0156 131.578 55.7812 131.438 55.5469 131.297C55.3281 131.141 55.1562 131.031 55.0312 130.969C54.7344 130.781 54.4844 130.625 54.2812 130.5C54.0938 130.375 53.9141 130.25 53.7422 130.125C53.5703 129.984 53.3594 129.812 53.1094 129.609C52.6094 129.203 52.2188 128.742 51.9375 128.227C51.6719 127.711 51.5391 127.141 51.5391 126.516C51.5391 125.734 51.7656 125.031 52.2188 124.406C52.6875 123.766 53.2891 123.266 54.0234 122.906C54.7578 122.531 55.5312 122.344 56.3438 122.344C56.7812 122.344 57.1641 122.367 57.4922 122.414C57.8203 122.461 58.0703 122.508 58.2422 122.555C58.4141 122.602 58.625 122.656 58.875 122.719C59.125 122.781 59.5234 122.875 60.0703 123C60.2578 124.047 60.3516 125.25 60.3516 126.609C60.3359 126.75 60.2422 126.82 60.0703 126.82C59.6484 126.82 59.4219 126.75 59.3906 126.609C59.3281 126.125 59.1562 125.648 58.875 125.18C58.5938 124.695 58.2266 124.289 57.7734 123.961C57.3359 123.633 56.8359 123.469 56.2734 123.469C55.5547 123.469 55 123.672 54.6094 124.078C54.2344 124.484 54.0469 125.031 54.0469 125.719C54.0469 126.156 54.125 126.5 54.2812 126.75C54.4375 126.984 54.6406 127.242 54.8906 127.523C55.0625 127.711 55.3438 127.945 55.7344 128.227C56.125 128.508 56.5625 128.805 57.0469 129.117C57.5312 129.414 58 129.695 58.4531 129.961C59.3125 130.461 59.9766 131.008 60.4453 131.602C60.9141 132.18 61.1484 132.953 61.1484 133.922C61.1484 134.75 60.9141 135.492 60.4453 136.148C59.9766 136.805 59.3594 137.32 58.5938 137.695C57.8438 138.055 57.0234 138.234 56.1328 138.234ZM67.6406 138.141C66.6875 138.141 65.8281 137.906 65.0625 137.438C64.2969 136.969 63.6875 136.336 63.2344 135.539C62.7812 134.742 62.5547 133.859 62.5547 132.891C62.5547 131.938 62.7656 131.07 63.1875 130.289C63.625 129.492 64.2266 128.852 64.9922 128.367C65.7578 127.883 66.6406 127.641 67.6406 127.641C68.4688 127.641 69.2031 127.781 69.8438 128.062C70.5 128.328 70.9688 128.625 71.25 128.953C71.25 129.484 71.1562 129.93 70.9688 130.289C70.7969 130.633 70.5312 130.805 70.1719 130.805C69.875 130.805 69.6328 130.727 69.4453 130.57C69.2734 130.414 69.0938 130.156 68.9062 129.797C68.5625 129.078 68.0391 128.719 67.3359 128.719C66.6641 128.719 66.125 129.062 65.7188 129.75C65.3281 130.422 65.1328 131.273 65.1328 132.305C65.1328 133.711 65.4219 134.758 66 135.445C66.5781 136.117 67.3125 136.453 68.2031 136.453C68.6094 136.453 68.9453 136.422 69.2109 136.359C69.4766 136.297 69.7344 136.227 69.9844 136.148C70.1094 136.102 70.2656 136.023 70.4531 135.914C70.6406 135.789 70.8125 135.68 70.9688 135.586C71.125 135.477 71.2031 135.422 71.2031 135.422C71.2344 135.438 71.2734 135.484 71.3203 135.562C71.3672 135.641 71.3906 135.719 71.3906 135.797C71.3906 136.094 71.2031 136.43 70.8281 136.805C70.4688 137.164 70 137.477 69.4219 137.742C68.8594 138.008 68.2656 138.141 67.6406 138.141ZM72.9141 138.094C72.8516 138.031 72.8203 137.883 72.8203 137.648C72.8203 137.414 72.8516 137.297 72.9141 137.297C73.0391 137.297 73.2109 137.273 73.4297 137.227C73.6641 137.164 73.875 137.094 74.0625 137.016C74.2656 136.922 74.375 136.844 74.3906 136.781C74.5 136.344 74.5547 135.773 74.5547 135.07V131.25C74.5547 130.5 74.4297 130 74.1797 129.75C74.0391 129.578 73.8672 129.461 73.6641 129.398C73.4609 129.32 73.2734 129.273 73.1016 129.258C72.9453 129.242 72.8672 129.219 72.8672 129.188C72.8672 128.75 72.9062 128.516 72.9844 128.484C73.4375 128.453 73.9297 128.383 74.4609 128.273C75.0078 128.148 75.6406 128.016 76.3594 127.875C76.5938 127.828 76.7422 127.797 76.8047 127.781C76.8828 127.75 76.9297 127.734 76.9453 127.734C77.0078 127.734 77.0625 127.789 77.1094 127.898C77.1562 127.992 77.1797 128.078 77.1797 128.156C77.0859 128.812 77.0391 129.188 77.0391 129.281C77.3203 128.859 77.7031 128.484 78.1875 128.156C78.6719 127.812 79.1641 127.641 79.6641 127.641C80.5234 127.641 81.1641 127.898 81.5859 128.414C81.5859 129.742 81.2109 130.406 80.4609 130.406C80.1953 130.406 79.8906 130.25 79.5469 129.938C79.2031 129.625 78.8672 129.469 78.5391 129.469C78.2109 129.469 77.9297 129.586 77.6953 129.82C77.4609 130.055 77.2812 130.344 77.1562 130.688C77.0469 131.031 76.9922 131.383 76.9922 131.742V134.672C76.9922 135.656 77.0469 136.359 77.1562 136.781C77.1875 136.844 77.2969 136.922 77.4844 137.016C77.6719 137.094 77.875 137.164 78.0938 137.227C78.3125 137.273 78.4688 137.297 78.5625 137.297C78.6094 137.297 78.6328 137.414 78.6328 137.648C78.6484 137.867 78.6484 138.016 78.6328 138.094C78.5547 138.078 78.3281 138.055 77.9531 138.023C77.5938 138.008 77.2031 137.992 76.7812 137.977C76.375 137.945 76.0469 137.93 75.7969 137.93C75.5469 137.93 75.2109 137.945 74.7891 137.977C74.3672 137.992 73.9688 138.008 73.5938 138.023C73.2344 138.055 73.0078 138.078 72.9141 138.094ZM82.875 138.07C82.8125 138.008 82.7812 137.859 82.7812 137.625C82.7812 137.406 82.8125 137.297 82.875 137.297C83 137.297 83.1641 137.266 83.3672 137.203C83.5703 137.141 83.7578 137.062 83.9297 136.969C84.1172 136.875 84.2188 136.797 84.2344 136.734C84.2969 136.469 84.3438 136.188 84.375 135.891C84.4062 135.594 84.4219 135.297 84.4219 135V131.227C84.4219 130.492 84.2969 129.992 84.0469 129.727C83.9062 129.555 83.7266 129.438 83.5078 129.375C83.3047 129.312 83.1172 129.273 82.9453 129.258C82.7891 129.242 82.7109 129.219 82.7109 129.188C82.7109 128.719 82.75 128.484 82.8281 128.484C83.3281 128.422 83.875 128.336 84.4688 128.227C85.0781 128.102 85.625 127.984 86.1094 127.875L86.8594 127.688C86.9688 127.688 87.0234 127.844 87.0234 128.156C87.0234 128.359 86.9922 128.656 86.9297 129.047C86.8828 129.422 86.8594 129.797 86.8594 130.172V134.625C86.8594 135.609 86.9141 136.312 87.0234 136.734C87.0547 136.797 87.1562 136.875 87.3281 136.969C87.5 137.062 87.6875 137.141 87.8906 137.203C88.0938 137.266 88.2344 137.297 88.3125 137.297C88.3594 137.297 88.3828 137.406 88.3828 137.625C88.3984 137.844 88.3906 137.992 88.3594 138.07C87.875 138.039 87.3828 138.008 86.8828 137.977C86.3828 137.945 85.9688 137.93 85.6406 137.93C85.1562 137.93 84.6562 137.945 84.1406 137.977C83.6406 138.008 83.2188 138.039 82.875 138.07ZM85.4531 125.25C85.0625 125.25 84.7266 125.109 84.4453 124.828C84.1641 124.547 84.0234 124.211 84.0234 123.82C84.0234 123.43 84.1641 123.102 84.4453 122.836C84.7266 122.555 85.0625 122.414 85.4531 122.414C85.8438 122.414 86.1719 122.555 86.4375 122.836C86.7188 123.102 86.8594 123.43 86.8594 123.82C86.8594 124.211 86.7188 124.547 86.4375 124.828C86.1719 125.109 85.8438 125.25 85.4531 125.25ZM89.5312 143.203C89.4844 143.125 89.4609 142.984 89.4609 142.781C89.4609 142.547 89.4844 142.43 89.5312 142.43C89.6562 142.43 89.8281 142.398 90.0469 142.336C90.2812 142.289 90.4922 142.219 90.6797 142.125C90.8828 142.047 91 141.969 91.0312 141.891C91.125 141.438 91.1719 140.875 91.1719 140.203V131.25C91.1719 130.484 91.0469 129.977 90.7969 129.727C90.6562 129.555 90.4844 129.438 90.2812 129.375C90.0781 129.312 89.8906 129.273 89.7188 129.258C89.5625 129.242 89.4844 129.219 89.4844 129.188C89.4844 128.734 89.5312 128.5 89.625 128.484C90.2656 128.422 90.875 128.336 91.4531 128.227C92.0469 128.117 92.6016 127.984 93.1172 127.828L93.5625 127.711C93.625 127.711 93.6562 127.844 93.6562 128.109C93.6562 128.188 93.6484 128.258 93.6328 128.32C93.6328 128.367 93.625 128.422 93.6094 128.484C93.8594 128.297 94.2031 128.117 94.6406 127.945C95.0938 127.758 95.5156 127.664 95.9062 127.664C96.8594 127.664 97.7109 127.891 98.4609 128.344C99.2109 128.797 99.7969 129.398 100.219 130.148C100.656 130.898 100.875 131.719 100.875 132.609C100.875 133.672 100.625 134.625 100.125 135.469C99.625 136.312 98.9531 136.977 98.1094 137.461C97.2812 137.945 96.3672 138.188 95.3672 138.188C94.9453 138.188 94.3906 138.078 93.7031 137.859C93.6406 137.859 93.6094 137.969 93.6094 138.188V139.781C93.6094 140.719 93.6719 141.422 93.7969 141.891C93.8125 141.969 93.9141 142.047 94.1016 142.125C94.3047 142.219 94.5156 142.289 94.7344 142.336C94.9688 142.398 95.1328 142.43 95.2266 142.43C95.2734 142.43 95.2969 142.539 95.2969 142.758C95.3125 142.992 95.3125 143.141 95.2969 143.203L94.0547 143.133C93.3359 143.086 92.7969 143.062 92.4375 143.062C92.0469 143.062 91.5 143.086 90.7969 143.133L89.5312 143.203ZM95.6016 137.062C96.3203 137.062 96.9219 136.734 97.4062 136.078C97.9062 135.422 98.1562 134.5 98.1562 133.312C98.1562 132.047 97.9062 131 97.4062 130.172C96.9062 129.328 96.2188 128.906 95.3438 128.906C94.8281 128.906 94.4062 129.055 94.0781 129.352C93.7656 129.648 93.6094 130.047 93.6094 130.547V135.375C93.6094 135.891 93.8203 136.305 94.2422 136.617C94.6641 136.914 95.1172 137.062 95.6016 137.062ZM106.453 138.164C105.641 138.164 104.945 137.906 104.367 137.391C103.805 136.859 103.523 136.047 103.523 134.953V129.281H102.094C101.984 129.281 101.93 129.078 101.93 128.672C101.93 128.547 101.938 128.477 101.953 128.461C102.266 128.32 102.57 128.148 102.867 127.945C103.164 127.727 103.461 127.484 103.758 127.219C104.211 126.766 104.578 126.375 104.859 126.047C105.141 125.703 105.281 125.531 105.281 125.531C105.359 125.531 105.438 125.539 105.516 125.555C105.594 125.555 105.664 125.562 105.727 125.578C105.867 125.625 105.938 125.672 105.938 125.719V128.016H107.648C108.008 128.016 108.281 128.023 108.469 128.039C108.672 128.039 108.781 128.039 108.797 128.039C108.922 128.039 108.984 128.109 108.984 128.25C108.984 128.641 108.906 128.984 108.75 129.281H105.938V134.93C105.938 135.555 106.07 136.031 106.336 136.359C106.602 136.688 106.969 136.852 107.438 136.852C107.766 136.852 108.07 136.789 108.352 136.664C108.633 136.523 108.789 136.453 108.82 136.453C108.883 136.438 108.953 136.508 109.031 136.664C109.109 136.82 109.141 136.922 109.125 136.969C109.062 137.109 108.883 137.273 108.586 137.461C108.305 137.648 107.969 137.812 107.578 137.953C107.203 138.094 106.828 138.164 106.453 138.164Z" fill="white"/>
</svg>
