<svg width="108" height="153" viewBox="0 0 108 153" fill="none" xmlns="http://www.w3.org/2000/svg">
<path d="M89.0647 4C91.204 4.00002 93.3183 4.44285 95.2645 5.29852C97.2108 6.15418 98.9436 7.40272 100.346 8.95962C101.748 10.5165 102.786 12.3454 103.391 14.3226C103.996 16.2998 104.152 18.3791 103.851 20.4197L94.5236 83.6235C94.129 86.2925 92.9642 88.8009 91.1619 90.8631C89.3597 92.9252 86.9926 94.4581 84.3302 95.2871L58.5964 103.303C55.6106 104.232 52.3968 104.232 49.4111 103.303L23.6773 95.2871C21.0149 94.4581 18.6478 92.9252 16.8455 90.8631C15.0433 88.8009 13.8785 86.2925 13.4839 83.6235L4.14921 20.4197C3.84748 18.3785 4.00453 16.2986 4.60971 14.3209C5.21489 12.3432 6.25407 10.5139 7.65689 8.95689C9.05971 7.39987 10.7934 6.15149 12.7405 5.29627C14.6877 4.44106 16.8029 3.99899 18.9428 4H89.0647Z" stroke="white" stroke-width="8" stroke-linecap="round" stroke-linejoin="round"/>
<path d="M76.4089 28.4629H31.6025L34.8062 52.8838H73.2052L71.6071 63.5689L70.009 74.254L54.0057 78.8302L38.0024 74.254L37.3602 71.196" stroke="white" stroke-width="8" stroke-linecap="round" stroke-linejoin="round"/>
<path d="M20.7031 145.07C20.6406 145.008 20.6094 144.898 20.6094 144.742C20.6094 144.445 20.6406 144.297 20.7031 144.297C20.8281 144.297 21.0078 144.273 21.2422 144.227C21.4766 144.18 21.6953 144.117 21.8984 144.039C22.1016 143.945 22.2188 143.859 22.25 143.781C22.3125 143.531 22.3594 143.242 22.3906 142.914C22.4219 142.586 22.4375 142.219 22.4375 141.812V132.766C22.4375 131.859 22.375 131.203 22.25 130.797C22.2188 130.703 22.1016 130.617 21.8984 130.539C21.7109 130.461 21.5 130.398 21.2656 130.352C21.0469 130.289 20.875 130.258 20.75 130.258C20.6875 130.258 20.6562 130.141 20.6562 129.906C20.6562 129.656 20.6719 129.516 20.7031 129.484L22.0156 129.555C22.7969 129.602 23.3984 129.625 23.8203 129.625L26.8203 129.484C26.8672 129.625 26.8906 129.75 26.8906 129.859C26.8906 130.125 26.8594 130.258 26.7969 130.258C26.7031 130.258 26.5391 130.289 26.3047 130.352C26.0703 130.414 25.8438 130.484 25.625 130.562C25.4219 130.641 25.3047 130.719 25.2734 130.797C25.2109 131.047 25.1641 131.344 25.1328 131.688C25.1016 132.016 25.0859 132.406 25.0859 132.859V136.281L25.1328 136.352C25.8984 136.367 26.5469 136.383 27.0781 136.398C27.6094 136.398 28.0234 136.398 28.3203 136.398C28.6484 136.398 29.0703 136.398 29.5859 136.398C30.1016 136.383 30.7109 136.367 31.4141 136.352C31.4453 136.32 31.4609 136.289 31.4609 136.258V132.766C31.4609 131.859 31.3984 131.203 31.2734 130.797C31.2422 130.703 31.125 130.617 30.9219 130.539C30.7344 130.461 30.5234 130.398 30.2891 130.352C30.0703 130.289 29.8984 130.258 29.7734 130.258C29.7109 130.258 29.6797 130.141 29.6797 129.906C29.6797 129.656 29.6953 129.516 29.7266 129.484L31.0391 129.555C31.8203 129.602 32.4219 129.625 32.8438 129.625L35.8438 129.484C35.8906 129.625 35.9141 129.75 35.9141 129.859C35.9141 130.125 35.8828 130.258 35.8203 130.258C35.7266 130.258 35.5625 130.289 35.3281 130.352C35.0938 130.414 34.8672 130.484 34.6484 130.562C34.4453 130.641 34.3281 130.719 34.2969 130.797C34.2344 131.047 34.1875 131.344 34.1562 131.688C34.125 132.016 34.1094 132.406 34.1094 132.859V141.672C34.1094 142.531 34.1797 143.234 34.3203 143.781C34.3516 143.844 34.4609 143.922 34.6484 144.016C34.8516 144.094 35.0625 144.164 35.2812 144.227C35.5156 144.273 35.6797 144.297 35.7734 144.297C35.8359 144.297 35.8672 144.445 35.8672 144.742C35.8672 144.836 35.8516 144.945 35.8203 145.07L32.8438 144.93C32.2969 144.93 31.7344 144.945 31.1562 144.977C30.5781 145.008 30.1016 145.039 29.7266 145.07C29.6641 145.008 29.6328 144.898 29.6328 144.742C29.6328 144.445 29.6641 144.297 29.7266 144.297C29.8516 144.297 30.0312 144.273 30.2656 144.227C30.5 144.18 30.7188 144.117 30.9219 144.039C31.125 143.945 31.2422 143.859 31.2734 143.781C31.3359 143.531 31.3828 143.242 31.4141 142.914C31.4453 142.586 31.4609 142.219 31.4609 141.812V137.781L31.4141 137.688C30.6797 137.672 30.0547 137.664 29.5391 137.664C29.0234 137.648 28.6172 137.641 28.3203 137.641C26.1641 137.656 25.0859 137.695 25.0859 137.758V141.672C25.0859 142.531 25.1562 143.234 25.2969 143.781C25.3281 143.844 25.4375 143.922 25.625 144.016C25.8281 144.094 26.0391 144.164 26.2578 144.227C26.4922 144.273 26.6562 144.297 26.75 144.297C26.8125 144.297 26.8438 144.445 26.8438 144.742C26.8438 144.836 26.8281 144.945 26.7969 145.07L23.8203 144.93C23.2734 144.93 22.7109 144.945 22.1328 144.977C21.5547 145.008 21.0781 145.039 20.7031 145.07ZM41.2812 145.094C41.2188 145.031 41.1875 144.906 41.1875 144.719C41.1875 144.438 41.2188 144.297 41.2812 144.297C41.4062 144.297 41.5859 144.273 41.8203 144.227C42.0547 144.18 42.2734 144.117 42.4766 144.039C42.6797 143.945 42.7969 143.859 42.8281 143.781C42.9531 143.328 43.0156 142.68 43.0156 141.836V133.352C43.0156 132.039 42.9453 131.281 42.8047 131.078C42.6797 130.812 41.9375 130.68 40.5781 130.68C39.8125 130.68 39.25 130.836 38.8906 131.148C38.5312 131.445 38.2344 132.016 38 132.859C37.9844 132.953 37.9062 133 37.7656 133C37.4844 133 37.2812 132.938 37.1562 132.812L37.6016 129.25C37.9453 129.328 38.25 129.391 38.5156 129.438C38.7812 129.469 39.0156 129.484 39.2188 129.484C40.625 129.516 41.75 129.547 42.5938 129.578C43.4531 129.594 44.1172 129.609 44.5859 129.625C45.0703 129.625 45.4297 129.625 45.6641 129.625C45.8984 129.625 46.0859 129.625 46.2266 129.625C46.3828 129.609 46.5625 129.602 46.7656 129.602C46.9688 129.586 47.2812 129.57 47.7031 129.555C48.125 129.523 48.7266 129.5 49.5078 129.484C49.7109 129.484 49.9453 129.469 50.2109 129.438C50.4766 129.391 50.7812 129.328 51.125 129.25L51.5703 132.836C51.4609 132.945 51.25 133 50.9375 133C50.8125 133 50.7344 132.961 50.7031 132.883C50.4844 132.023 50.1953 131.445 49.8359 131.148C49.4766 130.836 48.9141 130.68 48.1484 130.68C46.7109 130.68 45.9531 130.812 45.875 131.078C45.7344 131.516 45.6641 132.25 45.6641 133.281V141.742C45.6641 142.586 45.7344 143.266 45.875 143.781C45.8906 143.844 45.9922 143.922 46.1797 144.016C46.3828 144.094 46.6016 144.164 46.8359 144.227C47.0703 144.273 47.2344 144.297 47.3281 144.297C47.3906 144.297 47.4219 144.438 47.4219 144.719C47.4219 144.797 47.4141 144.867 47.3984 144.93C47.3984 144.992 47.3906 145.047 47.375 145.094C46.7969 145.047 46.2656 145.008 45.7812 144.977C45.2969 144.945 44.8359 144.93 44.3984 144.93C44.1172 144.93 43.75 144.945 43.2969 144.977C42.8594 144.992 42.4453 145.008 42.0547 145.023C41.6641 145.055 41.4062 145.078 41.2812 145.094ZM52.8594 145.07C52.7969 145.008 52.7656 144.883 52.7656 144.695C52.7656 144.43 52.7969 144.297 52.8594 144.297C53.0312 144.297 53.2656 144.266 53.5625 144.203C53.875 144.125 54.1719 144.023 54.4531 143.898C54.7344 143.758 54.8984 143.609 54.9453 143.453C55.1016 143.156 55.1875 142.633 55.2031 141.883C55.25 140.117 55.2969 138.5 55.3438 137.031C55.3906 135.562 55.4297 134.336 55.4609 133.352C55.5078 132.352 55.5312 131.703 55.5312 131.406C55.5312 131.109 55.5078 130.891 55.4609 130.75C55.4297 130.656 55.2891 130.57 55.0391 130.492C54.8047 130.414 54.5469 130.352 54.2656 130.305C54 130.258 53.7969 130.234 53.6562 130.234C53.5938 130.234 53.5625 130.102 53.5625 129.836C53.5625 129.664 53.5938 129.547 53.6562 129.484L54.875 129.555C55.4375 129.602 55.9219 129.625 56.3281 129.625L58.625 129.484C58.8438 130.141 59.1797 131 59.6328 132.062C60.0859 133.125 60.6172 134.359 61.2266 135.766C61.8516 137.172 62.5 138.719 63.1719 140.406C63.1719 140.438 63.1953 140.453 63.2422 140.453C63.2891 140.453 63.3125 140.43 63.3125 140.383C64 138.727 64.6172 137.227 65.1641 135.883C65.7109 134.523 66.1875 133.312 66.5938 132.25L67.4375 129.531C67.9062 129.578 68.5469 129.602 69.3594 129.602C69.6719 129.602 70.0547 129.594 70.5078 129.578C70.9766 129.547 71.5234 129.516 72.1484 129.484C72.1953 129.547 72.2188 129.672 72.2188 129.859C72.2188 130.125 72.1875 130.258 72.125 130.258H72.0781C71.6562 130.258 71.2734 130.383 70.9297 130.633C70.6953 130.789 70.5938 131.211 70.625 131.898C70.6562 132.586 70.6953 133.742 70.7422 135.367C70.8047 136.977 70.875 139.047 70.9531 141.578C70.9844 142.453 71.1094 143.172 71.3281 143.734C71.375 143.828 71.4922 143.922 71.6797 144.016C71.8828 144.094 72.0938 144.164 72.3125 144.227C72.5312 144.273 72.6875 144.297 72.7812 144.297C72.8438 144.297 72.875 144.438 72.875 144.719C72.875 144.828 72.8594 144.945 72.8281 145.07L69.9453 144.93C69.3984 144.93 68.8359 144.945 68.2578 144.977C67.6797 145.008 67.2031 145.039 66.8281 145.07C66.7656 145.008 66.7344 144.891 66.7344 144.719C66.7344 144.438 66.7656 144.297 66.8281 144.297C67 144.297 67.25 144.25 67.5781 144.156C67.9062 144.047 68.125 143.93 68.2344 143.805C68.3906 143.602 68.4688 143.328 68.4688 142.984V141.672L68.2344 134.547C68.1562 133.578 68.0625 133.094 67.9531 133.094C67.9062 133.094 67.8672 133.141 67.8359 133.234L63.3594 144.156C63.0938 144.75 62.7969 145.047 62.4688 145.047C62.4375 145.047 62.3984 145.039 62.3516 145.023C62.3203 145.023 62.2812 145.016 62.2344 145L56.9844 132.391C56.9219 134.328 56.8594 136.172 56.7969 137.922C56.75 139.672 56.6875 141.312 56.6094 142.844C56.6094 143.188 56.6328 143.43 56.6797 143.57C56.7422 143.68 56.9141 143.797 57.1953 143.922C57.4766 144.031 57.7656 144.125 58.0625 144.203C58.375 144.266 58.5938 144.297 58.7188 144.297C58.7812 144.297 58.8125 144.438 58.8125 144.719C58.8125 144.828 58.7969 144.945 58.7656 145.07L55.8125 144.93C55.3906 144.93 54.8359 144.953 54.1484 145C53.4453 145.047 53.0156 145.07 52.8594 145.07ZM74.2578 145.07C74.2109 145.023 74.1875 144.898 74.1875 144.695C74.1875 144.43 74.2109 144.297 74.2578 144.297C74.3984 144.297 74.5781 144.273 74.7969 144.227C75.0312 144.18 75.25 144.117 75.4531 144.039C75.6719 143.961 75.7969 143.875 75.8281 143.781C75.9375 143.469 75.9922 142.758 75.9922 141.648V132.789C75.9922 131.867 75.9297 131.203 75.8047 130.797C75.7734 130.703 75.6562 130.617 75.4531 130.539C75.2656 130.461 75.0547 130.398 74.8203 130.352C74.6016 130.289 74.4297 130.258 74.3047 130.258C74.2422 130.258 74.2109 130.141 74.2109 129.906C74.2109 129.656 74.2266 129.516 74.2578 129.484L75.5703 129.555C75.9609 129.57 76.3047 129.594 76.6016 129.625C76.9141 129.641 77.1719 129.641 77.375 129.625L80.375 129.484C80.4219 129.625 80.4453 129.75 80.4453 129.859C80.4453 130.125 80.4141 130.258 80.3516 130.258C80.2578 130.258 80.0938 130.289 79.8594 130.352C79.625 130.414 79.3984 130.484 79.1797 130.562C78.9766 130.641 78.8594 130.719 78.8281 130.797C78.7656 131.047 78.7188 131.344 78.6875 131.688C78.6562 132.016 78.6406 132.406 78.6406 132.859V141.672C78.6406 142.422 78.7109 143.047 78.8516 143.547C78.9141 143.75 79.4453 143.852 80.4453 143.852H81.3125C82.5469 143.852 83.4766 143.688 84.1016 143.359C84.3516 143.234 84.6328 142.961 84.9453 142.539C85.2578 142.117 85.5 141.641 85.6719 141.109C85.7031 141.016 85.8125 140.969 86 140.969C86.3438 140.969 86.5625 141.016 86.6562 141.109L85.9062 143.195C85.8125 143.445 85.7109 143.766 85.6016 144.156C85.4922 144.531 85.4219 144.836 85.3906 145.07C84.7656 145.07 83.4766 145.047 81.5234 145C80.5391 144.969 79.7031 144.953 79.0156 144.953C78.3281 144.953 77.7812 144.961 77.375 144.977L74.2578 145.07Z" fill="white"/>
</svg>
