<svg width="80" height="142" viewBox="0 0 80 142" fill="none" xmlns="http://www.w3.org/2000/svg">
<path d="M79.9999 69.0584C79.9999 84.6917 64.9762 100 40.2566 100C13.3145 100 0 84.5417 0 65.4585C0 43.7502 19.9769 11.492 41.0625 0.262865C41.3839 0.0950637 41.757 0.00402003 42.1391 0.000130087C42.5212 -0.00375986 42.897 0.0796607 43.2235 0.240866C43.5501 0.402071 43.8141 0.634564 43.9857 0.911795C44.1572 1.18903 44.2292 1.49982 44.1935 1.80869C43.0125 11.4133 46.096 21.0445 52.8885 28.9669C55.5678 32.2794 58.4935 35.1252 61.9376 38.7669C66.7624 43.8794 70.34 46.7085 75.5087 54.7752L75.5857 54.8918C78.4933 59.2401 80.011 64.1109 79.9999 69.0584Z" fill="white"/>
<path d="M11.7031 134.07C11.6562 134.023 11.6328 133.898 11.6328 133.695C11.6328 133.43 11.6562 133.297 11.7031 133.297C11.8438 133.297 12.0234 133.273 12.2422 133.227C12.4766 133.18 12.6953 133.117 12.8984 133.039C13.1172 132.961 13.2422 132.875 13.2734 132.781C13.3828 132.469 13.4375 131.758 13.4375 130.648V121.789C13.4375 120.836 13.3828 120.195 13.2734 119.867C13.2422 119.742 13.125 119.641 12.9219 119.562C12.7344 119.469 12.5156 119.398 12.2656 119.352C12.0312 119.305 11.8359 119.281 11.6797 119.281C11.6172 119.281 11.5859 119.164 11.5859 118.93C11.5859 118.711 11.6172 118.57 11.6797 118.508C12.1953 118.539 12.7109 118.57 13.2266 118.602C13.7422 118.617 14.2656 118.625 14.7969 118.625C15.1406 118.625 15.6172 118.617 16.2266 118.602C16.8359 118.57 17.5703 118.539 18.4297 118.508C20.1641 118.461 21.4766 118.438 22.3672 118.438C22.3984 118.672 22.4453 118.953 22.5078 119.281C22.5703 119.609 22.6484 119.977 22.7422 120.383L23.0469 121.766C22.9688 121.844 22.8047 121.883 22.5547 121.883C22.3828 121.883 22.2734 121.828 22.2266 121.719C21.7109 120.328 20.7109 119.633 19.2266 119.633H18.0078C16.8359 119.633 16.2422 119.734 16.2266 119.938C16.1328 120.375 16.0859 121.008 16.0859 121.836V125.516C16.0859 125.609 16.4297 125.656 17.1172 125.656H18.4297C19.3203 125.656 19.8594 125.617 20.0469 125.539C20.2188 125.461 20.3516 125.188 20.4453 124.719C20.4922 124.516 20.5391 124.32 20.5859 124.133C20.6016 124.023 20.7266 123.969 20.9609 123.969C21.1797 123.969 21.3281 124.008 21.4062 124.086V128.516C21.3438 128.578 21.1953 128.609 20.9609 128.609C20.7578 128.609 20.6328 128.547 20.5859 128.422C20.5234 128.203 20.4688 128.023 20.4219 127.883C20.375 127.727 20.3359 127.594 20.3047 127.484C20.2266 127.312 20.1797 127.219 20.1641 127.203C20.1484 127.172 20.0703 127.109 19.9297 127.016C19.7109 126.891 18.9922 126.828 17.7734 126.828C16.6484 126.828 16.0859 126.891 16.0859 127.016V130.648C16.0859 131.508 16.1562 132.141 16.2969 132.547C16.3594 132.75 16.8906 132.852 17.8906 132.852H18.7578C19.9922 132.852 20.9219 132.688 21.5469 132.359C21.7969 132.234 22.0781 131.961 22.3906 131.539C22.7031 131.117 22.9453 130.641 23.1172 130.109C23.1484 130.016 23.2578 129.969 23.4453 129.969C23.7891 129.969 24.0078 130.016 24.1016 130.109L23.3516 132.195C23.2578 132.445 23.1562 132.766 23.0469 133.156C22.9375 133.531 22.8672 133.836 22.8359 134.07C22.2109 134.07 20.9219 134.047 18.9688 134C17.9844 133.969 17.1484 133.953 16.4609 133.953C15.7734 133.953 15.2266 133.961 14.8203 133.977L11.7031 134.07ZM25.4141 134.07C25.3516 134.008 25.3203 133.859 25.3203 133.625C25.3203 133.406 25.3516 133.297 25.4141 133.297C25.5391 133.297 25.7031 133.266 25.9062 133.203C26.1094 133.141 26.2969 133.062 26.4688 132.969C26.6562 132.875 26.7578 132.797 26.7734 132.734C26.8359 132.469 26.8828 132.188 26.9141 131.891C26.9453 131.594 26.9609 131.297 26.9609 131V121.25C26.9609 120.656 26.9141 120.125 26.8203 119.656C26.7578 119.406 26.3672 119.281 25.6484 119.281H25.4141C25.3203 119.281 25.2734 119.188 25.2734 119C25.2734 118.75 25.3203 118.625 25.4141 118.625C26.2734 118.547 27.0469 118.414 27.7344 118.227C28.4375 118.039 28.9062 117.898 29.1406 117.805L29.3047 117.734H29.3516C29.4141 117.734 29.4766 117.781 29.5391 117.875C29.6172 117.969 29.6641 118.047 29.6797 118.109C29.4922 118.688 29.3984 119.422 29.3984 120.312V130.625C29.3984 131.609 29.4531 132.312 29.5625 132.734C29.5938 132.797 29.6953 132.875 29.8672 132.969C30.0391 133.062 30.2266 133.141 30.4297 133.203C30.6328 133.266 30.7734 133.297 30.8516 133.297C30.8984 133.297 30.9219 133.406 30.9219 133.625C30.9375 133.844 30.9297 133.992 30.8984 134.07C30.4141 134.039 29.9219 134.008 29.4219 133.977C28.9219 133.945 28.5078 133.93 28.1797 133.93C27.6953 133.93 27.1953 133.945 26.6797 133.977C26.1797 134.008 25.7578 134.039 25.4141 134.07ZM32.2344 134.07C32.1719 134.008 32.1406 133.859 32.1406 133.625C32.1406 133.406 32.1719 133.297 32.2344 133.297C32.3594 133.297 32.5234 133.266 32.7266 133.203C32.9297 133.141 33.1172 133.062 33.2891 132.969C33.4766 132.875 33.5781 132.797 33.5938 132.734C33.6562 132.469 33.7031 132.188 33.7344 131.891C33.7656 131.594 33.7812 131.297 33.7812 131V127.227C33.7812 126.492 33.6562 125.992 33.4062 125.727C33.2656 125.555 33.0859 125.438 32.8672 125.375C32.6641 125.312 32.4766 125.273 32.3047 125.258C32.1484 125.242 32.0703 125.219 32.0703 125.188C32.0703 124.719 32.1094 124.484 32.1875 124.484C32.6875 124.422 33.2344 124.336 33.8281 124.227C34.4375 124.102 34.9844 123.984 35.4688 123.875L36.2188 123.688C36.3281 123.688 36.3828 123.844 36.3828 124.156C36.3828 124.359 36.3516 124.656 36.2891 125.047C36.2422 125.422 36.2188 125.797 36.2188 126.172V130.625C36.2188 131.609 36.2734 132.312 36.3828 132.734C36.4141 132.797 36.5156 132.875 36.6875 132.969C36.8594 133.062 37.0469 133.141 37.25 133.203C37.4531 133.266 37.5938 133.297 37.6719 133.297C37.7188 133.297 37.7422 133.406 37.7422 133.625C37.7578 133.844 37.75 133.992 37.7188 134.07C37.2344 134.039 36.7422 134.008 36.2422 133.977C35.7422 133.945 35.3281 133.93 35 133.93C34.5156 133.93 34.0156 133.945 33.5 133.977C33 134.008 32.5781 134.039 32.2344 134.07ZM34.8125 121.25C34.4219 121.25 34.0859 121.109 33.8047 120.828C33.5234 120.547 33.3828 120.211 33.3828 119.82C33.3828 119.43 33.5234 119.102 33.8047 118.836C34.0859 118.555 34.4219 118.414 34.8125 118.414C35.2031 118.414 35.5312 118.555 35.7969 118.836C36.0781 119.102 36.2188 119.43 36.2188 119.82C36.2188 120.211 36.0781 120.547 35.7969 120.828C35.5312 121.109 35.2031 121.25 34.8125 121.25ZM38.9844 134.094C38.9688 134.031 38.9531 133.969 38.9375 133.906C38.9375 133.828 38.9375 133.758 38.9375 133.695C38.9375 133.43 38.9688 133.297 39.0312 133.297C40.0469 133.125 40.7266 132.828 41.0703 132.406L43.4141 129.547C43.5547 129.359 43.625 129.242 43.625 129.195C43.625 129.133 43.6016 129.07 43.5547 129.008L40.8594 125.352C40.6875 125.117 40.4141 124.922 40.0391 124.766C39.6641 124.594 39.3438 124.508 39.0781 124.508C39.0156 124.508 38.9844 124.375 38.9844 124.109C38.9844 123.938 39.0156 123.812 39.0781 123.734L41.8438 123.875L44.6562 123.734C44.6875 123.828 44.7031 123.938 44.7031 124.062C44.7031 124.344 44.6719 124.484 44.6094 124.484C44.4062 124.484 44.1875 124.523 43.9531 124.602C43.7344 124.68 43.625 124.805 43.625 124.977C43.625 125.039 43.6641 125.133 43.7422 125.258L45.2188 127.344C45.6719 126.703 46.0391 126.195 46.3203 125.82C46.6172 125.445 46.7656 125.156 46.7656 124.953C46.7656 124.797 46.6641 124.688 46.4609 124.625C46.2578 124.562 46.0469 124.531 45.8281 124.531C45.6094 124.516 45.4688 124.5 45.4062 124.484C45.3438 124.469 45.3125 124.344 45.3125 124.109C45.3125 123.922 45.3438 123.797 45.4062 123.734L48.125 123.875L50.5625 123.734C50.5781 123.797 50.5859 123.859 50.5859 123.922C50.6016 123.969 50.6094 124.031 50.6094 124.109C50.6094 124.359 50.5938 124.484 50.5625 124.484C49.5 124.609 48.8125 124.859 48.5 125.234L46.1797 127.953C46.0703 128.062 46.0078 128.148 45.9922 128.211C45.9766 128.258 45.9688 128.305 45.9688 128.352C45.9688 128.398 46 128.469 46.0625 128.562L48.7109 132.195C49.1797 132.836 49.8281 133.219 50.6562 133.344C50.7031 133.344 50.7266 133.477 50.7266 133.742C50.7266 133.898 50.6953 134.016 50.6328 134.094C50.2422 134.062 49.9062 134.031 49.625 134C49.3594 133.984 49.1016 133.969 48.8516 133.953C48.6172 133.938 48.3281 133.93 47.9844 133.93C47.4219 133.93 46.9219 133.953 46.4844 134C46.0469 134.031 45.5781 134.062 45.0781 134.094C45.0625 134.047 45.0469 133.992 45.0312 133.93C45.0312 133.867 45.0312 133.789 45.0312 133.695C45.0312 133.43 45.0547 133.297 45.1016 133.297C45.3203 133.297 45.5469 133.242 45.7812 133.133C46.0156 133.023 46.1328 132.898 46.1328 132.758C46.1328 132.711 46.1094 132.664 46.0625 132.617C46.0312 132.555 46 132.492 45.9688 132.43L44.3984 130.25L42.9219 132.312C42.8125 132.438 42.7578 132.578 42.7578 132.734C42.7578 132.922 42.875 133.047 43.1094 133.109C43.3281 133.172 43.5469 133.219 43.7656 133.25C43.9844 133.281 44.1094 133.297 44.1406 133.297C44.1875 133.297 44.2109 133.43 44.2109 133.695C44.2109 133.898 44.1797 134.031 44.1172 134.094C43.7266 134.062 43.4062 134.031 43.1562 134C42.9062 133.984 42.6641 133.969 42.4297 133.953C42.1953 133.938 41.9062 133.93 41.5625 133.93C41.0781 133.93 40.6328 133.953 40.2266 134C39.8359 134.031 39.4219 134.062 38.9844 134.094ZM52.1328 134.07C52.0703 134.008 52.0391 133.859 52.0391 133.625C52.0391 133.406 52.0703 133.297 52.1328 133.297C52.2578 133.297 52.4219 133.266 52.625 133.203C52.8281 133.141 53.0156 133.062 53.1875 132.969C53.375 132.875 53.4766 132.797 53.4922 132.734C53.5547 132.469 53.6016 132.188 53.6328 131.891C53.6641 131.594 53.6797 131.297 53.6797 131V127.227C53.6797 126.492 53.5547 125.992 53.3047 125.727C53.1641 125.555 52.9844 125.438 52.7656 125.375C52.5625 125.312 52.375 125.273 52.2031 125.258C52.0469 125.242 51.9688 125.219 51.9688 125.188C51.9688 124.719 52.0078 124.484 52.0859 124.484C52.5859 124.422 53.1328 124.336 53.7266 124.227C54.3359 124.102 54.8828 123.984 55.3672 123.875L56.1172 123.688C56.2266 123.688 56.2812 123.844 56.2812 124.156C56.2812 124.359 56.25 124.656 56.1875 125.047C56.1406 125.422 56.1172 125.797 56.1172 126.172V130.625C56.1172 131.609 56.1719 132.312 56.2812 132.734C56.3125 132.797 56.4141 132.875 56.5859 132.969C56.7578 133.062 56.9453 133.141 57.1484 133.203C57.3516 133.266 57.4922 133.297 57.5703 133.297C57.6172 133.297 57.6406 133.406 57.6406 133.625C57.6562 133.844 57.6484 133.992 57.6172 134.07C57.1328 134.039 56.6406 134.008 56.1406 133.977C55.6406 133.945 55.2266 133.93 54.8984 133.93C54.4141 133.93 53.9141 133.945 53.3984 133.977C52.8984 134.008 52.4766 134.039 52.1328 134.07ZM54.7109 121.25C54.3203 121.25 53.9844 121.109 53.7031 120.828C53.4219 120.547 53.2812 120.211 53.2812 119.82C53.2812 119.43 53.4219 119.102 53.7031 118.836C53.9844 118.555 54.3203 118.414 54.7109 118.414C55.1016 118.414 55.4297 118.555 55.6953 118.836C55.9766 119.102 56.1172 119.43 56.1172 119.82C56.1172 120.211 55.9766 120.547 55.6953 120.828C55.4297 121.109 55.1016 121.25 54.7109 121.25ZM58.8828 134.094C58.8203 134.031 58.7891 133.883 58.7891 133.648C58.7891 133.414 58.8203 133.297 58.8828 133.297C59.0078 133.297 59.1797 133.273 59.3984 133.227C59.6328 133.164 59.8438 133.094 60.0312 133.016C60.2344 132.922 60.3438 132.844 60.3594 132.781C60.4688 132.344 60.5234 131.773 60.5234 131.07V127.25C60.5234 126.5 60.3984 126 60.1484 125.75C60.0078 125.578 59.8359 125.461 59.6328 125.398C59.4297 125.32 59.2422 125.273 59.0703 125.258C58.9141 125.242 58.8359 125.219 58.8359 125.188C58.8359 124.75 58.875 124.516 58.9531 124.484C59.4062 124.453 59.8984 124.383 60.4297 124.273C60.9766 124.148 61.6094 124.016 62.3281 123.875C62.5625 123.828 62.7109 123.797 62.7734 123.781C62.8516 123.75 62.8984 123.734 62.9141 123.734C62.9766 123.734 63.0312 123.789 63.0781 123.898C63.125 123.992 63.1484 124.078 63.1484 124.156C63.0547 124.812 63.0078 125.188 63.0078 125.281C63.2891 124.859 63.6719 124.484 64.1562 124.156C64.6406 123.812 65.1328 123.641 65.6328 123.641C66.4922 123.641 67.1328 123.898 67.5547 124.414C67.5547 125.742 67.1797 126.406 66.4297 126.406C66.1641 126.406 65.8594 126.25 65.5156 125.938C65.1719 125.625 64.8359 125.469 64.5078 125.469C64.1797 125.469 63.8984 125.586 63.6641 125.82C63.4297 126.055 63.25 126.344 63.125 126.688C63.0156 127.031 62.9609 127.383 62.9609 127.742V130.672C62.9609 131.656 63.0156 132.359 63.125 132.781C63.1562 132.844 63.2656 132.922 63.4531 133.016C63.6406 133.094 63.8438 133.164 64.0625 133.227C64.2812 133.273 64.4375 133.297 64.5312 133.297C64.5781 133.297 64.6016 133.414 64.6016 133.648C64.6172 133.867 64.6172 134.016 64.6016 134.094C64.5234 134.078 64.2969 134.055 63.9219 134.023C63.5625 134.008 63.1719 133.992 62.75 133.977C62.3438 133.945 62.0156 133.93 61.7656 133.93C61.5156 133.93 61.1797 133.945 60.7578 133.977C60.3359 133.992 59.9375 134.008 59.5625 134.023C59.2031 134.055 58.9766 134.078 58.8828 134.094Z" fill="white"/>
</svg>
