<svg width="100" height="149" viewBox="0 0 100 149" fill="none" xmlns="http://www.w3.org/2000/svg">
<path d="M30.2085 36.9624V54.3999C30.2085 59.1707 33.9439 63.0374 38.5627 63.0374C43.1772 63.0374 46.921 59.1707 46.921 54.3999V36.9624M69.7918 36.9624L53.0877 63.0374M53.0877 36.9624L69.7918 63.0374" stroke="white" stroke-width="6" stroke-linecap="round" stroke-linejoin="round"/>
<path d="M80.2085 11.4583H19.7918C15.1895 11.4583 11.4585 15.1892 11.4585 19.7916V80.2083C11.4585 84.8106 15.1895 88.5416 19.7918 88.5416H80.2085C84.8109 88.5416 88.5418 84.8106 88.5418 80.2083V19.7916C88.5418 15.1892 84.8109 11.4583 80.2085 11.4583Z" stroke="white" stroke-width="8" stroke-linecap="round" stroke-linejoin="round"/>
<path d="M19.3906 141.047C17.5156 141.047 16.0391 140.484 14.9609 139.359C13.8828 138.219 13.3438 136.391 13.3438 133.875V128.766C13.3438 127.781 13.2812 127.125 13.1562 126.797C13.125 126.703 13.0078 126.617 12.8047 126.539C12.6172 126.461 12.4062 126.398 12.1719 126.352C11.9531 126.289 11.7812 126.258 11.6562 126.258C11.5938 126.258 11.5625 126.141 11.5625 125.906C11.5625 125.672 11.5859 125.531 11.6328 125.484L14.75 125.625C15.0469 125.625 16.0469 125.578 17.75 125.484C17.7656 125.547 17.7734 125.609 17.7734 125.672C17.7891 125.734 17.7969 125.797 17.7969 125.859C17.7969 126.125 17.7656 126.258 17.7031 126.258C17.6094 126.258 17.4375 126.289 17.1875 126.352C16.9531 126.398 16.7344 126.461 16.5312 126.539C16.3281 126.617 16.2188 126.703 16.2031 126.797C16.1406 127.031 16.0938 127.32 16.0625 127.664C16.0312 128.008 16.0156 128.406 16.0156 128.859V134.25C16.0156 135.859 16.3594 137.148 17.0469 138.117C17.75 139.07 18.7188 139.547 19.9531 139.547C21.1562 139.547 22.1172 139.156 22.8359 138.375C23.5703 137.578 23.9375 136.266 23.9375 134.438V128.719C23.9375 127.766 23.8594 127.141 23.7031 126.844C23.6406 126.75 23.4844 126.656 23.2344 126.562C23 126.469 22.75 126.391 22.4844 126.328C22.2188 126.266 22.0156 126.234 21.875 126.234C21.8125 126.234 21.7734 126.125 21.7578 125.906C21.7578 125.688 21.7812 125.547 21.8281 125.484C22.6719 125.547 23.3359 125.594 23.8203 125.625C24.3203 125.641 24.6406 125.648 24.7812 125.648C24.9844 125.648 25.2109 125.641 25.4609 125.625C25.7266 125.609 26.0234 125.586 26.3516 125.555C26.9922 125.508 27.3906 125.484 27.5469 125.484C27.5625 125.547 27.5703 125.609 27.5703 125.672C27.5859 125.719 27.5938 125.781 27.5938 125.859C27.5938 126.109 27.5625 126.234 27.5 126.234C27.3594 126.234 27.1562 126.266 26.8906 126.328C26.625 126.375 26.3672 126.445 26.1172 126.539C25.8672 126.633 25.6953 126.75 25.6016 126.891C25.4297 127.312 25.3438 127.961 25.3438 128.836V134.344C25.3438 136.781 24.7734 138.523 23.6328 139.57C23.0859 140.086 22.4609 140.461 21.7578 140.695C21.0703 140.93 20.2812 141.047 19.3906 141.047ZM28.8359 141.094C28.7734 140.969 28.7422 140.859 28.7422 140.766C28.7422 140.453 28.7734 140.297 28.8359 140.297C28.9922 140.297 29.2031 140.273 29.4688 140.227C29.75 140.164 30.0234 140.086 30.2891 139.992C30.5703 139.883 30.7734 139.75 30.8984 139.594L35.6797 133.195L32.4688 128.297C31.9062 127.406 31.4375 126.844 31.0625 126.609C30.6875 126.375 30.2578 126.258 29.7734 126.258C29.7266 126.258 29.7031 126.141 29.7031 125.906C29.7031 125.688 29.7266 125.547 29.7734 125.484C30.3828 125.516 30.9375 125.547 31.4375 125.578C31.9531 125.609 32.4453 125.625 32.9141 125.625C33.3359 125.625 34.3984 125.578 36.1016 125.484C36.1172 125.531 36.125 125.672 36.125 125.906C36.125 126.141 36.1016 126.258 36.0547 126.258C35.7891 126.258 35.5 126.312 35.1875 126.422C34.875 126.516 34.7188 126.672 34.7188 126.891C34.7188 127.047 34.7969 127.25 34.9531 127.5L37.6016 131.508L38.375 130.523L39.2891 129.375C39.7891 128.734 40.1719 128.219 40.4375 127.828C40.7031 127.422 40.8359 127.141 40.8359 126.984C40.8359 126.812 40.6562 126.648 40.2969 126.492C39.9531 126.336 39.5703 126.258 39.1484 126.258C39.0859 126.258 39.0469 126.148 39.0312 125.93C39.0312 125.695 39.0625 125.547 39.125 125.484C40.7188 125.578 41.6953 125.625 42.0547 125.625C42.2734 125.625 43.2344 125.578 44.9375 125.484C44.9688 125.578 44.9844 125.719 44.9844 125.906C44.9844 126.141 44.9609 126.258 44.9141 126.258C44.7578 126.258 44.5312 126.289 44.2344 126.352C43.9375 126.398 43.6484 126.484 43.3672 126.609C43.0859 126.719 42.875 126.867 42.7344 127.055L38.3281 132.633L42.8047 139.336C43.0547 139.664 43.3906 139.906 43.8125 140.062C44.25 140.219 44.6328 140.297 44.9609 140.297C45.0234 140.297 45.0547 140.453 45.0547 140.766C45.0547 140.859 45.0391 140.969 45.0078 141.094C43.3047 141 42.3203 140.953 42.0547 140.953C41.4141 140.953 40.7578 140.969 40.0859 141C39.4297 141.031 38.8984 141.062 38.4922 141.094C38.4297 141.031 38.3984 140.883 38.3984 140.648C38.4141 140.414 38.4531 140.297 38.5156 140.297C38.6562 140.297 38.8281 140.273 39.0312 140.227C39.25 140.164 39.4375 140.086 39.5938 139.992C39.7656 139.883 39.8516 139.766 39.8516 139.641C39.8516 139.547 39.8203 139.461 39.7578 139.383L36.4766 134.391C34.1016 137.562 32.9141 139.297 32.9141 139.594C32.9141 139.766 33.0781 139.922 33.4062 140.062C33.7031 140.219 34.0938 140.297 34.5781 140.297C34.6562 140.297 34.6953 140.445 34.6953 140.742C34.6953 140.883 34.6797 141 34.6484 141.094C33.1328 141 32.1719 140.953 31.7656 140.953C31.5312 140.953 30.5547 141 28.8359 141.094ZM46.7188 141.82C46.6406 141.82 46.5625 141.812 46.4844 141.797C46.4062 141.781 46.3438 141.734 46.2969 141.656L53.2344 123.68C53.3906 123.336 53.7734 123.164 54.3828 123.164C54.6484 123.164 54.875 123.211 55.0625 123.305L48.125 141.281C48.0938 141.391 47.9375 141.508 47.6562 141.633C47.3906 141.758 47.0781 141.82 46.7188 141.82ZM63.9453 141.047C62.0703 141.047 60.5938 140.484 59.5156 139.359C58.4375 138.219 57.8984 136.391 57.8984 133.875V128.766C57.8984 127.781 57.8359 127.125 57.7109 126.797C57.6797 126.703 57.5625 126.617 57.3594 126.539C57.1719 126.461 56.9609 126.398 56.7266 126.352C56.5078 126.289 56.3359 126.258 56.2109 126.258C56.1484 126.258 56.1172 126.141 56.1172 125.906C56.1172 125.672 56.1406 125.531 56.1875 125.484L59.3047 125.625C59.6016 125.625 60.6016 125.578 62.3047 125.484C62.3203 125.547 62.3281 125.609 62.3281 125.672C62.3438 125.734 62.3516 125.797 62.3516 125.859C62.3516 126.125 62.3203 126.258 62.2578 126.258C62.1641 126.258 61.9922 126.289 61.7422 126.352C61.5078 126.398 61.2891 126.461 61.0859 126.539C60.8828 126.617 60.7734 126.703 60.7578 126.797C60.6953 127.031 60.6484 127.32 60.6172 127.664C60.5859 128.008 60.5703 128.406 60.5703 128.859V134.25C60.5703 135.859 60.9141 137.148 61.6016 138.117C62.3047 139.07 63.2734 139.547 64.5078 139.547C65.7109 139.547 66.6719 139.156 67.3906 138.375C68.125 137.578 68.4922 136.266 68.4922 134.438V128.719C68.4922 127.766 68.4141 127.141 68.2578 126.844C68.1953 126.75 68.0391 126.656 67.7891 126.562C67.5547 126.469 67.3047 126.391 67.0391 126.328C66.7734 126.266 66.5703 126.234 66.4297 126.234C66.3672 126.234 66.3281 126.125 66.3125 125.906C66.3125 125.688 66.3359 125.547 66.3828 125.484C67.2266 125.547 67.8906 125.594 68.375 125.625C68.875 125.641 69.1953 125.648 69.3359 125.648C69.5391 125.648 69.7656 125.641 70.0156 125.625C70.2812 125.609 70.5781 125.586 70.9062 125.555C71.5469 125.508 71.9453 125.484 72.1016 125.484C72.1172 125.547 72.125 125.609 72.125 125.672C72.1406 125.719 72.1484 125.781 72.1484 125.859C72.1484 126.109 72.1172 126.234 72.0547 126.234C71.9141 126.234 71.7109 126.266 71.4453 126.328C71.1797 126.375 70.9219 126.445 70.6719 126.539C70.4219 126.633 70.25 126.75 70.1562 126.891C69.9844 127.312 69.8984 127.961 69.8984 128.836V134.344C69.8984 136.781 69.3281 138.523 68.1875 139.57C67.6406 140.086 67.0156 140.461 66.3125 140.695C65.625 140.93 64.8359 141.047 63.9453 141.047ZM73.4375 141.07C73.375 141.008 73.3438 140.898 73.3438 140.742C73.3438 140.445 73.375 140.297 73.4375 140.297C73.5625 140.297 73.7422 140.273 73.9766 140.227C74.2109 140.18 74.4297 140.117 74.6328 140.039C74.8359 139.945 74.9531 139.859 74.9844 139.781C75.0469 139.531 75.0938 139.242 75.125 138.914C75.1562 138.586 75.1719 138.219 75.1719 137.812V128.766C75.1719 127.859 75.1094 127.203 74.9844 126.797C74.9531 126.703 74.8359 126.617 74.6328 126.539C74.4453 126.461 74.2344 126.398 74 126.352C73.7812 126.289 73.6094 126.258 73.4844 126.258C73.4219 126.258 73.3906 126.141 73.3906 125.906C73.3906 125.656 73.4062 125.516 73.4375 125.484L74.75 125.555C75.1406 125.57 75.4844 125.594 75.7812 125.625C76.0938 125.641 76.3516 125.641 76.5547 125.625L79.5547 125.484C79.6016 125.625 79.625 125.75 79.625 125.859C79.625 126.125 79.5938 126.258 79.5312 126.258C79.4375 126.258 79.2734 126.289 79.0391 126.352C78.8047 126.414 78.5781 126.484 78.3594 126.562C78.1562 126.641 78.0391 126.719 78.0078 126.797C77.9453 127.047 77.8984 127.344 77.8672 127.688C77.8359 128.016 77.8203 128.406 77.8203 128.859V137.672C77.8203 138.531 77.8906 139.234 78.0312 139.781C78.0625 139.844 78.1719 139.922 78.3594 140.016C78.5625 140.094 78.7734 140.164 78.9922 140.227C79.2266 140.273 79.3906 140.297 79.4844 140.297C79.5469 140.297 79.5781 140.445 79.5781 140.742C79.5781 140.836 79.5625 140.945 79.5312 141.07L76.5547 140.93C76.0078 140.898 75.4453 140.906 74.8672 140.953C74.2891 141 73.8125 141.039 73.4375 141.07Z" fill="white"/>
</svg>
