<svg width="100" height="149" viewBox="0 0 100 149" fill="none" xmlns="http://www.w3.org/2000/svg">
<path d="M50 40.1737C54.7907 40.1737 58.6977 44.5409 58.6977 50C58.6977 55.1991 54.7907 59.6184 50 59.6184C45.2093 59.6184 41.3023 55.1991 41.3023 50C41.3023 44.5409 45.2093 40.1737 50 40.1737ZM28.4651 91.5929C31.3953 93.5685 37.814 90.553 45.2093 82.7544C42.7907 79.6869 40.4186 76.3595 38.186 72.8761C34.4382 72.4722 30.7121 71.8474 27.0233 71.0044C24.6512 82.1305 25.5349 89.7732 28.4651 91.5929ZM31.7674 61.75L30.4186 59.0984C29.907 60.6062 29.3953 62.1139 29.0698 63.5697C30.3256 63.8816 31.7209 64.1416 33.1628 64.4015L31.7674 61.75ZM62.186 57.7987L65.9535 50L62.186 42.2013C60.7907 39.4458 59.3023 37.0022 57.9535 34.5586C55.4419 34.4027 52.7907 34.4027 50 34.4027C47.2093 34.4027 44.5581 34.4027 42.0465 34.5586C40.6977 37.0022 39.2093 39.4458 37.814 42.2013L34.0465 50L37.814 57.7987C39.2093 60.5542 40.6977 62.9978 42.0465 65.4414C44.5581 65.5973 47.2093 65.5973 50 65.5973C52.7907 65.5973 55.4419 65.5973 57.9535 65.4414C59.3023 62.9978 60.7907 60.5542 62.186 57.7987ZM50 22.8607C49.1163 24.0045 48.186 25.2003 47.2558 26.604H52.7442C51.814 25.2003 50.8837 24.0045 50 22.8607ZM50 77.1393C50.8837 75.9955 51.814 74.7997 52.7442 73.396H47.2558C48.186 74.7997 49.1163 75.9955 50 77.1393ZM71.4884 8.40713C68.6047 6.43147 62.186 9.44695 54.7907 17.2456C57.2093 20.3131 59.5814 23.6405 61.814 27.1239C65.6279 27.5398 69.3953 28.1637 72.9767 28.9956C75.3488 17.8695 74.4651 10.2268 71.4884 8.40713ZM68.2326 38.25L69.5814 40.9016C70.093 39.3938 70.6046 37.8861 70.9302 36.4303C69.6744 36.1184 68.2791 35.8584 66.8372 35.5985L68.2326 38.25ZM74.9767 1.5963C81.814 5.96355 82.5581 17.4536 79.6744 30.8673C91.4884 34.7666 100 41.2135 100 50C100 58.7865 91.4884 65.2334 79.6744 69.1327C82.5581 82.5464 81.814 94.0364 74.9767 98.4037C68.186 102.771 58.9302 97.7798 50 88.2654C41.0698 97.7798 31.814 102.771 24.9767 98.4037C18.186 94.0364 17.4419 82.5464 20.3256 69.1327C8.51163 65.2334 0 58.7865 0 50C0 41.2135 8.51163 34.7666 20.3256 30.8673C17.4419 17.4536 18.186 5.96355 24.9767 1.5963C31.814 -2.77095 41.0698 2.22019 50 11.7346C58.9302 2.22019 68.186 -2.77095 74.9767 1.5963ZM73.6279 50C75.2093 53.8993 76.6046 57.7987 77.7674 61.75C87.5349 58.4745 93.0233 53.7953 93.0233 50C93.0233 46.2046 87.5349 41.5255 77.7674 38.25C76.6046 42.2013 75.2093 46.1007 73.6279 50ZM26.3721 50C24.7907 46.1007 23.3953 42.2013 22.2326 38.25C12.4651 41.5255 6.97674 46.2046 6.97674 50C6.97674 53.7953 12.4651 58.4745 22.2326 61.75C23.3953 57.7987 24.7907 53.8993 26.3721 50ZM68.2326 61.75L66.8372 64.4015C68.2791 64.1416 69.6744 63.8816 70.9302 63.5697C70.6046 62.1139 70.093 60.6062 69.5814 59.0984L68.2326 61.75ZM54.7907 82.7544C62.186 90.553 68.6047 93.5685 71.4884 91.5929C74.4651 89.7732 75.3488 82.1305 72.9767 71.0044C69.3953 71.8363 65.6279 72.4601 61.814 72.8761C59.5814 76.3595 57.2093 79.6869 54.7907 82.7544ZM31.7674 38.25L33.1628 35.5985C31.7209 35.8584 30.3256 36.1184 29.0698 36.4303C29.3953 37.8861 29.907 39.3938 30.4186 40.9016L31.7674 38.25ZM45.2093 17.2456C37.814 9.44695 31.3953 6.43147 28.4651 8.40713C25.5349 10.2268 24.6512 17.8695 27.0233 28.9956C30.7121 28.1526 34.4382 27.5278 38.186 27.1239C40.4186 23.6405 42.7907 20.3131 45.2093 17.2456Z" fill="white"/>
<path d="M37.8359 141.141C36.2109 141.141 34.9297 140.766 33.9922 140.016C33.4453 139.594 32.9375 139.102 32.4688 138.539C32.0156 137.977 31.6172 137.43 31.2734 136.898C30.9297 136.352 30.6484 135.906 30.4297 135.562C30.1484 135.156 29.875 134.789 29.6094 134.461C29.3594 134.133 28.9844 133.969 28.4844 133.969C28.2344 133.969 28.1094 134.102 28.1094 134.367V137.672C28.1094 138.578 28.1719 139.242 28.2969 139.664C28.3281 139.789 28.4609 139.898 28.6953 139.992C28.9453 140.086 29.2109 140.164 29.4922 140.227C29.7734 140.273 29.9844 140.297 30.125 140.297C30.1875 140.297 30.2188 140.43 30.2188 140.695C30.2188 140.836 30.2031 140.969 30.1719 141.094C28.4688 141 27.3594 140.953 26.8438 140.953C26.4219 140.953 25.9453 140.961 25.4141 140.977C24.8984 140.992 24.4844 141.016 24.1719 141.047L23.7031 141.094C23.6562 141.016 23.6328 140.875 23.6328 140.672C23.6328 140.422 23.6562 140.297 23.7031 140.297C23.8438 140.297 24.0312 140.273 24.2656 140.227C24.5 140.18 24.7188 140.117 24.9219 140.039C25.1406 139.961 25.2656 139.875 25.2969 139.781C25.3906 139.5 25.4375 138.789 25.4375 137.648V128.789C25.4375 127.898 25.3906 127.258 25.2969 126.867C25.2656 126.773 25.1406 126.688 24.9219 126.609C24.7188 126.516 24.4922 126.438 24.2422 126.375C24.0078 126.312 23.8281 126.281 23.7031 126.281C23.6406 126.281 23.6094 126.164 23.6094 125.93C23.6094 125.695 23.6406 125.555 23.7031 125.508C25.375 125.555 26.4141 125.578 26.8203 125.578C27.5859 125.562 28.1797 125.555 28.6016 125.555C29.0234 125.555 29.3438 125.555 29.5625 125.555C29.7812 125.539 29.9688 125.531 30.125 125.531C30.9531 125.531 31.7656 125.68 32.5625 125.977C33.3594 126.273 34.0156 126.727 34.5312 127.336C35.0625 127.945 35.3281 128.719 35.3281 129.656C35.3281 130.219 35.2031 130.766 34.9531 131.297C34.7031 131.828 34.3672 132.297 33.9453 132.703C33.5234 133.109 33.0469 133.422 32.5156 133.641C32.3906 133.688 32.3594 133.766 32.4219 133.875C32.8594 134.656 33.2969 135.383 33.7344 136.055C34.1719 136.711 34.6094 137.312 35.0469 137.859C35.5938 138.531 36.1797 139.109 36.8047 139.594C37.4453 140.062 38.0312 140.297 38.5625 140.297C38.625 140.375 38.6562 140.5 38.6562 140.672C38.6562 140.844 38.625 140.984 38.5625 141.094C38.4688 141.109 38.3594 141.117 38.2344 141.117C38.125 141.133 37.9922 141.141 37.8359 141.141ZM29.6094 132.844H30.2188C30.7969 132.844 31.3125 132.57 31.7656 132.023C32.2344 131.477 32.4688 130.766 32.4688 129.891C32.4688 127.766 31.5625 126.703 29.75 126.703C29.0781 126.703 28.625 126.758 28.3906 126.867C28.2031 126.945 28.1094 127.758 28.1094 129.305V132C28.1094 132.344 28.2422 132.57 28.5078 132.68C28.7734 132.789 29.1406 132.844 29.6094 132.844ZM43.4609 141.141C42.5547 141.141 41.7188 140.914 40.9531 140.461C40.2031 139.992 39.6016 139.367 39.1484 138.586C38.6953 137.789 38.4688 136.914 38.4688 135.961C38.4688 134.898 38.6797 133.969 39.1016 133.172C39.5234 132.375 40.0938 131.758 40.8125 131.32C41.5469 130.867 42.3828 130.641 43.3203 130.641C44.0859 130.641 44.7422 130.781 45.2891 131.062C45.8359 131.344 46.2812 131.711 46.625 132.164C46.9844 132.602 47.2422 133.07 47.3984 133.57C47.5703 134.055 47.6562 134.508 47.6562 134.93C47.6562 135.273 47.5938 135.492 47.4688 135.586C47.3594 135.664 47.125 135.703 46.7656 135.703H41.1641C41.0547 135.703 41 135.75 41 135.844C41 136.422 41.1016 136.969 41.3047 137.484C41.5078 138.016 41.8516 138.477 42.3359 138.867C42.8359 139.258 43.4297 139.453 44.1172 139.453C44.5234 139.453 44.8594 139.422 45.125 139.359C45.3906 139.297 45.6484 139.227 45.8984 139.148C46.0234 139.102 46.1797 139.023 46.3672 138.914C46.5547 138.789 46.7266 138.68 46.8828 138.586C47.0391 138.477 47.1172 138.422 47.1172 138.422C47.1484 138.438 47.1875 138.484 47.2344 138.562C47.2812 138.641 47.3047 138.719 47.3047 138.797C47.3047 138.969 47.2578 139.117 47.1641 139.242C47.0078 139.523 46.7422 139.812 46.3672 140.109C46.0078 140.391 45.5781 140.633 45.0781 140.836C44.5781 141.039 44.0391 141.141 43.4609 141.141ZM41.1641 134.578H44.9609C45.1016 134.578 45.1719 134.461 45.1719 134.227C45.1719 133.852 45.0859 133.477 44.9141 133.102C44.7578 132.711 44.5234 132.383 44.2109 132.117C43.9141 131.852 43.5625 131.719 43.1562 131.719C42.6719 131.719 42.2656 131.883 41.9375 132.211C41.625 132.539 41.3906 132.914 41.2344 133.336C41.0938 133.758 41.0234 134.117 41.0234 134.414C41.0234 134.523 41.0703 134.578 41.1641 134.578ZM51.4062 141.164C50.625 141.164 49.9844 140.953 49.4844 140.531C49 140.094 48.7578 139.5 48.7578 138.75C48.7578 138.234 48.9219 137.766 49.25 137.344C49.5938 136.922 50.0703 136.562 50.6797 136.266C50.8984 136.156 51.0938 136.07 51.2656 136.008C51.4531 135.93 51.625 135.859 51.7812 135.797C52.3281 135.625 52.7812 135.484 53.1406 135.375C53.5156 135.266 53.7812 135.188 53.9375 135.141C54.0781 135.062 54.1484 134.938 54.1484 134.766V133.477C54.1484 132.93 54.0234 132.5 53.7734 132.188C53.5234 131.875 53.1875 131.719 52.7656 131.719C52.2969 131.719 51.9297 131.867 51.6641 132.164C51.3984 132.445 51.2656 132.852 51.2656 133.383C51.2656 133.695 51.1484 133.93 50.9141 134.086C50.6797 134.227 50.4141 134.297 50.1172 134.297C49.5391 134.297 49.1328 134.109 48.8984 133.734C48.8984 133.359 49.0391 132.992 49.3203 132.633C49.6016 132.258 49.9688 131.922 50.4219 131.625C50.8906 131.328 51.4062 131.094 51.9688 130.922C52.5312 130.734 53.0938 130.641 53.6562 130.641C54.625 130.641 55.3516 130.898 55.8359 131.414C56.3203 131.914 56.5625 132.781 56.5625 134.016V138.633C56.5625 139.273 56.8203 139.594 57.3359 139.594C57.5703 139.594 57.8359 139.492 58.1328 139.289C58.2266 139.305 58.2734 139.391 58.2734 139.547C58.2734 139.844 58.2266 140.078 58.1328 140.25C57.8984 140.438 57.5859 140.633 57.1953 140.836C56.8047 141.039 56.4297 141.141 56.0703 141.141C55.7109 141.141 55.3594 141.008 55.0156 140.742C54.6719 140.477 54.4453 140.188 54.3359 139.875C54.2109 139.984 54.1172 140.062 54.0547 140.109C53.9922 140.156 53.8906 140.234 53.75 140.344C53.4219 140.562 53.0625 140.758 52.6719 140.93C52.2812 141.086 51.8594 141.164 51.4062 141.164ZM52.6016 139.641C53.0234 139.641 53.3828 139.531 53.6797 139.312C53.9922 139.094 54.1484 138.844 54.1484 138.562V136.172L52.6484 136.688C52.2891 136.844 51.9688 137.031 51.6875 137.25C51.4062 137.469 51.2656 137.781 51.2656 138.188C51.2656 138.688 51.3906 139.055 51.6406 139.289C51.8906 139.523 52.2109 139.641 52.6016 139.641ZM64.3672 141.141C63.4141 141.141 62.5547 140.906 61.7891 140.438C61.0234 139.969 60.4141 139.336 59.9609 138.539C59.5078 137.742 59.2812 136.859 59.2812 135.891C59.2812 134.938 59.4922 134.07 59.9141 133.289C60.3516 132.492 60.9531 131.852 61.7188 131.367C62.4844 130.883 63.3672 130.641 64.3672 130.641C65.1953 130.641 65.9297 130.781 66.5703 131.062C67.2266 131.328 67.6953 131.625 67.9766 131.953C67.9766 132.484 67.8828 132.93 67.6953 133.289C67.5234 133.633 67.2578 133.805 66.8984 133.805C66.6016 133.805 66.3594 133.727 66.1719 133.57C66 133.414 65.8203 133.156 65.6328 132.797C65.2891 132.078 64.7656 131.719 64.0625 131.719C63.3906 131.719 62.8516 132.062 62.4453 132.75C62.0547 133.422 61.8594 134.273 61.8594 135.305C61.8594 136.711 62.1484 137.758 62.7266 138.445C63.3047 139.117 64.0391 139.453 64.9297 139.453C65.3359 139.453 65.6719 139.422 65.9375 139.359C66.2031 139.297 66.4609 139.227 66.7109 139.148C66.8359 139.102 66.9922 139.023 67.1797 138.914C67.3672 138.789 67.5391 138.68 67.6953 138.586C67.8516 138.477 67.9297 138.422 67.9297 138.422C67.9609 138.438 68 138.484 68.0469 138.562C68.0938 138.641 68.1172 138.719 68.1172 138.797C68.1172 139.094 67.9297 139.43 67.5547 139.805C67.1953 140.164 66.7266 140.477 66.1484 140.742C65.5859 141.008 64.9922 141.141 64.3672 141.141ZM73.8125 141.164C73 141.164 72.3047 140.906 71.7266 140.391C71.1641 139.859 70.8828 139.047 70.8828 137.953V132.281H69.4531C69.3438 132.281 69.2891 132.078 69.2891 131.672C69.2891 131.547 69.2969 131.477 69.3125 131.461C69.625 131.32 69.9297 131.148 70.2266 130.945C70.5234 130.727 70.8203 130.484 71.1172 130.219C71.5703 129.766 71.9375 129.375 72.2188 129.047C72.5 128.703 72.6406 128.531 72.6406 128.531C72.7188 128.531 72.7969 128.539 72.875 128.555C72.9531 128.555 73.0234 128.562 73.0859 128.578C73.2266 128.625 73.2969 128.672 73.2969 128.719V131.016H75.0078C75.3672 131.016 75.6406 131.023 75.8281 131.039C76.0312 131.039 76.1406 131.039 76.1562 131.039C76.2812 131.039 76.3438 131.109 76.3438 131.25C76.3438 131.641 76.2656 131.984 76.1094 132.281H73.2969V137.93C73.2969 138.555 73.4297 139.031 73.6953 139.359C73.9609 139.688 74.3281 139.852 74.7969 139.852C75.125 139.852 75.4297 139.789 75.7109 139.664C75.9922 139.523 76.1484 139.453 76.1797 139.453C76.2422 139.438 76.3125 139.508 76.3906 139.664C76.4688 139.82 76.5 139.922 76.4844 139.969C76.4219 140.109 76.2422 140.273 75.9453 140.461C75.6641 140.648 75.3281 140.812 74.9375 140.953C74.5625 141.094 74.1875 141.164 73.8125 141.164Z" fill="white"/>
</svg>
