<svg width="100" height="149" viewBox="0 0 100 149" fill="none" xmlns="http://www.w3.org/2000/svg">
<path d="M0 0H100L94.5425 85.1117L50.0075 100L5.4625 85.1117L0 0ZM10.5323 8.86211L15.0157 78.8373L50.0075 90.5353L84.9893 78.8373L89.4677 8.86211H10.5323ZM17.6052 17.7242H81.4603L80.9235 26.0856L44.6891 41.55H79.9294L77.9214 72.9396L49.9975 82.2758L22.0737 72.9396L21.507 64.104V64.0863L21.1343 57.9272H31.1248L31.433 63.6166L31.6318 66.6741L49.9975 72.8066L68.3682 66.6652L69.412 50.4032H20.6223L20.0954 42.2146L56.7324 26.5863H49.9975L18.9075 26.6395L17.6052 17.7242Z" fill="white"/>
<path d="M39.0391 141.141C38.0078 141.141 37.0391 140.938 36.1328 140.531C35.2422 140.125 34.4531 139.57 33.7656 138.867C33.0781 138.164 32.5391 137.352 32.1484 136.43C31.7734 135.492 31.5859 134.5 31.5859 133.453C31.5859 132.344 31.7812 131.305 32.1719 130.336C32.5625 129.352 33.1094 128.492 33.8125 127.758C34.5156 127.008 35.3359 126.422 36.2734 126C37.2109 125.578 38.2188 125.367 39.2969 125.367C41.0625 125.367 42.9062 125.578 44.8281 126C44.8594 126 44.8828 126.156 44.8984 126.469C44.9297 126.766 44.9531 127.125 44.9688 127.547C44.9844 127.953 45 128.336 45.0156 128.695C45.0312 129.055 45.0391 129.297 45.0391 129.422C45.0391 129.656 44.8516 129.773 44.4766 129.773C44.3672 129.773 44.2578 129.742 44.1484 129.68C44.0859 129.398 43.9688 129.109 43.7969 128.812C43.6406 128.516 43.3984 128.18 43.0703 127.805C42.7422 127.43 42.2578 127.125 41.6172 126.891C40.9766 126.641 40.2344 126.516 39.3906 126.516C38.375 126.516 37.5 126.812 36.7656 127.406C36.0469 127.984 35.4922 128.758 35.1016 129.727C34.7266 130.695 34.5391 131.773 34.5391 132.961C34.5391 134.273 34.75 135.461 35.1719 136.523C35.6094 137.586 36.2422 138.438 37.0703 139.078C37.8984 139.703 38.8906 140.016 40.0469 140.016C41.4219 140.016 42.5234 139.578 43.3516 138.703C43.6016 138.438 43.7891 138.141 43.9141 137.812C44.0547 137.469 44.1641 137.172 44.2422 136.922C44.3203 136.656 44.3906 136.523 44.4531 136.523C45 136.523 45.3047 136.594 45.3672 136.734C45.3672 136.828 45.3281 137.055 45.25 137.414C45.1875 137.758 45.1094 138.141 45.0156 138.562C44.9219 138.969 44.8203 139.328 44.7109 139.641C44.6172 139.953 44.5391 140.125 44.4766 140.156C43.1172 140.812 41.3047 141.141 39.0391 141.141ZM51.6719 141.234C50.7031 141.234 49.2656 141.016 47.3594 140.578C47.2656 140.203 47.1719 139.758 47.0781 139.242C47 138.711 46.9297 138.211 46.8672 137.742C46.8203 137.273 46.7969 136.953 46.7969 136.781C46.8281 136.656 46.9531 136.594 47.1719 136.594C47.5781 136.594 47.8047 136.656 47.8516 136.781C47.9141 137.062 48.0234 137.375 48.1797 137.719C48.3359 138.047 48.5547 138.398 48.8359 138.773C49.1016 139.164 49.4609 139.484 49.9141 139.734C50.3828 139.969 50.9062 140.086 51.4844 140.086C52.2188 140.086 52.8281 139.867 53.3125 139.43C53.7969 138.992 54.0391 138.336 54.0391 137.461C54.0391 136.836 53.8516 136.352 53.4766 136.008C53.1172 135.648 52.7266 135.32 52.3047 135.023C52.1953 134.961 52.0234 134.859 51.7891 134.719C51.5547 134.578 51.3203 134.438 51.0859 134.297C50.8672 134.141 50.6953 134.031 50.5703 133.969C50.2734 133.781 50.0234 133.625 49.8203 133.5C49.6328 133.375 49.4531 133.25 49.2812 133.125C49.1094 132.984 48.8984 132.812 48.6484 132.609C48.1484 132.203 47.7578 131.742 47.4766 131.227C47.2109 130.711 47.0781 130.141 47.0781 129.516C47.0781 128.734 47.3047 128.031 47.7578 127.406C48.2266 126.766 48.8281 126.266 49.5625 125.906C50.2969 125.531 51.0703 125.344 51.8828 125.344C52.3203 125.344 52.7031 125.367 53.0312 125.414C53.3594 125.461 53.6094 125.508 53.7812 125.555C53.9531 125.602 54.1641 125.656 54.4141 125.719C54.6641 125.781 55.0625 125.875 55.6094 126C55.7969 127.047 55.8906 128.25 55.8906 129.609C55.875 129.75 55.7812 129.82 55.6094 129.82C55.1875 129.82 54.9609 129.75 54.9297 129.609C54.8672 129.125 54.6953 128.648 54.4141 128.18C54.1328 127.695 53.7656 127.289 53.3125 126.961C52.875 126.633 52.375 126.469 51.8125 126.469C51.0938 126.469 50.5391 126.672 50.1484 127.078C49.7734 127.484 49.5859 128.031 49.5859 128.719C49.5859 129.156 49.6641 129.5 49.8203 129.75C49.9766 129.984 50.1797 130.242 50.4297 130.523C50.6016 130.711 50.8828 130.945 51.2734 131.227C51.6641 131.508 52.1016 131.805 52.5859 132.117C53.0703 132.414 53.5391 132.695 53.9922 132.961C54.8516 133.461 55.5156 134.008 55.9844 134.602C56.4531 135.18 56.6875 135.953 56.6875 136.922C56.6875 137.75 56.4531 138.492 55.9844 139.148C55.5156 139.805 54.8984 140.32 54.1328 140.695C53.3828 141.055 52.5625 141.234 51.6719 141.234ZM63.2031 141.234C62.2344 141.234 60.7969 141.016 58.8906 140.578C58.7969 140.203 58.7031 139.758 58.6094 139.242C58.5312 138.711 58.4609 138.211 58.3984 137.742C58.3516 137.273 58.3281 136.953 58.3281 136.781C58.3594 136.656 58.4844 136.594 58.7031 136.594C59.1094 136.594 59.3359 136.656 59.3828 136.781C59.4453 137.062 59.5547 137.375 59.7109 137.719C59.8672 138.047 60.0859 138.398 60.3672 138.773C60.6328 139.164 60.9922 139.484 61.4453 139.734C61.9141 139.969 62.4375 140.086 63.0156 140.086C63.75 140.086 64.3594 139.867 64.8438 139.43C65.3281 138.992 65.5703 138.336 65.5703 137.461C65.5703 136.836 65.3828 136.352 65.0078 136.008C64.6484 135.648 64.2578 135.32 63.8359 135.023C63.7266 134.961 63.5547 134.859 63.3203 134.719C63.0859 134.578 62.8516 134.438 62.6172 134.297C62.3984 134.141 62.2266 134.031 62.1016 133.969C61.8047 133.781 61.5547 133.625 61.3516 133.5C61.1641 133.375 60.9844 133.25 60.8125 133.125C60.6406 132.984 60.4297 132.812 60.1797 132.609C59.6797 132.203 59.2891 131.742 59.0078 131.227C58.7422 130.711 58.6094 130.141 58.6094 129.516C58.6094 128.734 58.8359 128.031 59.2891 127.406C59.7578 126.766 60.3594 126.266 61.0938 125.906C61.8281 125.531 62.6016 125.344 63.4141 125.344C63.8516 125.344 64.2344 125.367 64.5625 125.414C64.8906 125.461 65.1406 125.508 65.3125 125.555C65.4844 125.602 65.6953 125.656 65.9453 125.719C66.1953 125.781 66.5938 125.875 67.1406 126C67.3281 127.047 67.4219 128.25 67.4219 129.609C67.4062 129.75 67.3125 129.82 67.1406 129.82C66.7188 129.82 66.4922 129.75 66.4609 129.609C66.3984 129.125 66.2266 128.648 65.9453 128.18C65.6641 127.695 65.2969 127.289 64.8438 126.961C64.4062 126.633 63.9062 126.469 63.3438 126.469C62.625 126.469 62.0703 126.672 61.6797 127.078C61.3047 127.484 61.1172 128.031 61.1172 128.719C61.1172 129.156 61.1953 129.5 61.3516 129.75C61.5078 129.984 61.7109 130.242 61.9609 130.523C62.1328 130.711 62.4141 130.945 62.8047 131.227C63.1953 131.508 63.6328 131.805 64.1172 132.117C64.6016 132.414 65.0703 132.695 65.5234 132.961C66.3828 133.461 67.0469 134.008 67.5156 134.602C67.9844 135.18 68.2188 135.953 68.2188 136.922C68.2188 137.75 67.9844 138.492 67.5156 139.148C67.0469 139.805 66.4297 140.32 65.6641 140.695C64.9141 141.055 64.0938 141.234 63.2031 141.234Z" fill="white"/>
</svg>
