<svg width="100" height="158" viewBox="0 0 100 158" fill="none" xmlns="http://www.w3.org/2000/svg">
<g clip-path="url(#clip0_2013_46)">
<path d="M81.0623 34.8708C78.8206 31.7542 73.654 25.35 65.7248 15.8333C63.1184 12.7067 60.5017 9.58864 57.8748 6.47917L55.8415 4.07917L54.979 3.05833L54.5081 2.50417L54.4165 2.37083L54.3748 2.35L52.3748 0L49.8373 2.03333C43.3407 7.24708 38.099 13.8544 34.4998 21.3667C32.4088 25.5403 30.9444 29.9993 30.154 34.6C29.954 35.6195 29.7859 36.645 29.6498 37.675C28.7735 37.6039 27.8954 37.5581 27.0165 37.5375L26.7706 37.525C23.5641 37.4156 20.3599 37.8007 17.2706 38.6667L15.9498 39.0375L15.2706 40.2292C12.0695 45.8504 10.2794 52.1642 10.054 58.6292C9.74404 66.9396 12.0511 75.1376 16.6498 82.0667C21.1154 88.8384 27.5401 94.0872 35.0665 97.1125L36.0498 97.5083L36.3456 97.6125L36.3581 97.6083C40.2939 99.0335 44.4289 99.8321 48.6123 99.975C49.0873 99.9917 49.5623 100 50.0373 100C55.3172 100.005 60.5448 98.954 65.4123 96.9083L65.4456 96.925L66.7498 96.3208C73.3648 93.2609 79.0214 88.457 83.1123 82.425C87.3185 76.203 89.6881 68.9225 89.9498 61.4167C90.2623 52.4125 87.2706 43.4833 81.0623 34.8708ZM51.5498 62.7667C52.9165 67.95 52.6498 72.9333 50.754 77.5917C46.0248 72.925 42.5581 67.7917 40.4415 62.3208C38.179 56.4708 36.8165 50.9042 36.3831 45.7583C38.3831 46.4125 40.2248 47.2833 41.8623 48.35C46.579 51.4208 49.8373 56.2708 51.5498 62.7667ZM52.4123 87.8583C54.4206 89.3917 56.5373 90.825 58.7165 92.1417C55.5027 93.0181 52.1745 93.4016 48.8456 93.2792C48.3269 93.2607 47.8087 93.2301 47.2915 93.1875C49.1683 91.5839 50.8821 89.7988 52.4081 87.8583H52.4123ZM58.0248 61.0625C55.8748 52.9083 51.6623 46.7417 45.5165 42.7375C42.7039 40.9313 39.6164 39.5944 36.3748 38.7792C36.4588 37.7843 36.5825 36.7933 36.7456 35.8083C37.5208 31.8241 38.7947 27.9533 40.5373 24.2875L40.554 24.2542C41.2915 22.7625 42.1206 21.2583 43.0956 19.65L43.479 19.0167L43.4665 19.0125C45.7366 15.4668 48.4564 12.2302 51.5581 9.38333L52.7581 10.8042C55.5581 14.1208 58.1915 17.2542 60.5831 20.125C65.9623 26.5792 72.9415 35.0542 75.6331 38.7917C80.954 46.1708 83.5206 53.7042 83.2581 61.1875C83.067 66.835 81.4379 72.3403 78.525 77.1824C75.6122 82.0245 71.5119 86.0433 66.6123 88.8583C62.8787 86.9849 59.3357 84.7536 56.0331 82.1958C59.3248 75.6333 59.9998 68.5292 58.029 61.0625H58.0248ZM47.2956 83.55C44.8756 86.6249 41.9267 89.2437 38.5873 91.2833C38.247 91.1615 37.9095 91.0323 37.5748 90.8958L37.304 90.7875C31.105 88.2319 25.8248 83.8596 22.1581 78.2458C18.3855 72.5019 16.4952 65.7257 16.7498 58.8583C16.9092 53.9499 18.1649 49.1393 20.4248 44.7792C21.747 44.4875 23.0804 44.3056 24.4248 44.2333L24.7748 44.225C25.4554 44.2111 26.1192 44.2111 26.7665 44.225C27.7137 44.2722 28.654 44.3694 29.5873 44.5167C29.8915 50.8208 31.4415 57.6208 34.1915 64.7333C36.8456 71.5833 41.2498 77.9083 47.2915 83.5458L47.2956 83.55Z" fill="white"/>
</g>
<path d="M9.70312 150.07C9.65625 150.023 9.63281 149.898 9.63281 149.695C9.63281 149.43 9.65625 149.297 9.70312 149.297C9.84375 149.297 10.0234 149.273 10.2422 149.227C10.4766 149.18 10.6953 149.117 10.8984 149.039C11.1172 148.961 11.2422 148.875 11.2734 148.781C11.3828 148.469 11.4375 147.758 11.4375 146.648V137.789C11.4375 136.836 11.3828 136.195 11.2734 135.867C11.2422 135.742 11.125 135.641 10.9219 135.562C10.7344 135.469 10.5156 135.398 10.2656 135.352C10.0312 135.305 9.83594 135.281 9.67969 135.281C9.61719 135.281 9.58594 135.164 9.58594 134.93C9.58594 134.711 9.61719 134.57 9.67969 134.508C10.1797 134.539 10.6875 134.562 11.2031 134.578C11.7188 134.594 12.2422 134.602 12.7734 134.602C13.5078 134.617 14.75 134.594 16.5 134.531C17.375 134.5 18.1328 134.477 18.7734 134.461C19.4141 134.445 19.9375 134.438 20.3438 134.438C20.375 134.672 20.4219 134.953 20.4844 135.281C20.5469 135.609 20.625 135.977 20.7188 136.383L21.0234 137.766C20.9453 137.844 20.7812 137.883 20.5312 137.883C20.3594 137.883 20.25 137.828 20.2031 137.719C19.6875 136.328 18.6875 135.633 17.2031 135.633H15.9844C14.8125 135.633 14.2188 135.734 14.2031 135.938C14.1719 136.125 14.1406 136.375 14.1094 136.688C14.0938 137 14.0859 137.383 14.0859 137.836V141.516C14.0859 141.609 14.4297 141.656 15.1172 141.656H16.4062C17.2969 141.656 17.8359 141.617 18.0234 141.539C18.1953 141.461 18.3281 141.188 18.4219 140.719C18.4688 140.516 18.5156 140.32 18.5625 140.133C18.5781 140.023 18.7031 139.969 18.9375 139.969C19.1562 139.969 19.3047 140.008 19.3828 140.086V144.516C19.3203 144.578 19.1719 144.609 18.9375 144.609C18.7344 144.609 18.6094 144.547 18.5625 144.422C18.5 144.203 18.4453 144.023 18.3984 143.883C18.3516 143.727 18.3125 143.594 18.2812 143.484C18.2031 143.312 18.1562 143.219 18.1406 143.203C18.125 143.172 18.0469 143.109 17.9062 143.016C17.6875 142.891 16.9688 142.828 15.75 142.828C14.6406 142.828 14.0859 142.891 14.0859 143.016V146.695C14.0859 147.523 14.1719 148.172 14.3438 148.641C14.3906 148.734 14.5391 148.836 14.7891 148.945C15.0391 149.039 15.3047 149.125 15.5859 149.203C15.8828 149.266 16.0859 149.297 16.1953 149.297C16.2734 149.297 16.3125 149.43 16.3125 149.695C16.3125 149.867 16.2891 149.992 16.2422 150.07C14.3672 149.977 13.2578 149.93 12.9141 149.93C12.4453 149.93 11.9453 149.945 11.4141 149.977C10.8828 149.992 10.4688 150.016 10.1719 150.047L9.70312 150.07ZM22.2422 150.07C22.1797 150.008 22.1484 149.859 22.1484 149.625C22.1484 149.406 22.1797 149.297 22.2422 149.297C22.3672 149.297 22.5312 149.266 22.7344 149.203C22.9375 149.141 23.125 149.062 23.2969 148.969C23.4844 148.875 23.5859 148.797 23.6016 148.734C23.6641 148.469 23.7109 148.188 23.7422 147.891C23.7734 147.594 23.7891 147.297 23.7891 147V143.227C23.7891 142.492 23.6641 141.992 23.4141 141.727C23.2734 141.555 23.0938 141.438 22.875 141.375C22.6719 141.312 22.4844 141.273 22.3125 141.258C22.1562 141.242 22.0781 141.219 22.0781 141.188C22.0781 140.719 22.1172 140.484 22.1953 140.484C22.6953 140.422 23.2422 140.336 23.8359 140.227C24.4453 140.102 24.9922 139.984 25.4766 139.875L26.2266 139.688C26.3359 139.688 26.3906 139.844 26.3906 140.156C26.3906 140.359 26.3594 140.656 26.2969 141.047C26.25 141.422 26.2266 141.797 26.2266 142.172V146.625C26.2266 147.609 26.2812 148.312 26.3906 148.734C26.4219 148.797 26.5234 148.875 26.6953 148.969C26.8672 149.062 27.0547 149.141 27.2578 149.203C27.4609 149.266 27.6016 149.297 27.6797 149.297C27.7266 149.297 27.75 149.406 27.75 149.625C27.7656 149.844 27.7578 149.992 27.7266 150.07C27.2422 150.039 26.75 150.008 26.25 149.977C25.75 149.945 25.3359 149.93 25.0078 149.93C24.5234 149.93 24.0234 149.945 23.5078 149.977C23.0078 150.008 22.5859 150.039 22.2422 150.07ZM24.8203 137.25C24.4297 137.25 24.0938 137.109 23.8125 136.828C23.5312 136.547 23.3906 136.211 23.3906 135.82C23.3906 135.43 23.5312 135.102 23.8125 134.836C24.0938 134.555 24.4297 134.414 24.8203 134.414C25.2109 134.414 25.5391 134.555 25.8047 134.836C26.0859 135.102 26.2266 135.43 26.2266 135.82C26.2266 136.211 26.0859 136.547 25.8047 136.828C25.5391 137.109 25.2109 137.25 24.8203 137.25ZM28.9922 150.094C28.9297 150.031 28.8984 149.883 28.8984 149.648C28.8984 149.414 28.9297 149.297 28.9922 149.297C29.1172 149.297 29.2891 149.273 29.5078 149.227C29.7422 149.164 29.9531 149.094 30.1406 149.016C30.3438 148.922 30.4531 148.844 30.4688 148.781C30.5781 148.344 30.6328 147.773 30.6328 147.07V143.25C30.6328 142.5 30.5078 142 30.2578 141.75C30.1172 141.578 29.9453 141.461 29.7422 141.398C29.5391 141.32 29.3516 141.273 29.1797 141.258C29.0234 141.242 28.9453 141.219 28.9453 141.188C28.9453 140.75 28.9844 140.516 29.0625 140.484C29.5156 140.453 30.0078 140.383 30.5391 140.273C31.0859 140.148 31.7188 140.016 32.4375 139.875C32.6719 139.828 32.8203 139.797 32.8828 139.781C32.9609 139.75 33.0078 139.734 33.0234 139.734C33.0859 139.734 33.1406 139.789 33.1875 139.898C33.2344 139.992 33.2578 140.078 33.2578 140.156C33.1641 140.812 33.1172 141.188 33.1172 141.281C33.3984 140.859 33.7812 140.484 34.2656 140.156C34.75 139.812 35.2422 139.641 35.7422 139.641C36.6016 139.641 37.2422 139.898 37.6641 140.414C37.6641 141.742 37.2891 142.406 36.5391 142.406C36.2734 142.406 35.9688 142.25 35.625 141.938C35.2812 141.625 34.9453 141.469 34.6172 141.469C34.2891 141.469 34.0078 141.586 33.7734 141.82C33.5391 142.055 33.3594 142.344 33.2344 142.688C33.125 143.031 33.0703 143.383 33.0703 143.742V146.672C33.0703 147.656 33.125 148.359 33.2344 148.781C33.2656 148.844 33.375 148.922 33.5625 149.016C33.75 149.094 33.9531 149.164 34.1719 149.227C34.3906 149.273 34.5469 149.297 34.6406 149.297C34.6875 149.297 34.7109 149.414 34.7109 149.648C34.7266 149.867 34.7266 150.016 34.7109 150.094C34.6328 150.078 34.4062 150.055 34.0312 150.023C33.6719 150.008 33.2812 149.992 32.8594 149.977C32.4531 149.945 32.125 149.93 31.875 149.93C31.625 149.93 31.2891 149.945 30.8672 149.977C30.4453 149.992 30.0469 150.008 29.6719 150.023C29.3125 150.055 29.0859 150.078 28.9922 150.094ZM43.8984 150.141C42.9922 150.141 42.1562 149.914 41.3906 149.461C40.6406 148.992 40.0391 148.367 39.5859 147.586C39.1328 146.789 38.9062 145.914 38.9062 144.961C38.9062 143.898 39.1172 142.969 39.5391 142.172C39.9609 141.375 40.5312 140.758 41.25 140.32C41.9844 139.867 42.8203 139.641 43.7578 139.641C44.5234 139.641 45.1797 139.781 45.7266 140.062C46.2734 140.344 46.7188 140.711 47.0625 141.164C47.4219 141.602 47.6797 142.07 47.8359 142.57C48.0078 143.055 48.0938 143.508 48.0938 143.93C48.0938 144.273 48.0312 144.492 47.9062 144.586C47.7969 144.664 47.5625 144.703 47.2031 144.703H41.6016C41.4922 144.703 41.4375 144.75 41.4375 144.844C41.4375 145.422 41.5391 145.969 41.7422 146.484C41.9453 147.016 42.2891 147.477 42.7734 147.867C43.2734 148.258 43.8672 148.453 44.5547 148.453C44.9609 148.453 45.2969 148.422 45.5625 148.359C45.8281 148.297 46.0859 148.227 46.3359 148.148C46.4609 148.102 46.6172 148.023 46.8047 147.914C46.9922 147.789 47.1641 147.68 47.3203 147.586C47.4766 147.477 47.5547 147.422 47.5547 147.422C47.5859 147.438 47.625 147.484 47.6719 147.562C47.7188 147.641 47.7422 147.719 47.7422 147.797C47.7422 147.969 47.6953 148.117 47.6016 148.242C47.4453 148.523 47.1797 148.812 46.8047 149.109C46.4453 149.391 46.0156 149.633 45.5156 149.836C45.0156 150.039 44.4766 150.141 43.8984 150.141ZM41.6016 143.578H45.3984C45.5391 143.578 45.6094 143.461 45.6094 143.227C45.6094 142.852 45.5234 142.477 45.3516 142.102C45.1953 141.711 44.9609 141.383 44.6484 141.117C44.3516 140.852 44 140.719 43.5938 140.719C43.1094 140.719 42.7031 140.883 42.375 141.211C42.0625 141.539 41.8281 141.914 41.6719 142.336C41.5312 142.758 41.4609 143.117 41.4609 143.414C41.4609 143.523 41.5078 143.578 41.6016 143.578ZM54.7266 150.164C54.2422 150.164 53.8359 150.133 53.5078 150.07C53.1953 150.008 52.9141 149.953 52.6641 149.906C52.4297 149.844 52.1797 149.812 51.9141 149.812C51.7109 149.812 51.5078 149.867 51.3047 149.977C51.1172 150.086 50.9609 150.141 50.8359 150.141C50.7891 150.141 50.6719 150.094 50.4844 150C50.3125 149.906 50.2266 149.828 50.2266 149.766C50.2266 149.609 50.2656 149.266 50.3438 148.734C50.4219 148.203 50.4609 147.594 50.4609 146.906V137.344C50.4609 136.75 50.4141 136.219 50.3203 135.75C50.2578 135.5 49.8516 135.375 49.1016 135.375H48.8906C48.7969 135.375 48.75 135.25 48.75 135C48.75 134.75 48.7969 134.625 48.8906 134.625C49.375 134.578 49.8359 134.516 50.2734 134.438C50.7109 134.359 51.0781 134.281 51.375 134.203C51.7812 134.078 52.1094 133.969 52.3594 133.875C52.6094 133.781 52.75 133.734 52.7812 133.734H52.8281C52.8906 133.734 52.9531 133.781 53.0156 133.875C53.0781 133.953 53.1172 134.031 53.1328 134.109C53.0547 134.406 52.9922 134.742 52.9453 135.117C52.8984 135.477 52.875 135.875 52.875 136.312V140.086C52.875 140.227 52.8828 140.312 52.8984 140.344C52.9141 140.359 52.9531 140.359 53.0156 140.344C53.2344 140.188 53.5469 140.031 53.9531 139.875C54.375 139.719 54.7734 139.641 55.1484 139.641C56.1328 139.641 57.0078 139.883 57.7734 140.367C58.5547 140.852 59.1406 141.477 59.5312 142.242C59.9219 143.008 60.1172 143.797 60.1172 144.609C60.1172 145.625 59.8594 146.555 59.3438 147.398C58.8438 148.242 58.1875 148.914 57.375 149.414C56.5625 149.914 55.6797 150.164 54.7266 150.164ZM54.9609 149.039C55.7734 149.039 56.3828 148.672 56.7891 147.938C57.2109 147.203 57.4219 146.312 57.4219 145.266C57.4219 143.922 57.1797 142.859 56.6953 142.078C56.2109 141.297 55.5234 140.906 54.6328 140.906C54.1172 140.906 53.6953 141.055 53.3672 141.352C53.0391 141.648 52.875 142 52.875 142.406V147.375C52.875 147.922 53.0781 148.336 53.4844 148.617C53.9062 148.898 54.3984 149.039 54.9609 149.039ZM64.1484 150.164C63.3672 150.164 62.7266 149.953 62.2266 149.531C61.7422 149.094 61.5 148.5 61.5 147.75C61.5 147.234 61.6641 146.766 61.9922 146.344C62.3359 145.922 62.8125 145.562 63.4219 145.266C63.6406 145.156 63.8359 145.07 64.0078 145.008C64.1953 144.93 64.3672 144.859 64.5234 144.797C65.0703 144.625 65.5234 144.484 65.8828 144.375C66.2578 144.266 66.5234 144.188 66.6797 144.141C66.8203 144.062 66.8906 143.938 66.8906 143.766V142.477C66.8906 141.93 66.7656 141.5 66.5156 141.188C66.2656 140.875 65.9297 140.719 65.5078 140.719C65.0391 140.719 64.6719 140.867 64.4062 141.164C64.1406 141.445 64.0078 141.852 64.0078 142.383C64.0078 142.695 63.8906 142.93 63.6562 143.086C63.4219 143.227 63.1562 143.297 62.8594 143.297C62.2812 143.297 61.875 143.109 61.6406 142.734C61.6406 142.359 61.7812 141.992 62.0625 141.633C62.3438 141.258 62.7109 140.922 63.1641 140.625C63.6328 140.328 64.1484 140.094 64.7109 139.922C65.2734 139.734 65.8359 139.641 66.3984 139.641C67.3672 139.641 68.0938 139.898 68.5781 140.414C69.0625 140.914 69.3047 141.781 69.3047 143.016V147.633C69.3047 148.273 69.5625 148.594 70.0781 148.594C70.3125 148.594 70.5781 148.492 70.875 148.289C70.9688 148.305 71.0156 148.391 71.0156 148.547C71.0156 148.844 70.9688 149.078 70.875 149.25C70.6406 149.438 70.3281 149.633 69.9375 149.836C69.5469 150.039 69.1719 150.141 68.8125 150.141C68.4531 150.141 68.1016 150.008 67.7578 149.742C67.4141 149.477 67.1875 149.188 67.0781 148.875C66.9531 148.984 66.8594 149.062 66.7969 149.109C66.7344 149.156 66.6328 149.234 66.4922 149.344C66.1641 149.562 65.8047 149.758 65.4141 149.93C65.0234 150.086 64.6016 150.164 64.1484 150.164ZM65.3438 148.641C65.7656 148.641 66.125 148.531 66.4219 148.312C66.7344 148.094 66.8906 147.844 66.8906 147.562V145.172L65.3906 145.688C65.0312 145.844 64.7109 146.031 64.4297 146.25C64.1484 146.469 64.0078 146.781 64.0078 147.188C64.0078 147.688 64.1328 148.055 64.3828 148.289C64.6328 148.523 64.9531 148.641 65.3438 148.641ZM75.4688 150.234C74.4844 150.234 73.4766 150.016 72.4453 149.578C72.3984 149.391 72.3438 149.125 72.2812 148.781C72.2344 148.438 72.1875 148.094 72.1406 147.75C72.1094 147.391 72.0938 147.117 72.0938 146.93C72.2031 146.852 72.3125 146.812 72.4219 146.812C72.7656 146.812 72.9531 146.875 72.9844 147C73.1094 147.656 73.4141 148.188 73.8984 148.594C74.3984 148.984 74.9375 149.18 75.5156 149.18C75.9531 149.18 76.3125 149.07 76.5938 148.852C76.875 148.617 77.0156 148.273 77.0156 147.82C77.0156 147.492 76.8906 147.195 76.6406 146.93C76.3906 146.648 76.1562 146.453 75.9375 146.344L74.3906 145.523C73.6719 145.148 73.1172 144.734 72.7266 144.281C72.3359 143.812 72.1406 143.25 72.1406 142.594C72.1406 141.953 72.3125 141.414 72.6562 140.977C73.0156 140.539 73.4766 140.203 74.0391 139.969C74.6172 139.734 75.2344 139.617 75.8906 139.617C76.7344 139.617 77.6406 139.75 78.6094 140.016C78.6875 140.359 78.7422 140.75 78.7734 141.188C78.8203 141.625 78.8516 142.109 78.8672 142.641C78.8672 142.766 78.7656 142.828 78.5625 142.828C78.2188 142.828 78.0312 142.766 78 142.641C77.8906 142.094 77.6562 141.633 77.2969 141.258C76.9531 140.867 76.4844 140.672 75.8906 140.672C75.4375 140.672 75.0781 140.773 74.8125 140.977C74.5625 141.18 74.4375 141.469 74.4375 141.844C74.4375 142.25 74.5938 142.594 74.9062 142.875C75.2188 143.156 75.6406 143.43 76.1719 143.695C76.5781 143.898 76.9688 144.117 77.3438 144.352C77.7344 144.586 78.1016 144.844 78.4453 145.125C79.0547 145.609 79.3594 146.25 79.3594 147.047C79.3594 147.703 79.1797 148.273 78.8203 148.758C78.4766 149.227 78.0078 149.594 77.4141 149.859C76.8359 150.109 76.1875 150.234 75.4688 150.234ZM85.875 150.141C84.9688 150.141 84.1328 149.914 83.3672 149.461C82.6172 148.992 82.0156 148.367 81.5625 147.586C81.1094 146.789 80.8828 145.914 80.8828 144.961C80.8828 143.898 81.0938 142.969 81.5156 142.172C81.9375 141.375 82.5078 140.758 83.2266 140.32C83.9609 139.867 84.7969 139.641 85.7344 139.641C86.5 139.641 87.1562 139.781 87.7031 140.062C88.25 140.344 88.6953 140.711 89.0391 141.164C89.3984 141.602 89.6562 142.07 89.8125 142.57C89.9844 143.055 90.0703 143.508 90.0703 143.93C90.0703 144.273 90.0078 144.492 89.8828 144.586C89.7734 144.664 89.5391 144.703 89.1797 144.703H83.5781C83.4688 144.703 83.4141 144.75 83.4141 144.844C83.4141 145.422 83.5156 145.969 83.7188 146.484C83.9219 147.016 84.2656 147.477 84.75 147.867C85.25 148.258 85.8438 148.453 86.5312 148.453C86.9375 148.453 87.2734 148.422 87.5391 148.359C87.8047 148.297 88.0625 148.227 88.3125 148.148C88.4375 148.102 88.5938 148.023 88.7812 147.914C88.9688 147.789 89.1406 147.68 89.2969 147.586C89.4531 147.477 89.5312 147.422 89.5312 147.422C89.5625 147.438 89.6016 147.484 89.6484 147.562C89.6953 147.641 89.7188 147.719 89.7188 147.797C89.7188 147.969 89.6719 148.117 89.5781 148.242C89.4219 148.523 89.1562 148.812 88.7812 149.109C88.4219 149.391 87.9922 149.633 87.4922 149.836C86.9922 150.039 86.4531 150.141 85.875 150.141ZM83.5781 143.578H87.375C87.5156 143.578 87.5859 143.461 87.5859 143.227C87.5859 142.852 87.5 142.477 87.3281 142.102C87.1719 141.711 86.9375 141.383 86.625 141.117C86.3281 140.852 85.9766 140.719 85.5703 140.719C85.0859 140.719 84.6797 140.883 84.3516 141.211C84.0391 141.539 83.8047 141.914 83.6484 142.336C83.5078 142.758 83.4375 143.117 83.4375 143.414C83.4375 143.523 83.4844 143.578 83.5781 143.578Z" fill="white"/>
<defs>
<clipPath id="clip0_2013_46">
<rect width="100" height="100" fill="white"/>
</clipPath>
</defs>
</svg>
