<svg width="100" height="158" viewBox="0 0 100 158" fill="none" xmlns="http://www.w3.org/2000/svg">
<path d="M98.9609 76.9063C95.3984 77.8125 93.1953 76.9453 91.2188 73.9766C86.7813 67.3281 81.8828 60.9844 77.1563 54.5235C76.5469 53.6875 75.9141 52.8672 75.125 51.8281C69.5313 59.375 63.9453 66.5625 58.7031 74.0391C56.8281 76.711 54.8594 77.875 51.3594 76.9297L72.3906 48.7031L52.8125 23.211C56.1797 22.5547 58.5078 22.8906 60.5703 25.9063C65.125 32.5625 70.1484 38.8985 75.1563 45.6016C80.1953 38.9219 85.1563 32.5781 89.8438 25.9844C91.7266 23.3125 93.75 22.2969 97.1328 23.2813C94.5703 26.6797 92.0625 30.0235 89.5391 33.3438C86.1328 37.8203 82.7891 42.3516 79.2578 46.7344C78 48.2969 78.2031 49.3125 79.3281 50.7891C85.8594 59.375 92.3125 68.0469 98.9609 76.9063ZM1.03906 48.2344C1.60156 45.4141 1.97656 42.5391 2.75781 39.7735C7.44531 23.0313 26.6641 16.0703 39.8672 26.4453C47.6016 32.5313 49.5234 41.1094 49.1406 50.7813H5.54688C4.89063 68.1328 17.3828 78.6094 33.3047 73.2656C38.8906 71.3906 42.1797 67.0156 43.8281 61.5469C44.6641 58.8047 46.0469 58.375 48.625 59.1563C47.3047 66 44.3125 71.7188 38.0625 75.2969C28.6875 80.6563 15.3047 78.9219 8.26563 71.4766C4.10937 67.1016 2.34375 61.6563 1.5625 55.7735C1.44531 54.836 1.20313 53.9141 1.01562 52.9844C1.03125 51.4011 1.03906 49.8177 1.03906 48.2344ZM5.625 47.0703H45.0234C44.7656 34.5235 36.9531 25.6094 26.2734 25.5313C14.5547 25.4375 6.13281 34.1406 5.625 47.0703Z" fill="white"/>
<path d="M1.70312 150.07C1.65625 150.023 1.63281 149.898 1.63281 149.695C1.63281 149.43 1.65625 149.297 1.70312 149.297C1.84375 149.297 2.02344 149.273 2.24219 149.227C2.47656 149.18 2.69531 149.117 2.89844 149.039C3.11719 148.961 3.24219 148.875 3.27344 148.781C3.38281 148.469 3.4375 147.758 3.4375 146.648V137.789C3.4375 136.836 3.38281 136.195 3.27344 135.867C3.24219 135.742 3.125 135.641 2.92188 135.562C2.73438 135.469 2.51562 135.398 2.26562 135.352C2.03125 135.305 1.83594 135.281 1.67969 135.281C1.61719 135.281 1.58594 135.164 1.58594 134.93C1.58594 134.711 1.61719 134.57 1.67969 134.508C2.19531 134.539 2.71094 134.57 3.22656 134.602C3.74219 134.617 4.26562 134.625 4.79688 134.625C5.14062 134.625 5.61719 134.617 6.22656 134.602C6.83594 134.57 7.57031 134.539 8.42969 134.508C10.1641 134.461 11.4766 134.438 12.3672 134.438C12.3984 134.672 12.4453 134.953 12.5078 135.281C12.5703 135.609 12.6484 135.977 12.7422 136.383L13.0469 137.766C12.9688 137.844 12.8047 137.883 12.5547 137.883C12.3828 137.883 12.2734 137.828 12.2266 137.719C11.7109 136.328 10.7109 135.633 9.22656 135.633H8.00781C6.83594 135.633 6.24219 135.734 6.22656 135.938C6.13281 136.375 6.08594 137.008 6.08594 137.836V141.516C6.08594 141.609 6.42969 141.656 7.11719 141.656H8.42969C9.32031 141.656 9.85938 141.617 10.0469 141.539C10.2188 141.461 10.3516 141.188 10.4453 140.719C10.4922 140.516 10.5391 140.32 10.5859 140.133C10.6016 140.023 10.7266 139.969 10.9609 139.969C11.1797 139.969 11.3281 140.008 11.4062 140.086V144.516C11.3438 144.578 11.1953 144.609 10.9609 144.609C10.7578 144.609 10.6328 144.547 10.5859 144.422C10.5234 144.203 10.4688 144.023 10.4219 143.883C10.375 143.727 10.3359 143.594 10.3047 143.484C10.2266 143.312 10.1797 143.219 10.1641 143.203C10.1484 143.172 10.0703 143.109 9.92969 143.016C9.71094 142.891 8.99219 142.828 7.77344 142.828C6.64844 142.828 6.08594 142.891 6.08594 143.016V146.648C6.08594 147.508 6.15625 148.141 6.29688 148.547C6.35938 148.75 6.89062 148.852 7.89062 148.852H8.75781C9.99219 148.852 10.9219 148.688 11.5469 148.359C11.7969 148.234 12.0781 147.961 12.3906 147.539C12.7031 147.117 12.9453 146.641 13.1172 146.109C13.1484 146.016 13.2578 145.969 13.4453 145.969C13.7891 145.969 14.0078 146.016 14.1016 146.109L13.3516 148.195C13.2578 148.445 13.1562 148.766 13.0469 149.156C12.9375 149.531 12.8672 149.836 12.8359 150.07C12.2109 150.07 10.9219 150.047 8.96875 150C7.98438 149.969 7.14844 149.953 6.46094 149.953C5.77344 149.953 5.22656 149.961 4.82031 149.977L1.70312 150.07ZM15.4375 150.094C15.4219 150.031 15.4062 149.969 15.3906 149.906C15.3906 149.828 15.3906 149.758 15.3906 149.695C15.3906 149.43 15.4219 149.297 15.4844 149.297C16.5 149.125 17.1797 148.828 17.5234 148.406L19.8672 145.547C20.0078 145.359 20.0781 145.242 20.0781 145.195C20.0781 145.133 20.0547 145.07 20.0078 145.008L17.3125 141.352C17.1406 141.117 16.8672 140.922 16.4922 140.766C16.1172 140.594 15.7969 140.508 15.5312 140.508C15.4688 140.508 15.4375 140.375 15.4375 140.109C15.4375 139.938 15.4688 139.812 15.5312 139.734L18.2969 139.875L21.1094 139.734C21.1406 139.828 21.1562 139.938 21.1562 140.062C21.1562 140.344 21.125 140.484 21.0625 140.484C20.8594 140.484 20.6406 140.523 20.4062 140.602C20.1875 140.68 20.0781 140.805 20.0781 140.977C20.0781 141.039 20.1172 141.133 20.1953 141.258L21.6719 143.344C22.125 142.703 22.4922 142.195 22.7734 141.82C23.0703 141.445 23.2188 141.156 23.2188 140.953C23.2188 140.797 23.1172 140.688 22.9141 140.625C22.7109 140.562 22.5 140.531 22.2812 140.531C22.0625 140.516 21.9219 140.5 21.8594 140.484C21.7969 140.469 21.7656 140.344 21.7656 140.109C21.7656 139.922 21.7969 139.797 21.8594 139.734L24.5781 139.875L27.0156 139.734C27.0312 139.797 27.0391 139.859 27.0391 139.922C27.0547 139.969 27.0625 140.031 27.0625 140.109C27.0625 140.359 27.0469 140.484 27.0156 140.484C25.9531 140.609 25.2656 140.859 24.9531 141.234L22.6328 143.953C22.5234 144.062 22.4609 144.148 22.4453 144.211C22.4297 144.258 22.4219 144.305 22.4219 144.352C22.4219 144.398 22.4531 144.469 22.5156 144.562L25.1641 148.195C25.6328 148.836 26.2812 149.219 27.1094 149.344C27.1562 149.344 27.1797 149.477 27.1797 149.742C27.1797 149.898 27.1484 150.016 27.0859 150.094C26.6953 150.062 26.3594 150.031 26.0781 150C25.8125 149.984 25.5547 149.969 25.3047 149.953C25.0703 149.938 24.7812 149.93 24.4375 149.93C23.875 149.93 23.375 149.953 22.9375 150C22.5 150.031 22.0312 150.062 21.5312 150.094C21.5156 150.047 21.5 149.992 21.4844 149.93C21.4844 149.867 21.4844 149.789 21.4844 149.695C21.4844 149.43 21.5078 149.297 21.5547 149.297C21.7734 149.297 22 149.242 22.2344 149.133C22.4688 149.023 22.5859 148.898 22.5859 148.758C22.5859 148.711 22.5625 148.664 22.5156 148.617C22.4844 148.555 22.4531 148.492 22.4219 148.43L20.8516 146.25L19.375 148.312C19.2656 148.438 19.2109 148.578 19.2109 148.734C19.2109 148.922 19.3281 149.047 19.5625 149.109C19.7812 149.172 20 149.219 20.2188 149.25C20.4375 149.281 20.5625 149.297 20.5938 149.297C20.6406 149.297 20.6641 149.43 20.6641 149.695C20.6641 149.898 20.6328 150.031 20.5703 150.094C20.1797 150.062 19.8594 150.031 19.6094 150C19.3594 149.984 19.1172 149.969 18.8828 149.953C18.6484 149.938 18.3594 149.93 18.0156 149.93C17.5312 149.93 17.0859 149.953 16.6797 150C16.2891 150.031 15.875 150.062 15.4375 150.094ZM28.6094 155.203C28.5625 155.125 28.5391 154.984 28.5391 154.781C28.5391 154.547 28.5625 154.43 28.6094 154.43C28.7344 154.43 28.9062 154.398 29.125 154.336C29.3594 154.289 29.5703 154.219 29.7578 154.125C29.9609 154.047 30.0781 153.969 30.1094 153.891C30.2031 153.438 30.25 152.875 30.25 152.203V143.25C30.25 142.484 30.125 141.977 29.875 141.727C29.7344 141.555 29.5625 141.438 29.3594 141.375C29.1562 141.312 28.9688 141.273 28.7969 141.258C28.6406 141.242 28.5625 141.219 28.5625 141.188C28.5625 140.734 28.6094 140.5 28.7031 140.484C29.3438 140.422 29.9531 140.336 30.5312 140.227C31.125 140.117 31.6797 139.984 32.1953 139.828L32.6406 139.711C32.7031 139.711 32.7344 139.844 32.7344 140.109C32.7344 140.188 32.7266 140.258 32.7109 140.32C32.7109 140.367 32.7031 140.422 32.6875 140.484C32.9375 140.297 33.2812 140.117 33.7188 139.945C34.1719 139.758 34.5938 139.664 34.9844 139.664C35.9375 139.664 36.7891 139.891 37.5391 140.344C38.2891 140.797 38.875 141.398 39.2969 142.148C39.7344 142.898 39.9531 143.719 39.9531 144.609C39.9531 145.672 39.7031 146.625 39.2031 147.469C38.7031 148.312 38.0312 148.977 37.1875 149.461C36.3594 149.945 35.4453 150.188 34.4453 150.188C34.0234 150.188 33.4688 150.078 32.7812 149.859C32.7188 149.859 32.6875 149.969 32.6875 150.188V151.781C32.6875 152.719 32.75 153.422 32.875 153.891C32.8906 153.969 32.9922 154.047 33.1797 154.125C33.3828 154.219 33.5938 154.289 33.8125 154.336C34.0469 154.398 34.2109 154.43 34.3047 154.43C34.3516 154.43 34.375 154.539 34.375 154.758C34.3906 154.992 34.3906 155.141 34.375 155.203L33.1328 155.133C32.4141 155.086 31.875 155.062 31.5156 155.062C31.125 155.062 30.5781 155.086 29.875 155.133L28.6094 155.203ZM34.6797 149.062C35.3984 149.062 36 148.734 36.4844 148.078C36.9844 147.422 37.2344 146.5 37.2344 145.312C37.2344 144.047 36.9844 143 36.4844 142.172C35.9844 141.328 35.2969 140.906 34.4219 140.906C33.9062 140.906 33.4844 141.055 33.1562 141.352C32.8438 141.648 32.6875 142.047 32.6875 142.547V147.375C32.6875 147.891 32.8984 148.305 33.3203 148.617C33.7422 148.914 34.1953 149.062 34.6797 149.062ZM41.3594 150.094C41.2969 150.031 41.2656 149.883 41.2656 149.648C41.2656 149.414 41.2969 149.297 41.3594 149.297C41.4844 149.297 41.6562 149.273 41.875 149.227C42.1094 149.164 42.3203 149.094 42.5078 149.016C42.7109 148.922 42.8203 148.844 42.8359 148.781C42.9453 148.344 43 147.773 43 147.07V143.25C43 142.5 42.875 142 42.625 141.75C42.4844 141.578 42.3125 141.461 42.1094 141.398C41.9062 141.32 41.7188 141.273 41.5469 141.258C41.3906 141.242 41.3125 141.219 41.3125 141.188C41.3125 140.75 41.3516 140.516 41.4297 140.484C41.8828 140.453 42.375 140.383 42.9062 140.273C43.4531 140.148 44.0859 140.016 44.8047 139.875C45.0391 139.828 45.1875 139.797 45.25 139.781C45.3281 139.75 45.375 139.734 45.3906 139.734C45.4531 139.734 45.5078 139.789 45.5547 139.898C45.6016 139.992 45.625 140.078 45.625 140.156C45.5312 140.812 45.4844 141.188 45.4844 141.281C45.7656 140.859 46.1484 140.484 46.6328 140.156C47.1172 139.812 47.6094 139.641 48.1094 139.641C48.9688 139.641 49.6094 139.898 50.0312 140.414C50.0312 141.742 49.6562 142.406 48.9062 142.406C48.6406 142.406 48.3359 142.25 47.9922 141.938C47.6484 141.625 47.3125 141.469 46.9844 141.469C46.6562 141.469 46.375 141.586 46.1406 141.82C45.9062 142.055 45.7266 142.344 45.6016 142.688C45.4922 143.031 45.4375 143.383 45.4375 143.742V146.672C45.4375 147.656 45.4922 148.359 45.6016 148.781C45.6328 148.844 45.7422 148.922 45.9297 149.016C46.1172 149.094 46.3203 149.164 46.5391 149.227C46.7578 149.273 46.9141 149.297 47.0078 149.297C47.0547 149.297 47.0781 149.414 47.0781 149.648C47.0938 149.867 47.0938 150.016 47.0781 150.094C47 150.078 46.7734 150.055 46.3984 150.023C46.0391 150.008 45.6484 149.992 45.2266 149.977C44.8203 149.945 44.4922 149.93 44.2422 149.93C43.9922 149.93 43.6562 149.945 43.2344 149.977C42.8125 149.992 42.4141 150.008 42.0391 150.023C41.6797 150.055 41.4531 150.078 41.3594 150.094ZM56.2656 150.141C55.3594 150.141 54.5234 149.914 53.7578 149.461C53.0078 148.992 52.4062 148.367 51.9531 147.586C51.5 146.789 51.2734 145.914 51.2734 144.961C51.2734 143.898 51.4844 142.969 51.9062 142.172C52.3281 141.375 52.8984 140.758 53.6172 140.32C54.3516 139.867 55.1875 139.641 56.125 139.641C56.8906 139.641 57.5469 139.781 58.0938 140.062C58.6406 140.344 59.0859 140.711 59.4297 141.164C59.7891 141.602 60.0469 142.07 60.2031 142.57C60.375 143.055 60.4609 143.508 60.4609 143.93C60.4609 144.273 60.3984 144.492 60.2734 144.586C60.1641 144.664 59.9297 144.703 59.5703 144.703H53.9688C53.8594 144.703 53.8047 144.75 53.8047 144.844C53.8047 145.422 53.9062 145.969 54.1094 146.484C54.3125 147.016 54.6562 147.477 55.1406 147.867C55.6406 148.258 56.2344 148.453 56.9219 148.453C57.3281 148.453 57.6641 148.422 57.9297 148.359C58.1953 148.297 58.4531 148.227 58.7031 148.148C58.8281 148.102 58.9844 148.023 59.1719 147.914C59.3594 147.789 59.5312 147.68 59.6875 147.586C59.8438 147.477 59.9219 147.422 59.9219 147.422C59.9531 147.438 59.9922 147.484 60.0391 147.562C60.0859 147.641 60.1094 147.719 60.1094 147.797C60.1094 147.969 60.0625 148.117 59.9688 148.242C59.8125 148.523 59.5469 148.812 59.1719 149.109C58.8125 149.391 58.3828 149.633 57.8828 149.836C57.3828 150.039 56.8438 150.141 56.2656 150.141ZM53.9688 143.578H57.7656C57.9062 143.578 57.9766 143.461 57.9766 143.227C57.9766 142.852 57.8906 142.477 57.7188 142.102C57.5625 141.711 57.3281 141.383 57.0156 141.117C56.7188 140.852 56.3672 140.719 55.9609 140.719C55.4766 140.719 55.0703 140.883 54.7422 141.211C54.4297 141.539 54.1953 141.914 54.0391 142.336C53.8984 142.758 53.8281 143.117 53.8281 143.414C53.8281 143.523 53.875 143.578 53.9688 143.578ZM64.9375 150.234C63.9531 150.234 62.9453 150.016 61.9141 149.578C61.8672 149.391 61.8125 149.125 61.75 148.781C61.7031 148.438 61.6562 148.094 61.6094 147.75C61.5781 147.391 61.5625 147.117 61.5625 146.93C61.6719 146.852 61.7812 146.812 61.8906 146.812C62.2344 146.812 62.4219 146.875 62.4531 147C62.5781 147.656 62.8828 148.188 63.3672 148.594C63.8672 148.984 64.4062 149.18 64.9844 149.18C65.4219 149.18 65.7812 149.07 66.0625 148.852C66.3438 148.617 66.4844 148.273 66.4844 147.82C66.4844 147.492 66.3594 147.195 66.1094 146.93C65.8594 146.648 65.625 146.453 65.4062 146.344L63.8594 145.523C63.1406 145.148 62.5859 144.734 62.1953 144.281C61.8047 143.812 61.6094 143.25 61.6094 142.594C61.6094 141.953 61.7812 141.414 62.125 140.977C62.4844 140.539 62.9453 140.203 63.5078 139.969C64.0859 139.734 64.7031 139.617 65.3594 139.617C66.2031 139.617 67.1094 139.75 68.0781 140.016C68.1562 140.359 68.2109 140.75 68.2422 141.188C68.2891 141.625 68.3203 142.109 68.3359 142.641C68.3359 142.766 68.2344 142.828 68.0312 142.828C67.6875 142.828 67.5 142.766 67.4688 142.641C67.3594 142.094 67.125 141.633 66.7656 141.258C66.4219 140.867 65.9531 140.672 65.3594 140.672C64.9062 140.672 64.5469 140.773 64.2812 140.977C64.0312 141.18 63.9062 141.469 63.9062 141.844C63.9062 142.25 64.0625 142.594 64.375 142.875C64.6875 143.156 65.1094 143.43 65.6406 143.695C66.0469 143.898 66.4375 144.117 66.8125 144.352C67.2031 144.586 67.5703 144.844 67.9141 145.125C68.5234 145.609 68.8281 146.25 68.8281 147.047C68.8281 147.703 68.6484 148.273 68.2891 148.758C67.9453 149.227 67.4766 149.594 66.8828 149.859C66.3047 150.109 65.6562 150.234 64.9375 150.234ZM73.7969 150.234C72.8125 150.234 71.8047 150.016 70.7734 149.578C70.7266 149.391 70.6719 149.125 70.6094 148.781C70.5625 148.438 70.5156 148.094 70.4688 147.75C70.4375 147.391 70.4219 147.117 70.4219 146.93C70.5312 146.852 70.6406 146.812 70.75 146.812C71.0938 146.812 71.2812 146.875 71.3125 147C71.4375 147.656 71.7422 148.188 72.2266 148.594C72.7266 148.984 73.2656 149.18 73.8438 149.18C74.2812 149.18 74.6406 149.07 74.9219 148.852C75.2031 148.617 75.3438 148.273 75.3438 147.82C75.3438 147.492 75.2188 147.195 74.9688 146.93C74.7188 146.648 74.4844 146.453 74.2656 146.344L72.7188 145.523C72 145.148 71.4453 144.734 71.0547 144.281C70.6641 143.812 70.4688 143.25 70.4688 142.594C70.4688 141.953 70.6406 141.414 70.9844 140.977C71.3438 140.539 71.8047 140.203 72.3672 139.969C72.9453 139.734 73.5625 139.617 74.2188 139.617C75.0625 139.617 75.9688 139.75 76.9375 140.016C77.0156 140.359 77.0703 140.75 77.1016 141.188C77.1484 141.625 77.1797 142.109 77.1953 142.641C77.1953 142.766 77.0938 142.828 76.8906 142.828C76.5469 142.828 76.3594 142.766 76.3281 142.641C76.2188 142.094 75.9844 141.633 75.625 141.258C75.2812 140.867 74.8125 140.672 74.2188 140.672C73.7656 140.672 73.4062 140.773 73.1406 140.977C72.8906 141.18 72.7656 141.469 72.7656 141.844C72.7656 142.25 72.9219 142.594 73.2344 142.875C73.5469 143.156 73.9688 143.43 74.5 143.695C74.9062 143.898 75.2969 144.117 75.6719 144.352C76.0625 144.586 76.4297 144.844 76.7734 145.125C77.3828 145.609 77.6875 146.25 77.6875 147.047C77.6875 147.703 77.5078 148.273 77.1484 148.758C76.8047 149.227 76.3359 149.594 75.7422 149.859C75.1641 150.109 74.5156 150.234 73.7969 150.234ZM80.8984 150.281C80.3672 150.281 79.9688 150.117 79.7031 149.789C79.4531 149.445 79.3281 149.078 79.3281 148.688C79.3281 148.297 79.4531 147.938 79.7031 147.609C79.9688 147.281 80.3672 147.117 80.8984 147.117C81.4141 147.117 81.7969 147.281 82.0469 147.609C82.3125 147.938 82.4453 148.305 82.4453 148.711C82.4453 149.102 82.3125 149.461 82.0469 149.789C81.7969 150.117 81.4141 150.281 80.8984 150.281ZM83.3359 155.25C83.0234 155.109 82.8672 154.938 82.8672 154.734C82.8672 154.656 82.8828 154.602 82.9141 154.57L83.0547 154.477C83.2109 154.383 83.3828 154.258 83.5703 154.102C83.7578 153.961 83.9688 153.734 84.2031 153.422C84.5625 152.922 84.8438 152.234 85.0469 151.359C85.25 150.5 85.3516 149.555 85.3516 148.523V143.227C85.3516 142.492 85.2266 141.992 84.9766 141.727C84.8359 141.555 84.6562 141.445 84.4375 141.398C84.2344 141.336 84.0469 141.297 83.875 141.281C83.7188 141.266 83.6406 141.234 83.6406 141.188C83.6406 140.719 83.6797 140.484 83.7578 140.484C84.2578 140.422 84.8281 140.344 85.4688 140.25C86.1094 140.141 86.8047 139.977 87.5547 139.758L87.7891 139.688C87.8984 139.688 87.9531 139.844 87.9531 140.156C87.9531 140.25 87.9297 140.531 87.8828 141C87.8516 141.25 87.8281 141.469 87.8125 141.656C87.7969 141.844 87.7891 142.016 87.7891 142.172V147.656C87.7891 149.766 87.4453 151.414 86.7578 152.602C86.0547 153.82 84.9141 154.703 83.3359 155.25ZM86.4766 137.25C86.0859 137.25 85.75 137.109 85.4688 136.828C85.1875 136.547 85.0469 136.211 85.0469 135.82C85.0469 135.43 85.1875 135.102 85.4688 134.836C85.75 134.555 86.0859 134.414 86.4766 134.414C86.8672 134.414 87.1953 134.555 87.4609 134.836C87.7422 135.102 87.8828 135.43 87.8828 135.82C87.8828 136.211 87.7422 136.547 87.4609 136.828C87.1953 137.109 86.8672 137.25 86.4766 137.25ZM93.5547 150.234C92.5703 150.234 91.5625 150.016 90.5312 149.578C90.4844 149.391 90.4297 149.125 90.3672 148.781C90.3203 148.438 90.2734 148.094 90.2266 147.75C90.1953 147.391 90.1797 147.117 90.1797 146.93C90.2891 146.852 90.3984 146.812 90.5078 146.812C90.8516 146.812 91.0391 146.875 91.0703 147C91.1953 147.656 91.5 148.188 91.9844 148.594C92.4844 148.984 93.0234 149.18 93.6016 149.18C94.0391 149.18 94.3984 149.07 94.6797 148.852C94.9609 148.617 95.1016 148.273 95.1016 147.82C95.1016 147.492 94.9766 147.195 94.7266 146.93C94.4766 146.648 94.2422 146.453 94.0234 146.344L92.4766 145.523C91.7578 145.148 91.2031 144.734 90.8125 144.281C90.4219 143.812 90.2266 143.25 90.2266 142.594C90.2266 141.953 90.3984 141.414 90.7422 140.977C91.1016 140.539 91.5625 140.203 92.125 139.969C92.7031 139.734 93.3203 139.617 93.9766 139.617C94.8203 139.617 95.7266 139.75 96.6953 140.016C96.7734 140.359 96.8281 140.75 96.8594 141.188C96.9062 141.625 96.9375 142.109 96.9531 142.641C96.9531 142.766 96.8516 142.828 96.6484 142.828C96.3047 142.828 96.1172 142.766 96.0859 142.641C95.9766 142.094 95.7422 141.633 95.3828 141.258C95.0391 140.867 94.5703 140.672 93.9766 140.672C93.5234 140.672 93.1641 140.773 92.8984 140.977C92.6484 141.18 92.5234 141.469 92.5234 141.844C92.5234 142.25 92.6797 142.594 92.9922 142.875C93.3047 143.156 93.7266 143.43 94.2578 143.695C94.6641 143.898 95.0547 144.117 95.4297 144.352C95.8203 144.586 96.1875 144.844 96.5312 145.125C97.1406 145.609 97.4453 146.25 97.4453 147.047C97.4453 147.703 97.2656 148.273 96.9062 148.758C96.5625 149.227 96.0938 149.594 95.5 149.859C94.9219 150.109 94.2734 150.234 93.5547 150.234Z" fill="white"/>
</svg>
