<svg width="100" height="149" viewBox="0 0 100 149" fill="none" xmlns="http://www.w3.org/2000/svg">
<path d="M3.70312 141.07C3.64062 141.008 3.60938 140.883 3.60938 140.695C3.60938 140.43 3.64062 140.297 3.70312 140.297C3.875 140.297 4.10938 140.266 4.40625 140.203C4.71875 140.125 5.01562 140.023 5.29688 139.898C5.57812 139.758 5.74219 139.609 5.78906 139.453C5.94531 139.156 6.03125 138.633 6.04688 137.883C6.09375 136.117 6.14062 134.5 6.1875 133.031C6.23438 131.562 6.27344 130.336 6.30469 129.352C6.35156 128.352 6.375 127.703 6.375 127.406C6.375 127.109 6.35156 126.891 6.30469 126.75C6.27344 126.656 6.13281 126.57 5.88281 126.492C5.64844 126.414 5.39062 126.352 5.10938 126.305C4.84375 126.258 4.64062 126.234 4.5 126.234C4.4375 126.234 4.40625 126.102 4.40625 125.836C4.40625 125.664 4.4375 125.547 4.5 125.484L5.71875 125.555C6.28125 125.602 6.76562 125.625 7.17188 125.625L9.46875 125.484C9.6875 126.141 10.0234 127 10.4766 128.062C10.9297 129.125 11.4609 130.359 12.0703 131.766C12.6953 133.172 13.3438 134.719 14.0156 136.406C14.0156 136.438 14.0391 136.453 14.0859 136.453C14.1328 136.453 14.1562 136.43 14.1562 136.383C14.8438 134.727 15.4609 133.227 16.0078 131.883C16.5547 130.523 17.0312 129.312 17.4375 128.25L18.2812 125.531C18.75 125.578 19.3906 125.602 20.2031 125.602C20.5156 125.602 20.8984 125.594 21.3516 125.578C21.8203 125.547 22.3672 125.516 22.9922 125.484C23.0391 125.547 23.0625 125.672 23.0625 125.859C23.0625 126.125 23.0312 126.258 22.9688 126.258H22.9219C22.5 126.258 22.1172 126.383 21.7734 126.633C21.5391 126.789 21.4375 127.211 21.4688 127.898C21.5 128.586 21.5391 129.742 21.5859 131.367C21.6484 132.977 21.7188 135.047 21.7969 137.578C21.8281 138.453 21.9531 139.172 22.1719 139.734C22.2188 139.828 22.3359 139.922 22.5234 140.016C22.7266 140.094 22.9375 140.164 23.1562 140.227C23.375 140.273 23.5312 140.297 23.625 140.297C23.6875 140.297 23.7188 140.438 23.7188 140.719C23.7188 140.828 23.7031 140.945 23.6719 141.07L20.7891 140.93C20.2422 140.93 19.6797 140.945 19.1016 140.977C18.5234 141.008 18.0469 141.039 17.6719 141.07C17.6094 141.008 17.5781 140.891 17.5781 140.719C17.5781 140.438 17.6094 140.297 17.6719 140.297C17.8438 140.297 18.0938 140.25 18.4219 140.156C18.75 140.047 18.9688 139.93 19.0781 139.805C19.2344 139.602 19.3125 139.328 19.3125 138.984V137.672L19.0781 130.547C19 129.578 18.9062 129.094 18.7969 129.094C18.75 129.094 18.7109 129.141 18.6797 129.234L14.2031 140.156C13.9375 140.75 13.6406 141.047 13.3125 141.047C13.2812 141.047 13.2422 141.039 13.1953 141.023C13.1641 141.023 13.125 141.016 13.0781 141L7.82812 128.391C7.76562 130.328 7.70312 132.172 7.64062 133.922C7.59375 135.672 7.53125 137.312 7.45312 138.844C7.45312 139.188 7.47656 139.43 7.52344 139.57C7.58594 139.68 7.75781 139.797 8.03906 139.922C8.32031 140.031 8.60938 140.125 8.90625 140.203C9.21875 140.266 9.4375 140.297 9.5625 140.297C9.625 140.297 9.65625 140.438 9.65625 140.719C9.65625 140.828 9.64062 140.945 9.60938 141.07L6.65625 140.93C6.23438 140.93 5.67969 140.953 4.99219 141C4.28906 141.047 3.85938 141.07 3.70312 141.07ZM27.7031 141.164C26.9219 141.164 26.2812 140.953 25.7812 140.531C25.2969 140.094 25.0547 139.5 25.0547 138.75C25.0547 138.234 25.2188 137.766 25.5469 137.344C25.8906 136.922 26.3672 136.562 26.9766 136.266C27.1953 136.156 27.3906 136.07 27.5625 136.008C27.75 135.93 27.9219 135.859 28.0781 135.797C28.625 135.625 29.0781 135.484 29.4375 135.375C29.8125 135.266 30.0781 135.188 30.2344 135.141C30.375 135.062 30.4453 134.938 30.4453 134.766V133.477C30.4453 132.93 30.3203 132.5 30.0703 132.188C29.8203 131.875 29.4844 131.719 29.0625 131.719C28.5938 131.719 28.2266 131.867 27.9609 132.164C27.6953 132.445 27.5625 132.852 27.5625 133.383C27.5625 133.695 27.4453 133.93 27.2109 134.086C26.9766 134.227 26.7109 134.297 26.4141 134.297C25.8359 134.297 25.4297 134.109 25.1953 133.734C25.1953 133.359 25.3359 132.992 25.6172 132.633C25.8984 132.258 26.2656 131.922 26.7188 131.625C27.1875 131.328 27.7031 131.094 28.2656 130.922C28.8281 130.734 29.3906 130.641 29.9531 130.641C30.9219 130.641 31.6484 130.898 32.1328 131.414C32.6172 131.914 32.8594 132.781 32.8594 134.016V138.633C32.8594 139.273 33.1172 139.594 33.6328 139.594C33.8672 139.594 34.1328 139.492 34.4297 139.289C34.5234 139.305 34.5703 139.391 34.5703 139.547C34.5703 139.844 34.5234 140.078 34.4297 140.25C34.1953 140.438 33.8828 140.633 33.4922 140.836C33.1016 141.039 32.7266 141.141 32.3672 141.141C32.0078 141.141 31.6562 141.008 31.3125 140.742C30.9688 140.477 30.7422 140.188 30.6328 139.875C30.5078 139.984 30.4141 140.062 30.3516 140.109C30.2891 140.156 30.1875 140.234 30.0469 140.344C29.7188 140.562 29.3594 140.758 28.9688 140.93C28.5781 141.086 28.1562 141.164 27.7031 141.164ZM28.8984 139.641C29.3203 139.641 29.6797 139.531 29.9766 139.312C30.2891 139.094 30.4453 138.844 30.4453 138.562V136.172L28.9453 136.688C28.5859 136.844 28.2656 137.031 27.9844 137.25C27.7031 137.469 27.5625 137.781 27.5625 138.188C27.5625 138.688 27.6875 139.055 27.9375 139.289C28.1875 139.523 28.5078 139.641 28.8984 139.641ZM35.7422 141.094C35.6797 141.031 35.6484 140.883 35.6484 140.648C35.6484 140.414 35.6797 140.297 35.7422 140.297C35.8672 140.297 36.0391 140.273 36.2578 140.227C36.4922 140.164 36.7031 140.094 36.8906 140.016C37.0938 139.922 37.2031 139.844 37.2188 139.781C37.3281 139.344 37.3828 138.773 37.3828 138.07V134.25C37.3828 133.5 37.2578 133 37.0078 132.75C36.8672 132.578 36.6953 132.461 36.4922 132.398C36.2891 132.32 36.1016 132.273 35.9297 132.258C35.7734 132.242 35.6953 132.219 35.6953 132.188C35.6953 131.75 35.7344 131.516 35.8125 131.484C36.2656 131.453 36.7578 131.383 37.2891 131.273C37.8359 131.148 38.4688 131.016 39.1875 130.875C39.4219 130.828 39.5703 130.797 39.6328 130.781C39.7109 130.75 39.7578 130.734 39.7734 130.734C39.8359 130.734 39.8906 130.789 39.9375 130.898C39.9844 130.992 40.0078 131.078 40.0078 131.156C39.9141 131.812 39.8672 132.188 39.8672 132.281C40.1484 131.859 40.5312 131.484 41.0156 131.156C41.5 130.812 41.9922 130.641 42.4922 130.641C43.3516 130.641 43.9922 130.898 44.4141 131.414C44.4141 132.742 44.0391 133.406 43.2891 133.406C43.0234 133.406 42.7188 133.25 42.375 132.938C42.0312 132.625 41.6953 132.469 41.3672 132.469C41.0391 132.469 40.7578 132.586 40.5234 132.82C40.2891 133.055 40.1094 133.344 39.9844 133.688C39.875 134.031 39.8203 134.383 39.8203 134.742V137.672C39.8203 138.656 39.875 139.359 39.9844 139.781C40.0156 139.844 40.125 139.922 40.3125 140.016C40.5 140.094 40.7031 140.164 40.9219 140.227C41.1406 140.273 41.2969 140.297 41.3906 140.297C41.4375 140.297 41.4609 140.414 41.4609 140.648C41.4766 140.867 41.4766 141.016 41.4609 141.094C41.3828 141.078 41.1562 141.055 40.7812 141.023C40.4219 141.008 40.0312 140.992 39.6094 140.977C39.2031 140.945 38.875 140.93 38.625 140.93C38.375 140.93 38.0391 140.945 37.6172 140.977C37.1953 140.992 36.7969 141.008 36.4219 141.023C36.0625 141.055 35.8359 141.078 35.7422 141.094ZM45.7031 141.07C45.6406 141.008 45.6094 140.859 45.6094 140.625C45.6094 140.406 45.6406 140.297 45.7031 140.297C45.8281 140.297 45.9922 140.266 46.1953 140.203C46.3984 140.141 46.5859 140.062 46.7578 139.969C46.9453 139.875 47.0469 139.797 47.0625 139.734C47.125 139.469 47.1719 139.188 47.2031 138.891C47.2344 138.594 47.25 138.297 47.25 138V134.227C47.25 133.492 47.125 132.992 46.875 132.727C46.7344 132.555 46.5547 132.438 46.3359 132.375C46.1328 132.312 45.9453 132.273 45.7734 132.258C45.6172 132.242 45.5391 132.219 45.5391 132.188C45.5391 131.719 45.5781 131.484 45.6562 131.484C46.1562 131.422 46.7031 131.336 47.2969 131.227C47.9062 131.102 48.4531 130.984 48.9375 130.875L49.6875 130.688C49.7969 130.688 49.8516 130.844 49.8516 131.156C49.8516 131.359 49.8203 131.656 49.7578 132.047C49.7109 132.422 49.6875 132.797 49.6875 133.172V137.625C49.6875 138.609 49.7422 139.312 49.8516 139.734C49.8828 139.797 49.9844 139.875 50.1562 139.969C50.3281 140.062 50.5156 140.141 50.7188 140.203C50.9219 140.266 51.0625 140.297 51.1406 140.297C51.1875 140.297 51.2109 140.406 51.2109 140.625C51.2266 140.844 51.2188 140.992 51.1875 141.07C50.7031 141.039 50.2109 141.008 49.7109 140.977C49.2109 140.945 48.7969 140.93 48.4688 140.93C47.9844 140.93 47.4844 140.945 46.9688 140.977C46.4688 141.008 46.0469 141.039 45.7031 141.07ZM48.2812 128.25C47.8906 128.25 47.5547 128.109 47.2734 127.828C46.9922 127.547 46.8516 127.211 46.8516 126.82C46.8516 126.43 46.9922 126.102 47.2734 125.836C47.5547 125.555 47.8906 125.414 48.2812 125.414C48.6719 125.414 49 125.555 49.2656 125.836C49.5469 126.102 49.6875 126.43 49.6875 126.82C49.6875 127.211 49.5469 127.547 49.2656 127.828C49 128.109 48.6719 128.25 48.2812 128.25ZM55.0078 141.164C54.2266 141.164 53.5859 140.953 53.0859 140.531C52.6016 140.094 52.3594 139.5 52.3594 138.75C52.3594 138.234 52.5234 137.766 52.8516 137.344C53.1953 136.922 53.6719 136.562 54.2812 136.266C54.5 136.156 54.6953 136.07 54.8672 136.008C55.0547 135.93 55.2266 135.859 55.3828 135.797C55.9297 135.625 56.3828 135.484 56.7422 135.375C57.1172 135.266 57.3828 135.188 57.5391 135.141C57.6797 135.062 57.75 134.938 57.75 134.766V133.477C57.75 132.93 57.625 132.5 57.375 132.188C57.125 131.875 56.7891 131.719 56.3672 131.719C55.8984 131.719 55.5312 131.867 55.2656 132.164C55 132.445 54.8672 132.852 54.8672 133.383C54.8672 133.695 54.75 133.93 54.5156 134.086C54.2812 134.227 54.0156 134.297 53.7188 134.297C53.1406 134.297 52.7344 134.109 52.5 133.734C52.5 133.359 52.6406 132.992 52.9219 132.633C53.2031 132.258 53.5703 131.922 54.0234 131.625C54.4922 131.328 55.0078 131.094 55.5703 130.922C56.1328 130.734 56.6953 130.641 57.2578 130.641C58.2266 130.641 58.9531 130.898 59.4375 131.414C59.9219 131.914 60.1641 132.781 60.1641 134.016V138.633C60.1641 139.273 60.4219 139.594 60.9375 139.594C61.1719 139.594 61.4375 139.492 61.7344 139.289C61.8281 139.305 61.875 139.391 61.875 139.547C61.875 139.844 61.8281 140.078 61.7344 140.25C61.5 140.438 61.1875 140.633 60.7969 140.836C60.4062 141.039 60.0312 141.141 59.6719 141.141C59.3125 141.141 58.9609 141.008 58.6172 140.742C58.2734 140.477 58.0469 140.188 57.9375 139.875C57.8125 139.984 57.7188 140.062 57.6562 140.109C57.5938 140.156 57.4922 140.234 57.3516 140.344C57.0234 140.562 56.6641 140.758 56.2734 140.93C55.8828 141.086 55.4609 141.164 55.0078 141.164ZM56.2031 139.641C56.625 139.641 56.9844 139.531 57.2812 139.312C57.5938 139.094 57.75 138.844 57.75 138.562V136.172L56.25 136.688C55.8906 136.844 55.5703 137.031 55.2891 137.25C55.0078 137.469 54.8672 137.781 54.8672 138.188C54.8672 138.688 54.9922 139.055 55.2422 139.289C55.4922 139.523 55.8125 139.641 56.2031 139.641ZM67.8984 141.07C67.8516 141.023 67.8281 140.898 67.8281 140.695C67.8281 140.43 67.8516 140.297 67.8984 140.297C68.0391 140.297 68.2188 140.273 68.4375 140.227C68.6719 140.18 68.8906 140.117 69.0938 140.039C69.3125 139.961 69.4375 139.875 69.4688 139.781C69.5781 139.469 69.6328 138.758 69.6328 137.648V128.789C69.6328 127.836 69.5781 127.195 69.4688 126.867C69.4375 126.742 69.3203 126.641 69.1172 126.562C68.9297 126.469 68.7109 126.398 68.4609 126.352C68.2266 126.305 68.0312 126.281 67.875 126.281C67.8125 126.281 67.7812 126.164 67.7812 125.93C67.7812 125.711 67.8125 125.57 67.875 125.508C68.9062 125.555 69.9453 125.578 70.9922 125.578H75.0469C76.3125 125.578 77.4453 125.781 78.4453 126.188C79.4609 126.578 80.3125 127.125 81 127.828C81.7031 128.531 82.2344 129.336 82.5938 130.242C82.9688 131.148 83.1562 132.109 83.1562 133.125C83.1562 134.625 82.8281 135.977 82.1719 137.18C81.5312 138.367 80.6016 139.312 79.3828 140.016C78.1641 140.719 76.7109 141.07 75.0234 141.07C74.8672 141.07 74.625 141.062 74.2969 141.047C73.9844 141.047 73.5859 141.039 73.1016 141.023C72.6172 141.008 72.2031 140.992 71.8594 140.977C71.5156 140.961 71.2344 140.961 71.0156 140.977L67.8984 141.07ZM75.3984 139.875C78.5703 139.875 80.1562 137.594 80.1562 133.031C80.1562 131.859 79.9609 130.805 79.5703 129.867C79.1953 128.914 78.6406 128.156 77.9062 127.594C77.1875 127.031 76.2969 126.75 75.2344 126.75H75.1172C73.6172 126.75 72.7734 126.875 72.5859 127.125C72.3828 127.391 72.2812 127.875 72.2812 128.578V137.766C72.2812 138.625 72.3672 139.203 72.5391 139.5C72.7891 139.75 73.7422 139.875 75.3984 139.875ZM84.4922 141.07C84.4453 141.023 84.4219 140.898 84.4219 140.695C84.4219 140.43 84.4453 140.297 84.4922 140.297C84.6328 140.297 84.8125 140.273 85.0312 140.227C85.2656 140.18 85.4844 140.117 85.6875 140.039C85.9062 139.961 86.0312 139.875 86.0625 139.781C86.1719 139.469 86.2266 138.758 86.2266 137.648V128.789C86.2266 127.836 86.1719 127.195 86.0625 126.867C86.0312 126.742 85.9141 126.641 85.7109 126.562C85.5234 126.469 85.3047 126.398 85.0547 126.352C84.8203 126.305 84.625 126.281 84.4688 126.281C84.4062 126.281 84.375 126.164 84.375 125.93C84.375 125.711 84.4062 125.57 84.4688 125.508C85.5 125.555 86.5391 125.578 87.5859 125.578L89.6016 125.555H91.0078C92.1797 125.555 93.2891 125.836 94.3359 126.398C94.8672 126.695 95.2969 127.117 95.625 127.664C95.9688 128.211 96.1406 128.844 96.1406 129.562C96.1406 130.109 95.9766 130.633 95.6484 131.133C95.3203 131.617 95.0078 131.961 94.7109 132.164C94.4297 132.352 94.1875 132.484 93.9844 132.562C93.8594 132.609 93.8281 132.656 93.8906 132.703C94.2812 132.766 94.7031 132.977 95.1562 133.336C95.625 133.68 96.0312 134.133 96.375 134.695C96.7188 135.258 96.8906 135.898 96.8906 136.617C96.8906 137.508 96.6406 138.289 96.1406 138.961C95.6562 139.617 94.9688 140.125 94.0781 140.484C93.1875 140.828 92.1406 141 90.9375 141L87.6094 140.977L84.4922 141.07ZM90.2812 132.281C90.8594 132.281 91.2969 132.234 91.5938 132.141C92.7344 131.891 93.3047 131.125 93.3047 129.844C93.3047 127.734 92.4062 126.68 90.6094 126.68C89.8906 126.68 89.3906 126.719 89.1094 126.797C88.9844 126.828 88.9219 126.914 88.9219 127.055L88.875 129.305V132.047C88.875 132.203 89.3438 132.281 90.2812 132.281ZM90.6562 139.828C91 139.828 91.3359 139.797 91.6641 139.734C91.9922 139.656 92.3516 139.523 92.7422 139.336C93.1172 139.164 93.4219 138.867 93.6562 138.445C93.9062 138.008 94.0312 137.484 94.0312 136.875C94.0312 135.875 93.75 135.055 93.1875 134.414C92.6406 133.758 91.75 133.43 90.5156 133.43C90.2969 133.43 90.0625 133.445 89.8125 133.477C89.5781 133.492 89.3281 133.516 89.0625 133.547C88.9375 133.625 88.875 133.781 88.875 134.016V138.375C88.875 139.016 88.9688 139.422 89.1562 139.594C89.3594 139.75 89.8594 139.828 90.6562 139.828Z" fill="white"/>
<path d="M10.4165 50.0001C10.4165 31.3417 10.4165 22.0084 16.2123 16.2126C22.0082 10.4167 31.3373 10.4167 49.9998 10.4167C68.6582 10.4167 77.9915 10.4167 83.7873 16.2126C89.5832 22.0084 89.5832 31.3376 89.5832 50.0001C89.5832 68.6584 89.5832 77.9917 83.7873 83.7876C77.9915 89.5834 68.6623 89.5834 49.9998 89.5834C31.3415 89.5834 22.0082 89.5834 16.2123 83.7876C10.4165 77.9917 10.4165 68.6626 10.4165 50.0001Z" stroke="white" stroke-width="8"/>
<path d="M35.0625 41.6667C34.6806 40.5865 34.0091 39.6321 33.1215 38.9077C32.2339 38.1834 31.1642 37.7169 30.0294 37.5594C28.8946 37.4018 27.7383 37.5592 26.6869 38.0144C25.6355 38.4696 24.7295 39.2049 24.0678 40.1402C23.4061 41.0755 23.0142 42.1747 22.9349 43.3176C22.8556 44.4606 23.0921 45.6033 23.6183 46.621C24.1446 47.6386 24.9405 48.492 25.919 49.088C26.8975 49.6839 28.021 49.9994 29.1666 50C30.3123 50.0006 31.4358 50.3161 32.4143 50.912C33.3928 51.508 34.1887 52.3614 34.715 53.3791C35.2412 54.3967 35.4777 55.5395 35.3984 56.6824C35.3191 57.8253 34.9272 58.9245 34.2655 59.8598C33.6038 60.7951 32.6978 61.5305 31.6464 61.9856C30.595 62.4408 29.4387 62.5982 28.3039 62.4406C27.1691 62.2831 26.0994 61.8166 25.2118 61.0923C24.3242 60.3679 23.6527 59.4135 23.2708 58.3333M52.0833 62.5C50.4257 62.5 48.836 61.8415 47.6639 60.6694C46.4918 59.4973 45.8333 57.9076 45.8333 56.25V43.75C45.8333 42.0924 46.4918 40.5027 47.6639 39.3306C48.836 38.1585 50.4257 37.5 52.0833 37.5C53.7409 37.5 55.3306 38.1585 56.5027 39.3306C57.6748 40.5027 58.3333 42.0924 58.3333 43.75V56.25C58.3333 57.9076 57.6748 59.4973 56.5027 60.6694C55.3306 61.8415 53.7409 62.5 52.0833 62.5ZM52.0833 62.5L58.3333 68.75M68.75 37.5V54.1667C68.75 58.0958 68.75 60.0583 69.9708 61.2792C71.1916 62.5 73.1541 62.5 77.0833 62.5" stroke="white" stroke-width="6" stroke-linecap="round"/>
</svg>
