<svg width="100" height="158" viewBox="0 0 100 158" fill="none" xmlns="http://www.w3.org/2000/svg">
<path d="M50 100L0 75V25L50 0L100 25V75L50 100ZM9.09091 70.4581L50 90.8768L90.9091 70.4581V29.5419L50 9.12322L9.09091 29.5419V70.4581Z" fill="white"/>
<path d="M28.3672 150.117C28.1328 150.117 27.8828 149.938 27.6172 149.578L18.2891 137.203V146.695C18.2891 147.602 18.3516 148.242 18.4766 148.617C18.5391 148.742 18.6953 148.859 18.9453 148.969C19.2109 149.062 19.4844 149.141 19.7656 149.203C20.0625 149.266 20.2734 149.297 20.3984 149.297C20.4453 149.297 20.4688 149.406 20.4688 149.625C20.4844 149.844 20.4766 149.992 20.4453 150.07L17.5156 149.93C17.2344 149.93 16.8984 149.945 16.5078 149.977C16.1328 149.992 15.7734 150.008 15.4297 150.023C15.1016 150.039 14.8672 150.055 14.7266 150.07C14.6641 150.008 14.6328 149.875 14.6328 149.672C14.6328 149.422 14.6641 149.297 14.7266 149.297C14.9141 149.297 15.1406 149.273 15.4062 149.227C15.6719 149.164 15.9219 149.086 16.1562 148.992C16.4062 148.883 16.5703 148.75 16.6484 148.594C16.8047 148.281 16.8828 147.625 16.8828 146.625V137.438C16.8828 136.609 16.7969 136.039 16.625 135.727C16.5938 135.648 16.4531 135.578 16.2031 135.516C15.9531 135.453 15.6875 135.398 15.4062 135.352C15.1406 135.305 14.9297 135.281 14.7734 135.281C14.7109 135.281 14.6719 135.164 14.6562 134.93C14.6562 134.695 14.6875 134.547 14.75 134.484C15.5781 134.516 16.2188 134.547 16.6719 134.578C17.1406 134.594 17.4297 134.602 17.5391 134.602C17.8047 134.602 18.1094 134.594 18.4531 134.578C18.8125 134.547 19.2109 134.516 19.6484 134.484C19.9922 135.109 20.5469 135.945 21.3125 136.992C22.0781 138.039 22.9844 139.25 24.0312 140.625C25.0781 141.984 26.1797 143.469 27.3359 145.078C27.3516 144.984 27.3594 144.859 27.3594 144.703C27.375 144.531 27.3828 144.336 27.3828 144.117V137.742C27.3828 136.898 27.3047 136.273 27.1484 135.867C27.1016 135.742 26.9609 135.633 26.7266 135.539C26.4922 135.445 26.2422 135.375 25.9766 135.328C25.7109 135.281 25.4922 135.258 25.3203 135.258C25.2578 135.258 25.2188 135.148 25.2031 134.93C25.2031 134.695 25.2266 134.547 25.2734 134.484C26.1016 134.547 26.7578 134.594 27.2422 134.625C27.7422 134.641 28.0703 134.648 28.2266 134.648C28.4297 134.648 28.6641 134.641 28.9297 134.625C29.1953 134.609 29.4844 134.586 29.7969 134.555C30.4375 134.508 30.8359 134.484 30.9922 134.484C31.0234 134.578 31.0391 134.703 31.0391 134.859C31.0391 135.125 31.0078 135.258 30.9453 135.258C30.8047 135.258 30.6016 135.289 30.3359 135.352C30.0703 135.398 29.8125 135.469 29.5625 135.562C29.3125 135.656 29.1406 135.773 29.0469 135.914C28.875 136.352 28.7891 137 28.7891 137.859V146.742C28.7891 147.023 28.7969 147.438 28.8125 147.984C28.8281 148.531 28.8516 149.211 28.8828 150.023C28.8203 150.086 28.6484 150.117 28.3672 150.117ZM37.6016 150.164C36.6172 150.164 35.7188 149.93 34.9062 149.461C34.1094 148.977 33.4688 148.336 32.9844 147.539C32.5156 146.742 32.2812 145.859 32.2812 144.891C32.2812 143.906 32.5156 143.023 32.9844 142.242C33.4531 141.445 34.0859 140.812 34.8828 140.344C35.6953 139.875 36.5938 139.641 37.5781 139.641C38.5625 139.641 39.4531 139.875 40.25 140.344C41.0625 140.812 41.7031 141.445 42.1719 142.242C42.6562 143.039 42.8984 143.922 42.8984 144.891C42.8984 145.859 42.6641 146.742 42.1953 147.539C41.7266 148.336 41.0938 148.977 40.2969 149.461C39.5 149.93 38.6016 150.164 37.6016 150.164ZM37.8359 149.062C38.3359 149.062 38.7578 148.898 39.1016 148.57C39.4453 148.242 39.7109 147.805 39.8984 147.258C40.0859 146.695 40.1797 146.094 40.1797 145.453C40.1797 144.609 40.0625 143.836 39.8281 143.133C39.6094 142.414 39.2812 141.836 38.8438 141.398C38.4219 140.961 37.8984 140.742 37.2734 140.742C36.7891 140.742 36.3672 140.906 36.0078 141.234C35.6641 141.562 35.3984 142 35.2109 142.547C35.0391 143.094 34.9531 143.695 34.9531 144.352C34.9531 145.195 35.0625 145.977 35.2812 146.695C35.5156 147.398 35.8516 147.969 36.2891 148.406C36.7266 148.844 37.2422 149.062 37.8359 149.062ZM51.4062 150.141C51.3125 150.141 51.2656 150.008 51.2656 149.742V149.344C51.2656 149.297 51.25 149.266 51.2188 149.25C51.2031 149.234 51.1875 149.234 51.1719 149.25C50.4375 149.828 49.625 150.117 48.7344 150.117C47.8906 150.117 47.1094 149.906 46.3906 149.484C45.6875 149.047 45.1172 148.461 44.6797 147.727C44.2422 146.992 44.0234 146.156 44.0234 145.219C44.0234 144.188 44.2656 143.25 44.75 142.406C45.25 141.547 45.9141 140.867 46.7422 140.367C47.5703 139.852 48.4688 139.594 49.4375 139.594C50.0938 139.594 50.6641 139.703 51.1484 139.922C51.2266 139.922 51.2656 139.797 51.2656 139.547V137.344C51.2656 136.75 51.2188 136.219 51.125 135.75C51.0625 135.5 50.6562 135.375 49.9062 135.375H49.7188C49.625 135.375 49.5781 135.25 49.5781 135C49.5781 134.75 49.625 134.625 49.7188 134.625C50.1875 134.578 50.6406 134.516 51.0781 134.438C51.5312 134.359 51.9062 134.281 52.2031 134.203C52.625 134.078 52.9531 133.969 53.1875 133.875C53.4375 133.781 53.5781 133.734 53.6094 133.734H53.6562C53.7188 133.734 53.7812 133.781 53.8438 133.875C53.9062 133.953 53.9375 134.031 53.9375 134.109C53.7812 134.688 53.7031 135.422 53.7031 136.312V146.625C53.7031 146.984 53.7188 147.367 53.75 147.773C53.7812 148.164 53.8359 148.406 53.9141 148.5C53.9922 148.578 54.1172 148.641 54.2891 148.688C54.4766 148.734 54.6562 148.766 54.8281 148.781C55.0156 148.781 55.1406 148.781 55.2031 148.781C55.2344 148.812 55.25 148.906 55.25 149.062C55.25 149.375 55.2031 149.531 55.1094 149.531C54.8906 149.547 54.6094 149.578 54.2656 149.625C53.9375 149.672 53.6172 149.719 53.3047 149.766C52.6797 149.875 52.2031 149.961 51.875 150.023C51.5625 150.102 51.4062 150.141 51.4062 150.141ZM49.4844 148.828C50.0156 148.828 50.4453 148.695 50.7734 148.43C51.1016 148.148 51.2656 147.797 51.2656 147.375V142.453C51.2656 142.234 51.2031 141.992 51.0781 141.727C50.9688 141.461 50.7656 141.227 50.4688 141.023C50.1875 140.82 49.7734 140.719 49.2266 140.719C48.3984 140.719 47.7734 141.07 47.3516 141.773C46.9297 142.477 46.7188 143.422 46.7188 144.609C46.7188 145.938 46.9609 146.977 47.4453 147.727C47.9297 148.461 48.6094 148.828 49.4844 148.828ZM61.2969 150.141C60.3906 150.141 59.5547 149.914 58.7891 149.461C58.0391 148.992 57.4375 148.367 56.9844 147.586C56.5312 146.789 56.3047 145.914 56.3047 144.961C56.3047 143.898 56.5156 142.969 56.9375 142.172C57.3594 141.375 57.9297 140.758 58.6484 140.32C59.3828 139.867 60.2188 139.641 61.1562 139.641C61.9219 139.641 62.5781 139.781 63.125 140.062C63.6719 140.344 64.1172 140.711 64.4609 141.164C64.8203 141.602 65.0781 142.07 65.2344 142.57C65.4062 143.055 65.4922 143.508 65.4922 143.93C65.4922 144.273 65.4297 144.492 65.3047 144.586C65.1953 144.664 64.9609 144.703 64.6016 144.703H59C58.8906 144.703 58.8359 144.75 58.8359 144.844C58.8359 145.422 58.9375 145.969 59.1406 146.484C59.3438 147.016 59.6875 147.477 60.1719 147.867C60.6719 148.258 61.2656 148.453 61.9531 148.453C62.3594 148.453 62.6953 148.422 62.9609 148.359C63.2266 148.297 63.4844 148.227 63.7344 148.148C63.8594 148.102 64.0156 148.023 64.2031 147.914C64.3906 147.789 64.5625 147.68 64.7188 147.586C64.875 147.477 64.9531 147.422 64.9531 147.422C64.9844 147.438 65.0234 147.484 65.0703 147.562C65.1172 147.641 65.1406 147.719 65.1406 147.797C65.1406 147.969 65.0938 148.117 65 148.242C64.8438 148.523 64.5781 148.812 64.2031 149.109C63.8438 149.391 63.4141 149.633 62.9141 149.836C62.4141 150.039 61.875 150.141 61.2969 150.141ZM59 143.578H62.7969C62.9375 143.578 63.0078 143.461 63.0078 143.227C63.0078 142.852 62.9219 142.477 62.75 142.102C62.5938 141.711 62.3594 141.383 62.0469 141.117C61.75 140.852 61.3984 140.719 60.9922 140.719C60.5078 140.719 60.1016 140.883 59.7734 141.211C59.4609 141.539 59.2266 141.914 59.0703 142.336C58.9297 142.758 58.8594 143.117 58.8594 143.414C58.8594 143.523 58.9062 143.578 59 143.578ZM68.2109 150.281C67.6797 150.281 67.2812 150.117 67.0156 149.789C66.7656 149.445 66.6406 149.078 66.6406 148.688C66.6406 148.297 66.7656 147.938 67.0156 147.609C67.2812 147.281 67.6797 147.117 68.2109 147.117C68.7266 147.117 69.1094 147.281 69.3594 147.609C69.625 147.938 69.7578 148.305 69.7578 148.711C69.7578 149.102 69.625 149.461 69.3594 149.789C69.1094 150.117 68.7266 150.281 68.2109 150.281ZM70.6484 155.25C70.3359 155.109 70.1797 154.938 70.1797 154.734C70.1797 154.656 70.1953 154.602 70.2266 154.57L70.3672 154.477C70.5234 154.383 70.6953 154.258 70.8828 154.102C71.0703 153.961 71.2812 153.734 71.5156 153.422C71.875 152.922 72.1562 152.234 72.3594 151.359C72.5625 150.5 72.6641 149.555 72.6641 148.523V143.227C72.6641 142.492 72.5391 141.992 72.2891 141.727C72.1484 141.555 71.9688 141.445 71.75 141.398C71.5469 141.336 71.3594 141.297 71.1875 141.281C71.0312 141.266 70.9531 141.234 70.9531 141.188C70.9531 140.719 70.9922 140.484 71.0703 140.484C71.5703 140.422 72.1406 140.344 72.7812 140.25C73.4219 140.141 74.1172 139.977 74.8672 139.758L75.1016 139.688C75.2109 139.688 75.2656 139.844 75.2656 140.156C75.2656 140.25 75.2422 140.531 75.1953 141C75.1641 141.25 75.1406 141.469 75.125 141.656C75.1094 141.844 75.1016 142.016 75.1016 142.172V147.656C75.1016 149.766 74.7578 151.414 74.0703 152.602C73.3672 153.82 72.2266 154.703 70.6484 155.25ZM73.7891 137.25C73.3984 137.25 73.0625 137.109 72.7812 136.828C72.5 136.547 72.3594 136.211 72.3594 135.82C72.3594 135.43 72.5 135.102 72.7812 134.836C73.0625 134.555 73.3984 134.414 73.7891 134.414C74.1797 134.414 74.5078 134.555 74.7734 134.836C75.0547 135.102 75.1953 135.43 75.1953 135.82C75.1953 136.211 75.0547 136.547 74.7734 136.828C74.5078 137.109 74.1797 137.25 73.7891 137.25ZM80.8672 150.234C79.8828 150.234 78.875 150.016 77.8438 149.578C77.7969 149.391 77.7422 149.125 77.6797 148.781C77.6328 148.438 77.5859 148.094 77.5391 147.75C77.5078 147.391 77.4922 147.117 77.4922 146.93C77.6016 146.852 77.7109 146.812 77.8203 146.812C78.1641 146.812 78.3516 146.875 78.3828 147C78.5078 147.656 78.8125 148.188 79.2969 148.594C79.7969 148.984 80.3359 149.18 80.9141 149.18C81.3516 149.18 81.7109 149.07 81.9922 148.852C82.2734 148.617 82.4141 148.273 82.4141 147.82C82.4141 147.492 82.2891 147.195 82.0391 146.93C81.7891 146.648 81.5547 146.453 81.3359 146.344L79.7891 145.523C79.0703 145.148 78.5156 144.734 78.125 144.281C77.7344 143.812 77.5391 143.25 77.5391 142.594C77.5391 141.953 77.7109 141.414 78.0547 140.977C78.4141 140.539 78.875 140.203 79.4375 139.969C80.0156 139.734 80.6328 139.617 81.2891 139.617C82.1328 139.617 83.0391 139.75 84.0078 140.016C84.0859 140.359 84.1406 140.75 84.1719 141.188C84.2188 141.625 84.25 142.109 84.2656 142.641C84.2656 142.766 84.1641 142.828 83.9609 142.828C83.6172 142.828 83.4297 142.766 83.3984 142.641C83.2891 142.094 83.0547 141.633 82.6953 141.258C82.3516 140.867 81.8828 140.672 81.2891 140.672C80.8359 140.672 80.4766 140.773 80.2109 140.977C79.9609 141.18 79.8359 141.469 79.8359 141.844C79.8359 142.25 79.9922 142.594 80.3047 142.875C80.6172 143.156 81.0391 143.43 81.5703 143.695C81.9766 143.898 82.3672 144.117 82.7422 144.352C83.1328 144.586 83.5 144.844 83.8438 145.125C84.4531 145.609 84.7578 146.25 84.7578 147.047C84.7578 147.703 84.5781 148.273 84.2188 148.758C83.875 149.227 83.4062 149.594 82.8125 149.859C82.2344 150.109 81.5859 150.234 80.8672 150.234Z" fill="white"/>
</svg>
