<svg width="68" height="162" viewBox="0 0 68 162" fill="none" xmlns="http://www.w3.org/2000/svg">
<path d="M34 4V37.3333M34 4H49C50.9698 4 52.9204 4.4311 54.7402 5.26867C56.5601 6.10625 58.2137 7.33391 59.6066 8.88155C60.9995 10.4292 62.1044 12.2665 62.8582 14.2886C63.612 16.3107 64 18.478 64 20.6667C64 22.8554 63.612 25.0226 62.8582 27.0447C62.1044 29.0668 60.9995 30.9041 59.6066 32.4518C58.2137 33.9994 56.5601 35.2271 54.7402 36.0647C52.9204 36.9022 50.9698 37.3333 49 37.3333M34 4H19C17.0302 4 15.0796 4.4311 13.2598 5.26867C11.4399 6.10625 9.78628 7.33391 8.3934 8.88155C7.00053 10.4292 5.89563 12.2665 5.14181 14.2886C4.38799 16.3107 4.00001 18.478 4.00001 20.6667C4.00001 22.8554 4.38799 25.0226 5.14181 27.0447C5.89563 29.0668 7.00053 30.9041 8.3934 32.4518C9.78628 33.9994 11.4399 35.2271 13.2598 36.0647C15.0796 36.9022 17.0302 37.3333 19 37.3333M34 37.3333H49M34 37.3333H19M34 37.3333V70.6667M49 37.3333C47.0302 37.3333 45.0796 37.7644 43.2597 38.602C41.4399 39.4396 39.7863 40.6672 38.3934 42.2149C37.0005 43.7625 35.8956 45.5998 35.1418 47.6219C34.388 49.644 34 51.8113 34 54C34 56.1887 34.388 58.356 35.1418 60.378C35.8956 62.4001 37.0005 64.2375 38.3934 65.7851C39.7863 67.3327 41.4399 68.5604 43.2597 69.398C45.0796 70.2356 47.0302 70.6667 49 70.6667C52.9782 70.6667 56.7936 68.9107 59.6066 65.7851C62.4196 62.6595 64 58.4203 64 54C64 49.5797 62.4196 45.3405 59.6066 42.2149C56.7936 39.0893 52.9782 37.3333 49 37.3333ZM19 37.3333C17.0302 37.3333 15.0796 37.7644 13.2598 38.602C11.4399 39.4396 9.78628 40.6672 8.3934 42.2149C7.00052 43.7625 5.89563 45.5998 5.14181 47.6219C4.38799 49.644 4.00001 51.8113 4.00001 54C4.00001 56.1887 4.38799 58.356 5.14181 60.378C5.89563 62.4001 7.00052 64.2375 8.3934 65.7851C9.78628 67.3327 11.4399 68.5604 13.2598 69.398C15.0796 70.2356 17.0302 70.6667 19 70.6667M34 70.6667H19M34 70.6667V87.3333C34 90.6297 33.1203 93.852 31.472 96.5928C29.8238 99.3336 27.4811 101.47 24.7403 102.731C21.9994 103.993 18.9834 104.323 16.0736 103.68C13.1639 103.037 10.4912 101.449 8.3934 99.1184C6.29562 96.7876 4.86701 93.8178 4.28823 90.5848C3.70945 87.3518 4.0065 84.0007 5.14181 80.9553C6.27713 77.9098 8.19972 75.3069 10.6665 73.4755C13.1332 71.6441 16.0333 70.6667 19 70.6667" stroke="white" stroke-width="8"/>
<path d="M0.703125 154.07C0.65625 154.023 0.632812 153.898 0.632812 153.695C0.632812 153.43 0.65625 153.297 0.703125 153.297C0.84375 153.297 1.02344 153.273 1.24219 153.227C1.47656 153.18 1.69531 153.117 1.89844 153.039C2.11719 152.961 2.24219 152.875 2.27344 152.781C2.38281 152.469 2.4375 151.758 2.4375 150.648V141.789C2.4375 140.836 2.38281 140.195 2.27344 139.867C2.24219 139.742 2.125 139.641 1.92188 139.562C1.73438 139.469 1.51562 139.398 1.26562 139.352C1.03125 139.305 0.835938 139.281 0.679688 139.281C0.617188 139.281 0.585938 139.164 0.585938 138.93C0.585938 138.711 0.617188 138.57 0.679688 138.508C1.17969 138.539 1.6875 138.562 2.20312 138.578C2.71875 138.594 3.24219 138.602 3.77344 138.602C4.50781 138.617 5.75 138.594 7.5 138.531C8.375 138.5 9.13281 138.477 9.77344 138.461C10.4141 138.445 10.9375 138.438 11.3438 138.438C11.375 138.672 11.4219 138.953 11.4844 139.281C11.5469 139.609 11.625 139.977 11.7188 140.383L12.0234 141.766C11.9453 141.844 11.7812 141.883 11.5312 141.883C11.3594 141.883 11.25 141.828 11.2031 141.719C10.6875 140.328 9.6875 139.633 8.20312 139.633H6.98438C5.8125 139.633 5.21875 139.734 5.20312 139.938C5.17188 140.125 5.14062 140.375 5.10938 140.688C5.09375 141 5.08594 141.383 5.08594 141.836V145.516C5.08594 145.609 5.42969 145.656 6.11719 145.656H7.40625C8.29688 145.656 8.83594 145.617 9.02344 145.539C9.19531 145.461 9.32812 145.188 9.42188 144.719C9.46875 144.516 9.51562 144.32 9.5625 144.133C9.57812 144.023 9.70312 143.969 9.9375 143.969C10.1562 143.969 10.3047 144.008 10.3828 144.086V148.516C10.3203 148.578 10.1719 148.609 9.9375 148.609C9.73438 148.609 9.60938 148.547 9.5625 148.422C9.5 148.203 9.44531 148.023 9.39844 147.883C9.35156 147.727 9.3125 147.594 9.28125 147.484C9.20312 147.312 9.15625 147.219 9.14062 147.203C9.125 147.172 9.04688 147.109 8.90625 147.016C8.6875 146.891 7.96875 146.828 6.75 146.828C5.64062 146.828 5.08594 146.891 5.08594 147.016V150.695C5.08594 151.523 5.17188 152.172 5.34375 152.641C5.39062 152.734 5.53906 152.836 5.78906 152.945C6.03906 153.039 6.30469 153.125 6.58594 153.203C6.88281 153.266 7.08594 153.297 7.19531 153.297C7.27344 153.297 7.3125 153.43 7.3125 153.695C7.3125 153.867 7.28906 153.992 7.24219 154.07C5.36719 153.977 4.25781 153.93 3.91406 153.93C3.44531 153.93 2.94531 153.945 2.41406 153.977C1.88281 153.992 1.46875 154.016 1.17188 154.047L0.703125 154.07ZM13.2422 154.07C13.1797 154.008 13.1484 153.859 13.1484 153.625C13.1484 153.406 13.1797 153.297 13.2422 153.297C13.3672 153.297 13.5312 153.266 13.7344 153.203C13.9375 153.141 14.125 153.062 14.2969 152.969C14.4844 152.875 14.5859 152.797 14.6016 152.734C14.6641 152.469 14.7109 152.188 14.7422 151.891C14.7734 151.594 14.7891 151.297 14.7891 151V147.227C14.7891 146.492 14.6641 145.992 14.4141 145.727C14.2734 145.555 14.0938 145.438 13.875 145.375C13.6719 145.312 13.4844 145.273 13.3125 145.258C13.1562 145.242 13.0781 145.219 13.0781 145.188C13.0781 144.719 13.1172 144.484 13.1953 144.484C13.6953 144.422 14.2422 144.336 14.8359 144.227C15.4453 144.102 15.9922 143.984 16.4766 143.875L17.2266 143.688C17.3359 143.688 17.3906 143.844 17.3906 144.156C17.3906 144.359 17.3594 144.656 17.2969 145.047C17.25 145.422 17.2266 145.797 17.2266 146.172V150.625C17.2266 151.609 17.2812 152.312 17.3906 152.734C17.4219 152.797 17.5234 152.875 17.6953 152.969C17.8672 153.062 18.0547 153.141 18.2578 153.203C18.4609 153.266 18.6016 153.297 18.6797 153.297C18.7266 153.297 18.75 153.406 18.75 153.625C18.7656 153.844 18.7578 153.992 18.7266 154.07C18.2422 154.039 17.75 154.008 17.25 153.977C16.75 153.945 16.3359 153.93 16.0078 153.93C15.5234 153.93 15.0234 153.945 14.5078 153.977C14.0078 154.008 13.5859 154.039 13.2422 154.07ZM15.8203 141.25C15.4297 141.25 15.0938 141.109 14.8125 140.828C14.5312 140.547 14.3906 140.211 14.3906 139.82C14.3906 139.43 14.5312 139.102 14.8125 138.836C15.0938 138.555 15.4297 138.414 15.8203 138.414C16.2109 138.414 16.5391 138.555 16.8047 138.836C17.0859 139.102 17.2266 139.43 17.2266 139.82C17.2266 140.211 17.0859 140.547 16.8047 140.828C16.5391 141.109 16.2109 141.25 15.8203 141.25ZM24.0703 159.203C23.3203 159.203 22.6172 159.102 21.9609 158.898C21.3203 158.711 20.7969 158.422 20.3906 158.031C20 157.641 19.8047 157.172 19.8047 156.625C19.8047 156.172 20.0234 155.734 20.4609 155.312C20.9141 154.891 21.3984 154.594 21.9141 154.422C21.5078 154.297 21.1328 154.062 20.7891 153.719C20.4453 153.359 20.2734 152.945 20.2734 152.477C20.2734 151.82 20.8516 151.125 22.0078 150.391C21.7109 150.25 21.4141 150.023 21.1172 149.711C20.8359 149.383 20.6016 149.008 20.4141 148.586C20.2422 148.148 20.1562 147.711 20.1562 147.273C20.1562 146.523 20.3438 145.883 20.7188 145.352C21.0938 144.82 21.5938 144.414 22.2188 144.133C22.8594 143.836 23.5703 143.688 24.3516 143.688C24.9453 143.688 25.5938 143.789 26.2969 143.992C27 144.195 27.625 144.297 28.1719 144.297H29.5078C29.5391 144.297 29.5938 144.398 29.6719 144.602C29.75 144.805 29.7891 144.961 29.7891 145.07C29.7891 145.289 29.7422 145.398 29.6484 145.398H28.125C28.0625 145.398 28.0312 145.422 28.0312 145.469L28.2422 146.078C28.3828 146.469 28.4531 146.844 28.4531 147.203C28.4531 147.812 28.2734 148.398 27.9141 148.961C27.5703 149.508 27.0938 149.953 26.4844 150.297C25.875 150.641 25.1797 150.812 24.3984 150.812C24.1172 150.812 23.8516 150.805 23.6016 150.789C23.3672 150.773 23.1484 150.75 22.9453 150.719C22.7578 150.797 22.5859 150.945 22.4297 151.164C22.2734 151.367 22.1953 151.555 22.1953 151.727C22.1953 151.945 22.3359 152.109 22.6172 152.219C22.8984 152.328 23.25 152.406 23.6719 152.453C24.1094 152.484 24.5312 152.5 24.9375 152.5H25.1953C26.7578 152.5 27.8984 152.703 28.6172 153.109C29.3516 153.516 29.7188 154.102 29.7188 154.867C29.7344 155.648 29.4766 156.367 28.9453 157.023C28.4141 157.68 27.7188 158.203 26.8594 158.594C26 159 25.0703 159.203 24.0703 159.203ZM24.3516 149.805C24.9297 149.805 25.3516 149.586 25.6172 149.148C25.8984 148.695 26.0391 148.141 26.0391 147.484C26.0391 146.656 25.8828 145.984 25.5703 145.469C25.2578 144.953 24.8047 144.695 24.2109 144.695C23.6484 144.695 23.2344 144.938 22.9688 145.422C22.7031 145.906 22.5703 146.461 22.5703 147.086C22.5703 147.852 22.7266 148.5 23.0391 149.031C23.3516 149.547 23.7891 149.805 24.3516 149.805ZM24.6094 158.078C25.4844 158.078 26.1953 157.875 26.7422 157.469C27.3047 157.062 27.5859 156.555 27.5859 155.945C27.5859 155.398 27.1953 155.039 26.4141 154.867C26.0234 154.773 25.5859 154.703 25.1016 154.656C24.6172 154.625 24.1719 154.609 23.7656 154.609C23.5156 154.609 23.2266 154.648 22.8984 154.727C22.5859 154.805 22.3125 154.953 22.0781 155.172C21.8438 155.391 21.7266 155.703 21.7266 156.109C21.7266 156.484 21.8594 156.82 22.125 157.117C22.4062 157.414 22.7656 157.648 23.2031 157.82C23.6562 157.992 24.125 158.078 24.6094 158.078ZM31.1719 154.094C31.1094 154.031 31.0781 153.883 31.0781 153.648C31.0781 153.414 31.1094 153.297 31.1719 153.297C31.2969 153.297 31.4688 153.273 31.6875 153.227C31.9219 153.164 32.1328 153.094 32.3203 153.016C32.5234 152.922 32.6328 152.844 32.6484 152.781C32.7578 152.344 32.8125 151.773 32.8125 151.07V147.25C32.8125 146.5 32.6875 146 32.4375 145.75C32.2656 145.562 32.0703 145.438 31.8516 145.375C31.6484 145.312 31.4688 145.273 31.3125 145.258C31.1719 145.242 31.1016 145.219 31.1016 145.188C31.1016 144.734 31.1484 144.5 31.2422 144.484C31.6016 144.453 32.0859 144.383 32.6953 144.273C33.3203 144.164 33.9844 144.023 34.6875 143.852C35 143.773 35.1641 143.734 35.1797 143.734C35.2578 143.734 35.3203 143.789 35.3672 143.898C35.4141 144.008 35.4297 144.094 35.4141 144.156C35.3828 144.375 35.3594 144.555 35.3438 144.695C35.3281 144.836 35.3203 144.938 35.3203 145C35.3203 145.078 35.3359 145.117 35.3672 145.117C35.3984 145.117 35.4375 145.094 35.4844 145.047C35.8594 144.672 36.3359 144.344 36.9141 144.062C37.5078 143.781 38.1094 143.641 38.7188 143.641C39.3125 143.641 39.8203 143.797 40.2422 144.109C40.6641 144.406 40.9766 144.797 41.1797 145.281C41.6328 144.812 42.2031 144.422 42.8906 144.109C43.5781 143.797 44.3125 143.641 45.0938 143.641C45.8438 143.641 46.4375 143.852 46.875 144.273C47.3125 144.68 47.625 145.234 47.8125 145.938C48.0156 146.625 48.1172 147.383 48.1172 148.211V150.672C48.1172 151.656 48.1719 152.359 48.2812 152.781C48.3125 152.844 48.4219 152.922 48.6094 153.016C48.8125 153.094 49.0234 153.164 49.2422 153.227C49.4609 153.273 49.6172 153.297 49.7109 153.297C49.7578 153.297 49.7812 153.414 49.7812 153.648C49.7969 153.867 49.7891 154.016 49.7578 154.094C49.6953 154.078 49.4766 154.055 49.1016 154.023C48.7422 154.008 48.3516 153.992 47.9297 153.977C47.5078 153.945 47.1719 153.93 46.9219 153.93C46.6719 153.93 46.3359 153.945 45.9141 153.977C45.5078 153.992 45.1172 154.008 44.7422 154.023C44.3828 154.055 44.1562 154.078 44.0625 154.094C44.0156 154.016 43.9922 153.867 43.9922 153.648C43.9922 153.414 44.0156 153.297 44.0625 153.297C44.1875 153.297 44.3594 153.273 44.5781 153.227C44.7969 153.164 45 153.094 45.1875 153.016C45.3906 152.922 45.5 152.844 45.5156 152.781C45.625 152.344 45.6797 151.797 45.6797 151.141V148.75C45.6797 146.484 44.9531 145.352 43.5 145.352C42.9844 145.352 42.5625 145.477 42.2344 145.727C41.9062 145.977 41.7031 146.219 41.625 146.453C41.625 146.656 41.6328 146.836 41.6484 146.992C41.6641 147.133 41.6719 147.422 41.6719 147.859V150.766C41.6719 151.203 41.6797 151.594 41.6953 151.938C41.7266 152.281 41.7734 152.562 41.8359 152.781C41.8672 152.844 41.9766 152.922 42.1641 153.016C42.3672 153.094 42.5781 153.164 42.7969 153.227C43.0156 153.273 43.1719 153.297 43.2656 153.297C43.3125 153.297 43.3359 153.414 43.3359 153.648C43.3516 153.867 43.3438 154.016 43.3125 154.094C43.25 154.078 43.0312 154.055 42.6562 154.023C42.2969 154.008 41.9062 153.992 41.4844 153.977C41.0625 153.945 40.7266 153.93 40.4766 153.93C40.2266 153.93 39.8906 153.945 39.4688 153.977C39.0625 153.992 38.6719 154.008 38.2969 154.023C37.9375 154.055 37.7109 154.078 37.6172 154.094C37.5703 154.016 37.5469 153.867 37.5469 153.648C37.5469 153.414 37.5703 153.297 37.6172 153.297C37.7422 153.297 37.9141 153.273 38.1328 153.227C38.3516 153.164 38.5547 153.094 38.7422 153.016C38.9453 152.922 39.0547 152.844 39.0703 152.781C39.1797 152.344 39.2344 151.773 39.2344 151.07V148.82C39.2344 147.602 39.0547 146.719 38.6953 146.172C38.3359 145.625 37.8047 145.352 37.1016 145.352C36.6328 145.352 36.2031 145.484 35.8125 145.75C35.4219 146.016 35.2266 146.312 35.2266 146.641V150.672C35.2266 151.609 35.2891 152.312 35.4141 152.781C35.4453 152.844 35.5547 152.922 35.7422 153.016C35.9297 153.094 36.125 153.164 36.3281 153.227C36.5469 153.273 36.7031 153.297 36.7969 153.297C36.8594 153.297 36.8906 153.414 36.8906 153.648C36.9062 153.867 36.8984 154.016 36.8672 154.094C36.7891 154.078 36.5625 154.055 36.1875 154.023C35.8281 154.008 35.4453 153.992 35.0391 153.977C34.6328 153.945 34.3047 153.93 34.0547 153.93C33.8047 153.93 33.4609 153.945 33.0234 153.977C32.6016 153.992 32.2109 154.008 31.8516 154.023C31.4922 154.055 31.2656 154.078 31.1719 154.094ZM53.5078 154.164C52.7266 154.164 52.0859 153.953 51.5859 153.531C51.1016 153.094 50.8594 152.5 50.8594 151.75C50.8594 151.234 51.0234 150.766 51.3516 150.344C51.6953 149.922 52.1719 149.562 52.7812 149.266C53 149.156 53.1953 149.07 53.3672 149.008C53.5547 148.93 53.7266 148.859 53.8828 148.797C54.4297 148.625 54.8828 148.484 55.2422 148.375C55.6172 148.266 55.8828 148.188 56.0391 148.141C56.1797 148.062 56.25 147.938 56.25 147.766V146.477C56.25 145.93 56.125 145.5 55.875 145.188C55.625 144.875 55.2891 144.719 54.8672 144.719C54.3984 144.719 54.0312 144.867 53.7656 145.164C53.5 145.445 53.3672 145.852 53.3672 146.383C53.3672 146.695 53.25 146.93 53.0156 147.086C52.7812 147.227 52.5156 147.297 52.2188 147.297C51.6406 147.297 51.2344 147.109 51 146.734C51 146.359 51.1406 145.992 51.4219 145.633C51.7031 145.258 52.0703 144.922 52.5234 144.625C52.9922 144.328 53.5078 144.094 54.0703 143.922C54.6328 143.734 55.1953 143.641 55.7578 143.641C56.7266 143.641 57.4531 143.898 57.9375 144.414C58.4219 144.914 58.6641 145.781 58.6641 147.016V151.633C58.6641 152.273 58.9219 152.594 59.4375 152.594C59.6719 152.594 59.9375 152.492 60.2344 152.289C60.3281 152.305 60.375 152.391 60.375 152.547C60.375 152.844 60.3281 153.078 60.2344 153.25C60 153.438 59.6875 153.633 59.2969 153.836C58.9062 154.039 58.5312 154.141 58.1719 154.141C57.8125 154.141 57.4609 154.008 57.1172 153.742C56.7734 153.477 56.5469 153.188 56.4375 152.875C56.3125 152.984 56.2188 153.062 56.1562 153.109C56.0938 153.156 55.9922 153.234 55.8516 153.344C55.5234 153.562 55.1641 153.758 54.7734 153.93C54.3828 154.086 53.9609 154.164 53.5078 154.164ZM54.7031 152.641C55.125 152.641 55.4844 152.531 55.7812 152.312C56.0938 152.094 56.25 151.844 56.25 151.562V149.172L54.75 149.688C54.3906 149.844 54.0703 150.031 53.7891 150.25C53.5078 150.469 53.3672 150.781 53.3672 151.188C53.3672 151.688 53.4922 152.055 53.7422 152.289C53.9922 152.523 54.3125 152.641 54.7031 152.641Z" fill="white"/>
</svg>
